<svg xmlns="http://www.w3.org/2000/svg" xmlns:xlink="http://www.w3.org/1999/xlink" width="60" height="62.855" viewBox="0 0 60 62.855"><defs><clipPath id="a"><rect width="60" height="62.855" fill="#fff"/></clipPath></defs><g clip-path="url(#a)"><path d="M58.567,62.856h0a1.429,1.429,0,0,0,1.069-2.378l-3.834-4.319a3.462,3.462,0,0,0-5.381.135l-.3.4-1.913.342-6.393-1.8a13.344,13.344,0,0,0-6.983-.068l-.522.136L28.394,49.08a8.612,8.612,0,0,0-2.536-5.2l-.919-.9a11.03,11.03,0,0,1,2.4-9.17l.59-.7a6.441,6.441,0,0,0,1.651-3.689l.986.148-.085.327a7.153,7.153,0,0,0,4.528,8.541l.531.189a1.04,1.04,0,0,0,1.349-1.26L36.28,35.2a4.244,4.244,0,0,1,.583-3.546,4.315,4.315,0,0,0,.2-4.568l-.229-.409A4.517,4.517,0,0,0,34.6,21.013l-.661-.325L32.8,20.015,31.446,18.6l1.071-1.349a6.558,6.558,0,0,0,1.224-2.492l2.126-6.615,2.072-1.5a1.039,1.039,0,0,0,.4-.583l.991-3.844A1.04,1.04,0,0,0,38.532.937L34.139.023A1.038,1.038,0,0,0,32.987.6L30.855,5.1l-5.61,9.951a7.947,7.947,0,0,0-.892,2.455l-1.274,6.853-4.612,1.362a4.691,4.691,0,0,0-3.333,4.889l.147,1.691-.133.651a23.892,23.892,0,0,0-.037,9.324l-7.5-2.47a4.834,4.834,0,0,0-3.256.086l-.057.022A4.978,4.978,0,0,0,1.219,45.63C2,49.251,3.2,54.821,3.627,56.832L1.209,58.161A2.319,2.319,0,0,0,.133,60.972L.142,61a2.361,2.361,0,0,0,2.223,1.579h.009c1.016,0,2.663,0,3.924,0A4.3,4.3,0,0,0,9.9,60.63l.019-.029a4.409,4.409,0,0,0,.7-2.893c-.2-1.805-.572-5.255-.817-7.51a57.8,57.8,0,0,0,5.6,3.05l1.017.483L29.4,61.507a8.326,8.326,0,0,0,4.194,1.181Zm-7.686-4.189a1.04,1.04,0,0,0,.642-.39l.55-.716a1.382,1.382,0,0,1,2.152-.049l.017.02,2.878,3.241-8.056-.024.087-1.772,1.73-.309ZM17.06,34.042l5.992,3.714a13.1,13.1,0,0,0-.291,4.76l-5.42.249A21.8,21.8,0,0,1,17.06,34.042Zm18.086-3.559a6.318,6.318,0,0,0-.892,5.2,5.067,5.067,0,0,1-1.764-5.254l.166-.637a4.513,4.513,0,0,0,2.685-1.1l.113-.1A2.245,2.245,0,0,1,35.146,30.483Zm-2.138-5.327.943-2.125a2.44,2.44,0,0,1,.262,3.884l-.235.2a2.438,2.438,0,0,1-1.963.57l-2.267-.341.089-1.108,2.425-.487A1.04,1.04,0,0,0,33.008,25.156Zm-.886-3.128-.8,1.793-1.314.264.3-3.67L31.4,21.556a1.041,1.041,0,0,0,.222.176ZM26.4,17.891a5.873,5.873,0,0,1,.659-1.814l5.628-9.983c.012-.022.024-.044.034-.066l1.8-3.8,2.525.525-.625,2.426-2.044,1.48a1.039,1.039,0,0,0-.38.524s-2.257,7.025-2.263,7.05a4.463,4.463,0,0,1-.84,1.724l-2.373,2.987a1.04,1.04,0,0,0-.222.563l-.777,9.628a4.348,4.348,0,0,1-1.06,2.5c-.018.018-.372.384-.528.511a2.264,2.264,0,0,1-3.689-1.761v-.5a2.275,2.275,0,0,1,.478-1.389l2.1-2.7C24.834,25.778,26.4,17.891,26.4,17.891ZM19.056,27.72l2.237-.882a5.778,5.778,0,0,0-1.132,3.05v.5a4.33,4.33,0,0,0,4.059,4.333q-.266.5-.487,1.014L17.32,31.757l-.115-1.322A2.6,2.6,0,0,1,19.056,27.72ZM8.16,59.488a2.223,2.223,0,0,1-1.862,1c-1.263,0-2.913,0-3.931,0h0a.276.276,0,0,1-.262-.189L2.1,60.283a.247.247,0,0,1,.114-.3L5.092,58.4,8.56,58.26a2.332,2.332,0,0,1-.381,1.2Zm22.308.235s-13.086-7.834-13.116-7.848l-1.062-.5a55.686,55.686,0,0,1-6.812-3.848l-.372-.246a1.04,1.04,0,0,0-1.607.98s.512,4.712.862,7.932l-2.722.11c-.448-2.09-1.618-7.542-2.387-11.105a2.907,2.907,0,0,1,1.8-3.334l.057-.022a2.749,2.749,0,0,1,1.852-.049s9.4,3.083,9.418,3.085,7.2-.311,7.2-.311l.822.805A6.537,6.537,0,0,1,26.353,49.6a1.039,1.039,0,0,0,.284.647l6.587,6.926a1.04,1.04,0,0,0,1.016.29l1.116-.291a11.266,11.266,0,0,1,5.893.057l5.826,1.642-.092,1.861-13.37-.127A6.244,6.244,0,0,1,30.468,59.723Z" transform="translate(0 -0.001)" fill="#fff"/></g></svg>