<svg xmlns="http://www.w3.org/2000/svg" xmlns:xlink="http://www.w3.org/1999/xlink" width="52.707" height="60.516" viewBox="0 0 52.707 60.516"><defs><clipPath id="a"><rect width="52.707" height="60.516" fill="#fff"/></clipPath></defs><g clip-path="url(#a)"><path d="M50.616,41.712,43.359,35.62l-1.038-9.877a5.872,5.872,0,0,0-4.4-5.069l-7.66-1.916V17.406a7.315,7.315,0,0,0,3.416-6.181V7.32a7.32,7.32,0,0,0-14.641,0v3.9a7.315,7.315,0,0,0,3.416,6.181v1.353l-7.66,1.916a5.872,5.872,0,0,0-4.4,5.069L9.349,35.62,2.092,41.712A5.843,5.843,0,0,0,0,46.2v.653a4.87,4.87,0,0,0,4.3,4.822,6.106,6.106,0,0,0,5.71,3.956h4l-.184,2.019a2.629,2.629,0,0,0,5.058,1.214l1.294-3.227H32.525l1.291,3.228a2.635,2.635,0,0,0,2.446,1.652,2.669,2.669,0,0,0,.683-.09,2.7,2.7,0,0,0,1.919-2.869l-.175-1.927h4a6.106,6.106,0,0,0,5.71-3.956,4.87,4.87,0,0,0,4.305-4.824V46.2a5.843,5.843,0,0,0-2.092-4.486M20.985,11.225V7.32a5.368,5.368,0,0,1,10.737,0v3.9a5.368,5.368,0,1,1-10.737,0m-3.9,46.913a.676.676,0,0,1-1.3-.312l.2-2.2h2.1Zm19.366.4a.683.683,0,0,1-.815-.4L34.095,54.3a.976.976,0,0,0-.909-.613l-23.175-.008a4.156,4.156,0,1,1,1.009-8.191L32.949,50.97a.984.984,0,0,0,.53-.02l1.6-.5a.976.976,0,0,1,1.269.845l.586,6.433a.75.75,0,0,1-.485.81ZM10.8,43.462l2.831-1.7a4.88,4.88,0,0,0,2.29-3.308l.123-.674.351,7.04-4.9-1.225a6.3,6.3,0,0,0-.7-.136M42.7,53.676H38.513l-.22-2.425a3.089,3.089,0,0,0-.971-2.05,2.928,2.928,0,0,0-2.831-.614l-1.334.418-2.78-.691,11.309-2.831a4.156,4.156,0,1,1,1.01,8.188Zm-6.382-8.858.351-7.042.124.676a4.88,4.88,0,0,0,2.291,3.312l2.831,1.7a6.365,6.365,0,0,0-.7.132l-4.9,1.225Zm14.441,2.032A2.934,2.934,0,0,1,48.8,49.612V47.534a3.923,3.923,0,0,0-1.895-3.347l-6.825-4.095a2.928,2.928,0,0,1-1.374-1.986l-1.636-9a1,1,0,0,0-1.022-.8.976.976,0,0,0-.914.927l-.8,16.081-7.98,2-7.982-2-.8-16.081a.976.976,0,0,0-.914-.927,1.013,1.013,0,0,0-1.022.8L14,38.1a2.928,2.928,0,0,1-1.375,1.986L5.8,44.188A3.923,3.923,0,0,0,3.9,47.534v2.08a2.934,2.934,0,0,1-1.952-2.763V46.2a3.9,3.9,0,0,1,1.394-2.991l7.56-6.344a.968.968,0,0,0,.343-.646l1.079-10.268a3.92,3.92,0,0,1,2.936-3.38l8.4-2.1a.976.976,0,0,0,.74-.948V18.273a7.133,7.133,0,0,0,3.9,0v1.248a.976.976,0,0,0,.74.947l8.394,2.1a3.92,3.92,0,0,1,2.936,3.38l1.074,10.268a.968.968,0,0,0,.343.646l7.56,6.344a3.9,3.9,0,0,1,1.4,2.992Z" transform="translate(0)" fill="#fff"/></g></svg>