<svg xmlns="http://www.w3.org/2000/svg" xmlns:xlink="http://www.w3.org/1999/xlink" width="59.172" height="59.068" viewBox="0 0 59.172 59.068"><defs><clipPath id="a"><rect width="59.172" height="59.068" fill="#fff"/></clipPath></defs><g transform="translate(65 -126.001)"><g transform="translate(-65 126.001)" clip-path="url(#a)"><path d="M58.594,8.767A65.506,65.506,0,0,0,25.874,0a1.156,1.156,0,0,0-1.116.857L21.674,12.363a23.432,23.432,0,0,0-.64,8.9q-2.354.449-4.673,1.07A65.454,65.454,0,0,0,.578,28.87a1.156,1.156,0,0,0-.538,1.3L3.123,41.677C5.88,51.985,15.744,59.774,26.5,59.016A23.648,23.648,0,0,0,38.3,38.522,23.688,23.688,0,0,0,56.049,21.573l3.083-11.506A1.156,1.156,0,0,0,58.594,8.767ZM25.612,56.858A21.323,21.323,0,0,1,5.355,41.078L2.5,30.435a63.19,63.19,0,0,1,29.91-8.014l2.852,10.644A21.323,21.323,0,0,1,25.612,56.858Zm28.2-35.883a21.4,21.4,0,0,1-15.637,15.2,23.566,23.566,0,0,0-.682-3.713l-2.486-9.277a6.941,6.941,0,0,1,6.949,5.139,1.156,1.156,0,1,0,2.233-.6A9.3,9.3,0,0,0,34.4,20.913a1.156,1.156,0,0,0-1.1-.81h0a65.447,65.447,0,0,0-9.98.766,21.134,21.134,0,0,1,.591-7.908L26.759,2.317a63.191,63.191,0,0,1,29.91,8.014Z" transform="translate(0 0)" fill="#fff"/><path d="M85.817,311.454a1.156,1.156,0,0,0,1.635-1.634,5.159,5.159,0,0,0-8.631,2.313,1.156,1.156,0,1,0,2.233.6,2.848,2.848,0,0,1,4.764-1.277Z" transform="translate(-69.676 -272.678)" fill="#fff"/><path d="M198.378,277.426a5.174,5.174,0,0,0-3.648,3.648,1.156,1.156,0,0,0,2.233.6,2.848,2.848,0,0,1,4.764-1.277,1.156,1.156,0,1,0,1.635-1.634A5.174,5.174,0,0,0,198.378,277.426Z" transform="translate(-172.19 -245.209)" fill="#fff"/><path d="M133.932,341.629a1.156,1.156,0,0,0-1.416.817,6.939,6.939,0,0,1-11.609,3.111,1.156,1.156,0,0,0-1.635,1.635,9.275,9.275,0,0,0,15.476-4.147A1.156,1.156,0,0,0,133.932,341.629Z" transform="translate(-105.189 -302.111)" fill="#fff"/><path d="M250.868,98.841a2.848,2.848,0,0,1-4.765-1.277,1.156,1.156,0,1,0-2.233.6,5.176,5.176,0,0,0,8.631,2.313,1.156,1.156,0,1,0-1.634-1.635" transform="translate(-215.652 -85.531)" fill="#fff"/><path d="M359.782,129.221a5.175,5.175,0,0,0,8.631,2.313,1.156,1.156,0,1,0-1.634-1.634,2.848,2.848,0,0,1-4.765-1.277,1.156,1.156,0,0,0-2.233.6Z" transform="translate(-318.167 -113)" fill="#fff"/></g></g></svg>