<svg xmlns="http://www.w3.org/2000/svg" xmlns:xlink="http://www.w3.org/1999/xlink" width="54" height="67.359" viewBox="0 0 54 67.359"><defs><clipPath id="a"><rect width="54" height="67.36" fill="#fff"/></clipPath></defs><g clip-path="url(#a)"><path d="M181.815.066a.855.855,0,0,0-1.12.431l-1.723,4.05a.855.855,0,0,0,.431,1.12.518.518,0,0,0,.345.086.754.754,0,0,0,.775-.517l1.723-4.05a.855.855,0,0,0-.431-1.12" transform="translate(-148.798 0)" fill="#fff"/><path d="M199.846,30.7a.855.855,0,0,0-1.12-.431l-3.963,1.9a.855.855,0,0,0-.431,1.12.828.828,0,0,0,.775.517.518.518,0,0,0,.345-.086l3.964-1.9a.855.855,0,0,0,.431-1.12" transform="translate(-161.573 -25.124)" fill="#fff"/><path d="M188.6,122.465a.736.736,0,0,0-.948-.6l-4.825,1.12-4.308-17.491c2.068-.948,3.533-3.447,4.136-7.065a34.927,34.927,0,0,0-.775-13.786c-.775-3.016-2.93-10.512-4.308-13.269a.866.866,0,0,0-.948-.431l-14.045,3.447a.839.839,0,0,0-.689.862c.086,3.1,1.637,10.77,2.326,13.786,2.413,9.909,7.669,16.974,12.408,16.974h.258l4.308,17.491-4.911,1.12a.818.818,0,0,0-.6,1.034.839.839,0,0,0,.862.689h.172L188,123.5a.818.818,0,0,0,.6-1.034M163.613,75.851l12.666-3.1c.517,1.206,1.12,2.93,1.723,4.825l-13.7,3.188a47.22,47.22,0,0,1-.689-4.911M165.94,88.6c-.345-1.379-.862-3.705-1.292-6.118l13.872-3.274c.689,2.326,1.292,4.567,1.637,5.859a32.719,32.719,0,0,1,.775,13.011c-.6,3.36-1.982,5.6-3.705,6.031-3.36.862-8.789-5.17-11.287-15.509" transform="translate(-134.646 -58.983)" fill="#fff"/><path d="M247.271,144.643a.846.846,0,1,0-1.637.431c1.723,6.893,1.379,12.666.689,14.389a.855.855,0,0,0,.431,1.12.518.518,0,0,0,.345.086.873.873,0,0,0,.775-.517c.862-1.982,1.206-8.186-.6-15.509" transform="translate(-204.259 -119.762)" fill="#fff"/><path d="M26.124,5.778,12.079,2.331a.816.816,0,0,0-.948.431C9.753,5.606,7.6,13.016,6.823,16.031a34.857,34.857,0,0,0-.775,13.786c.689,3.705,2.154,6.118,4.136,7.065L5.876,54.374,1.05,53.168a.886.886,0,0,0-1.034.6A.886.886,0,0,0,.62,54.8l11.374,2.93h.172a.907.907,0,0,0,.862-.689.886.886,0,0,0-.6-1.034L7.6,54.8l4.308-17.491h.258c2.154,0,4.567-1.551,6.721-4.394a34.6,34.6,0,0,0,5.6-12.58A94.011,94.011,0,0,0,26.813,6.553a1,1,0,0,0-.689-.775m-3.36,14.3a32.919,32.919,0,0,1-5.256,11.891c-2.068,2.757-4.308,4.05-6.031,3.619s-3.1-2.585-3.705-6.031a32.646,32.646,0,0,1,.775-13.011c.345-1.379.948-3.619,1.637-5.859l13.872,3.274c-.431,2.413-.948,4.739-1.292,6.118M24.4,12.24,10.7,8.966c.6-1.809,1.206-3.619,1.723-4.825l12.666,3.1c-.172,1.379-.431,3.1-.689,5" transform="translate(0 -1.921)" fill="#fff"/><path d="M60.215,75.574a.886.886,0,0,0-1.034.6c-1.809,7.324-1.465,13.441-.6,15.509a.828.828,0,0,0,.775.517.518.518,0,0,0,.345-.086A.79.79,0,0,0,60.129,91c-.689-1.723-1.034-7.582.689-14.389a.854.854,0,0,0-.6-1.034" transform="translate(-48.136 -62.842)" fill="#fff"/></g></svg>