<svg xmlns="http://www.w3.org/2000/svg" xmlns:xlink="http://www.w3.org/1999/xlink" width="60" height="60" viewBox="0 0 60 60"><defs><clipPath id="a"><rect width="60" height="60" fill="#fff"/></clipPath></defs><g clip-path="url(#a)"><path d="M100,54a20,20,0,0,0,6-39.08V12.06A3.916,3.916,0,0,0,102.25,8H101V1a1,1,0,0,0-2,0V8H97.75A3.916,3.916,0,0,0,94,12.06v2.86A20,20,0,0,0,100,54M82.05,35h3.98a24.884,24.884,0,0,0,1.96,8.84c-.76.41-1.47.84-2.11,1.27A17.9,17.9,0,0,1,82.06,35ZM87.2,46.64c.51-.34,1.07-.67,1.66-.99a20.253,20.253,0,0,0,3.29,4.53A17.977,17.977,0,0,1,87.2,46.64ZM94.02,35a51.8,51.8,0,0,0,.47,6.23,29.585,29.585,0,0,0-4.71,1.72A22.913,22.913,0,0,1,88.03,35Zm-5.99-2a22.7,22.7,0,0,1,1.91-8.31,21.461,21.461,0,0,0,4.61,1.66A52.819,52.819,0,0,0,94.02,33Zm2.62,11.75a29.711,29.711,0,0,1,4.15-1.53,29.009,29.009,0,0,0,2.74,8.45,16.329,16.329,0,0,1-6.89-6.93ZM100,27a23.7,23.7,0,0,0,3.49-.27,50.542,50.542,0,0,1,.5,6.27H96.03a50.539,50.539,0,0,1,.5-6.27,23.592,23.592,0,0,0,3.49.27Zm-3.16-2.25A23.349,23.349,0,0,1,100,16.14a23.349,23.349,0,0,1,3.16,8.61A20.722,20.722,0,0,1,100,25,22.078,22.078,0,0,1,96.84,24.75ZM103.98,35a50.8,50.8,0,0,1-.43,5.78,18.28,18.28,0,0,0-7.12,0A50.972,50.972,0,0,1,96,35h7.98Zm-7.23,7.77a17.6,17.6,0,0,1,3.25-.34,16.779,16.779,0,0,1,3.25.34A24.08,24.08,0,0,1,100,51.86a24.146,24.146,0,0,1-3.25-9.09m5.71,8.91a28.725,28.725,0,0,0,2.73-8.45,29.061,29.061,0,0,1,4.16,1.53,16.329,16.329,0,0,1-6.89,6.93ZM105.98,33a52.821,52.821,0,0,0-.53-6.65,21.611,21.611,0,0,0,4.61-1.66A23.113,23.113,0,0,1,111.97,33Zm5.99,2a22.913,22.913,0,0,1-1.75,7.95,30.594,30.594,0,0,0-4.71-1.72,53.93,53.93,0,0,0,.47-6.23Zm-4.12,15.17a20.253,20.253,0,0,0,3.29-4.53c.59.32,1.15.65,1.66.99A17.977,17.977,0,0,1,107.85,50.17Zm6.28-5.06c-.64-.43-1.35-.86-2.11-1.27A24.884,24.884,0,0,0,113.98,35h3.98a17.845,17.845,0,0,1-3.82,10.11ZM117.95,33h-3.98a24.787,24.787,0,0,0-2.16-9.29,19.6,19.6,0,0,0,1.89-1.35A17.947,17.947,0,0,1,117.95,33m-5.63-12.09a17.3,17.3,0,0,1-1.42,1,20.511,20.511,0,0,0-3.07-4.1,17.716,17.716,0,0,1,4.49,3.1m-3.16,1.99a20.392,20.392,0,0,1-4.03,1.47,28.268,28.268,0,0,0-2.65-8.04,16.153,16.153,0,0,1,6.68,6.57M95.85,12.07a1.983,1.983,0,0,1,1.9-2.06h4.51a1.983,1.983,0,0,1,1.9,2.06v2.38a19.791,19.791,0,0,0-8.3,0V12.07Zm1.69,4.27a28.268,28.268,0,0,0-2.65,8.04,19.779,19.779,0,0,1-4.03-1.47,16.27,16.27,0,0,1,6.68-6.57m-5.35,1.49a20.138,20.138,0,0,0-3.07,4.1c-.49-.31-.97-.65-1.42-1a18.347,18.347,0,0,1,4.49-3.1m-5.88,4.55a19.6,19.6,0,0,0,1.89,1.35,24.787,24.787,0,0,0-2.16,9.29H82.06a17.859,17.859,0,0,1,4.25-10.64" transform="translate(-70)" fill="#fff"/><path d="M41,8a1,1,0,0,0-1,1v2a1,1,0,0,0,2,0V9a1,1,0,0,0-1-1" transform="translate(-35 -7)" fill="#fff"/><path d="M3,48H1a1,1,0,0,0,0,2H3a1,1,0,0,0,0-2" transform="translate(0 -42)" fill="#fff"/><path d="M67,48H65a1,1,0,0,0,0,2h2a1,1,0,0,0,0-2" transform="translate(-56 -42)" fill="#fff"/><path d="M40,75a1,1,0,0,0,2,0V73a1,1,0,0,0-2,0Z" transform="translate(-35 -63)" fill="#fff"/><path d="M425,388a1,1,0,0,0,1-1v-2a1,1,0,0,0-2,0v2a1,1,0,0,0,1,1" transform="translate(-371 -336)" fill="#fff"/><path d="M387,424h-2a1,1,0,0,0,0,2h2a1,1,0,0,0,0-2" transform="translate(-336 -371)" fill="#fff"/><path d="M451,424h-2a1,1,0,0,0,0,2h2a1,1,0,0,0,0-2" transform="translate(-392 -371)" fill="#fff"/><path d="M424,451a1,1,0,0,0,2,0v-2a1,1,0,0,0-2,0Z" transform="translate(-371 -392)" fill="#fff"/><path d="M358,11a3,3,0,1,0-3,3,3.009,3.009,0,0,0,3-3m-3,1a1,1,0,1,1,1-1,1,1,0,0,1-1,1" transform="translate(-308 -7)" fill="#fff"/><path d="M435,224a3,3,0,1,0,3,3,3.009,3.009,0,0,0-3-3m0,4a1,1,0,1,1,1-1,1,1,0,0,1-1,1" transform="translate(-378 -196)" fill="#fff"/><path d="M24,387a3,3,0,1,0,3-3,3.009,3.009,0,0,0-3,3m4,0a1,1,0,1,1-1-1,1,1,0,0,1,1,1" transform="translate(-21 -336)" fill="#fff"/><path d="M0,163a3,3,0,1,0,3-3,3.009,3.009,0,0,0-3,3m4,0a1,1,0,1,1-1-1,1,1,0,0,1,1,1" transform="translate(0 -140)" fill="#fff"/><path d="M105,120a1,1,0,1,1-1,1,1,1,0,0,1,1-1" transform="translate(-91 -105)" fill="#fff"/><path d="M25,288a1,1,0,1,1-1,1,1,1,0,0,1,1-1" transform="translate(-21 -252)" fill="#fff"/><path d="M377,104a1,1,0,1,1-1,1,1,1,0,0,1,1-1" transform="translate(-329 -91)" fill="#fff"/><path d="M457,152a1,1,0,1,1-1,1,1,1,0,0,1,1-1" transform="translate(-399 -133)" fill="#fff"/><path d="M449,328a1,1,0,1,1-1,1,1,1,0,0,1,1-1" transform="translate(-392 -287)" fill="#fff"/><path d="M137,456a1,1,0,1,1-1,1,1,1,0,0,1,1-1" transform="translate(-119 -399)" fill="#fff"/><path d="M321,464a1,1,0,1,1-1,1,1,1,0,0,1,1-1" transform="translate(-280 -406)" fill="#fff"/><path d="M153,8a1,1,0,1,1-1,1,1,1,0,0,1,1-1" transform="translate(-133 -7)" fill="#fff"/></g></svg>