<svg xmlns="http://www.w3.org/2000/svg" xmlns:xlink="http://www.w3.org/1999/xlink" width="71" height="71" viewBox="0 0 71 71"><defs><clipPath id="a"><rect width="71" height="71" transform="translate(0.287 0.025)" fill="#fff"/></clipPath></defs><g transform="translate(-16 -15.738)"><g transform="translate(15.713 15.713)" clip-path="url(#a)"><path d="M70.212,34.035l-7.487-3.011a27.414,27.414,0,0,0-5.36-12.186l.623-3.5a1.743,1.743,0,0,0-2.022-2.021l-3.5.622A27.409,27.409,0,0,0,40.282,8.58L37.271,1.093A1.736,1.736,0,0,0,35.653,0h0a1.736,1.736,0,0,0-1.618,1.093L31.024,8.58a27.415,27.415,0,0,0-12.186,5.36l-3.5-.623a1.743,1.743,0,0,0-2.021,2.022l.622,3.5A27.406,27.406,0,0,0,8.58,31.024L1.093,34.035a1.744,1.744,0,0,0,0,3.236L8.58,40.282a27.409,27.409,0,0,0,5.36,12.186l-.623,3.5a1.744,1.744,0,0,0,2.022,2.021l3.5-.622a27.407,27.407,0,0,0,12.186,5.36l3.011,7.487a1.736,1.736,0,0,0,1.618,1.093h0a1.736,1.736,0,0,0,1.618-1.093l3.011-7.487a27.409,27.409,0,0,0,12.186-5.36l3.5.623a1.743,1.743,0,0,0,2.021-2.022l-.622-3.5a27.4,27.4,0,0,0,5.36-12.186l7.487-3.011a1.744,1.744,0,0,0,0-3.236Zm-9.8-3.939L57.1,28.764a22.369,22.369,0,0,0-1.036-2.64l.785-4.414A25.327,25.327,0,0,1,60.416,30.1ZM49.6,14.451l-4.413.785A22.37,22.37,0,0,0,42.542,14.2L41.21,10.889A25.326,25.326,0,0,1,49.6,14.451ZM30.1,10.889,28.764,14.2a22.348,22.348,0,0,0-2.635,1.037l-4.42-.786A25.333,25.333,0,0,1,30.1,10.889Zm-6.841,5.959a22.47,22.47,0,0,0-6.406,6.406l-1.387-7.793Zm-8.8,4.862.786,4.419A22.348,22.348,0,0,0,14.2,28.764l-3.31,1.331a25.32,25.32,0,0,1,3.561-8.385m-3.562,19.5L14.2,42.542a22.348,22.348,0,0,0,1.037,2.635L14.451,49.6A25.328,25.328,0,0,1,10.889,41.21Zm5.959,6.842a22.47,22.47,0,0,0,6.406,6.406l-7.793,1.387Zm4.862,8.8,4.42-.786A22.348,22.348,0,0,0,28.764,57.1L30.1,60.415a25.319,25.319,0,0,1-8.386-3.561m19.5,3.561L42.542,57.1a22.356,22.356,0,0,0,2.635-1.037l4.42.786A25.329,25.329,0,0,1,41.21,60.416Zm6.841-5.958a22.473,22.473,0,0,0,6.406-6.406l1.387,7.793Zm8.8-4.861-.786-4.42A22.354,22.354,0,0,0,57.1,42.542l3.31-1.331A25.317,25.317,0,0,1,56.854,49.6Zm-.99-8.807a1.045,1.045,0,0,0-.612.673,20.483,20.483,0,0,1-13.79,13.79,1.044,1.044,0,0,0-.673.612L35.653,68.636,30.516,55.864a1.045,1.045,0,0,0-.673-.612,20.483,20.483,0,0,1-13.79-13.79,1.044,1.044,0,0,0-.612-.673L2.669,35.653l12.773-5.136a1.044,1.044,0,0,0,.612-.673,20.483,20.483,0,0,1,13.79-13.79,1.044,1.044,0,0,0,.673-.612L35.653,2.669l5.136,12.772a1.045,1.045,0,0,0,.673.612,20.275,20.275,0,0,1,7.3,3.923,1.044,1.044,0,0,0,1.341-1.6,22.8,22.8,0,0,0-2.049-1.528l7.789-1.386-1.386,7.791q-.463-.7-.98-1.37a1.045,1.045,0,0,0-1.652,1.278,20.3,20.3,0,0,1,3.426,6.683,1.044,1.044,0,0,0,.612.673l12.773,5.136Z" transform="translate(-0.201 -0.279)" fill="#fff"/><path d="M166.575,144.088a17.969,17.969,0,0,0-11.925-11.925,1.04,1.04,0,0,0-.558-.015l-4.724,1.175-4.724-1.175a1.043,1.043,0,0,0-.558.015,17.877,17.877,0,0,0-5.926,3.129,1.044,1.044,0,1,0,1.3,1.633,15.8,15.8,0,0,1,4.964-2.68l4.519,1.124a1.741,1.741,0,0,0,.844,0l4.521-1.125a15.882,15.882,0,0,1,10.182,10.182l-1.124,4.519a1.748,1.748,0,0,0,0,.844l1.077,4.328-10.081-11.3a2.429,2.429,0,0,0-3.187-.39,7.456,7.456,0,0,0-4.076-3.761,1.045,1.045,0,1,0-.748,1.951,5.37,5.37,0,0,1,3.248,3.523l-4.958,5.833-.873-1.016a2.43,2.43,0,0,0-1.848-.849h-.038a2.427,2.427,0,0,0-1.758.794,5.387,5.387,0,0,1,2.34-8.272,1.045,1.045,0,1,0-.76-1.946,7.477,7.477,0,0,0-2.926,11.873l-4.057,5.029q-.264-.623-.477-1.273l1.124-4.519a1.748,1.748,0,0,0,0-.844l-1.125-4.52a15.83,15.83,0,0,1,2.212-4.347,1.044,1.044,0,1,0-1.695-1.222,17.9,17.9,0,0,0-2.6,5.228,1.046,1.046,0,0,0-.015.558l1.176,4.724-1.175,4.724a1.048,1.048,0,0,0,.015.558,17.969,17.969,0,0,0,11.925,11.925,1.043,1.043,0,0,0,.558.015l4.723-1.175,4.724,1.175a1.043,1.043,0,0,0,.558-.015,17.969,17.969,0,0,0,11.925-11.925,1.046,1.046,0,0,0,.015-.558l-1.175-4.723,1.175-4.724A1.044,1.044,0,0,0,166.575,144.088Zm-14.036,0a.351.351,0,0,1,.264.116l4.9,5.493-.507,1-.495-.341a1.044,1.044,0,0,0-1.5.348L153.346,154l-2.135-3.8a1.045,1.045,0,0,0-1.471-.369l-1.958,1.246-.606-.863,5.1-6A.344.344,0,0,1,152.539,144.092Zm-10.89,6.234a.344.344,0,0,1,.266-.13.35.35,0,0,1,.27.121l1.088,1.267-6.445,7.581a15.845,15.845,0,0,1-1.064-1.544Zm12.661,14.168-4.519-1.124a1.745,1.745,0,0,0-.844,0l-4.521,1.125a15.887,15.887,0,0,1-6.194-3.757l7.545-8.876.485.691a1.738,1.738,0,0,0,2.359.469l1.309-.832,1.9,3.375a1.741,1.741,0,0,0,3.035,0l1.6-2.841a1.741,1.741,0,0,0,2.417-.723l.318-.625,4.459,5A15.88,15.88,0,0,1,154.309,164.494Z" transform="translate(-113.916 -113.997)" fill="#fff"/><path d="M249.544,85.423a1.044,1.044,0,0,0,1.045-1.045V80.863a1.045,1.045,0,1,0-2.089,0v3.515a1.045,1.045,0,0,0,1.044,1.045" transform="translate(-214.093 -68.982)" fill="#fff"/><path d="M249.544,391.942a1.044,1.044,0,0,0-1.044,1.044V396.5a1.045,1.045,0,0,0,2.089,0v-3.515a1.044,1.044,0,0,0-1.045-1.044" transform="translate(-214.093 -337.636)" fill="#fff"/><path d="M391.943,249.544a1.044,1.044,0,0,0,1.045,1.045H396.5a1.045,1.045,0,0,0,0-2.089h-3.515a1.044,1.044,0,0,0-1.045,1.044" transform="translate(-337.559 -214.171)" fill="#fff"/><path d="M84.379,248.5H80.865a1.045,1.045,0,1,0,0,2.089h3.515a1.045,1.045,0,1,0,0-2.089" transform="translate(-68.905 -214.171)" fill="#fff"/></g></g></svg>