<svg xmlns="http://www.w3.org/2000/svg" xmlns:xlink="http://www.w3.org/1999/xlink" width="61" height="61" viewBox="0 0 61 61"><defs><clipPath id="a"><rect width="61" height="61" transform="translate(0 -0.001)" fill="#fff"/></clipPath></defs><g transform="translate(-0.402 -0.4)"><g transform="translate(0.402 0.401)" clip-path="url(#a)"><path d="M129.759,317.962c-.059-.1-.122-.194-.184-.278a3.982,3.982,0,0,0-5.557-.918l-11.423,8.157H100.66a1.022,1.022,0,1,1,0-2.043H107.3a3.58,3.58,0,0,0,3.576-3.576c0-.011,0-.105,0-.115a3.588,3.588,0,0,0-3.656-3.461H93.928a5.128,5.128,0,0,0-3.23,1.186l-5,4.159a1.025,1.025,0,0,0-.368.786v12.261a1.021,1.021,0,0,0,1.022,1.022h25.351a7.169,7.169,0,0,0,4.553-1.644l12.387-10.235a4.015,4.015,0,0,0,1.112-5.3m-2.355,3.68-12.446,10.28a5.127,5.127,0,0,1-3.252,1.175H87.377v-10.76l4.63-3.854a3.074,3.074,0,0,1,1.93-.712h13.316a1.561,1.561,0,0,1,1.582,1.534,1.535,1.535,0,0,1-1.533,1.533H100.66a3.065,3.065,0,0,0,0,6.131h12.261a1.035,1.035,0,0,0,.6-.19l11.691-8.349a1.939,1.939,0,0,1,2.713.454c.031.042.058.085.085.129a1.984,1.984,0,0,1-.6,2.632" transform="translate(-75.439 -278.244)" fill="#fff"/><path d="M11.209,349.867H0v2.044H10.187v15.326H0v2.043H11.209a1.021,1.021,0,0,0,1.022-1.022v-17.37a1.021,1.021,0,0,0-1.022-1.022" transform="translate(-0.322 -308.297)" fill="#fff"/><path d="M20.132,426.667a3.065,3.065,0,1,0,3.065,3.065,3.069,3.069,0,0,0-3.065-3.065m0,4.087a1.022,1.022,0,1,1,1.022-1.022,1.023,1.023,0,0,1-1.022,1.022" transform="translate(-15.346 -375.901)" fill="#fff"/><path d="M60.284,264.533H1.022A1.021,1.021,0,0,0,0,265.555a7.161,7.161,0,0,0,7.152,7.152h47a7.161,7.161,0,0,0,7.152-7.152,1.021,1.021,0,0,0-1.022-1.022m-6.131,6.131h-47a5.117,5.117,0,0,1-5.006-4.087H59.159a5.117,5.117,0,0,1-5.006,4.087" transform="translate(-0.322 -233.18)" fill="#fff"/><path d="M60.7,42.667A26.6,26.6,0,0,0,34.133,69.233v1.022a1.021,1.021,0,0,0,1.022,1.022H86.243a1.021,1.021,0,0,0,1.022-1.022V69.233A26.6,26.6,0,0,0,60.7,42.667M36.177,69.233a24.522,24.522,0,0,1,49.044,0Z" transform="translate(-30.368 -37.88)" fill="#fff"/><path d="M101.177,140.006a22.839,22.839,0,0,0-1.968,2.555l1.7,1.129a20.882,20.882,0,0,1,1.792-2.328Z" transform="translate(-87.652 -123.564)" fill="#fff"/><path d="M142.914,76.8a22.4,22.4,0,0,0-15.383,6.1l1.4,1.489a20.359,20.359,0,0,1,13.984-5.547Z" transform="translate(-112.583 -67.926)" fill="#fff"/><rect width="6.131" height="2.044" transform="translate(27.265 -0.322)" fill="#fff"/><rect width="2.044" height="5.109" transform="translate(29.309 0.7)" fill="#fff"/></g></g></svg>