<svg viewBox="0 0 200 78.96" xmlns="http://www.w3.org/2000/svg"><g fill="#7c694c"><path d="m73.05 18.26c29.6 18.54 58.68 30.88 91.04 20.74l.74-.79c-30.9 7.39-53.84-2.3-84.48-21.28 18.58-7 34.83-10.66 52.03-14.83h-8.96c-15.17 4.17-30.62 8.82-45.79 13.22l-1.19-.7c4.95-5.05 8.65-10.83 11.88-10.83h7.14s1.57-1.69 1.57-1.69h-23.21l-1.57 1.69h5.03c.9 0 1.74.48 1.21 1.09-8.38 9.79-13.97 15.79-26.17 27.61h7.47s8.65-9.79 13.27-14.23"/><path d="m19.67 63.71c9.5-3.58 17.77-5.45 26.56-7.58h-4.53c-7.76 2.13-15.67 4.52-23.43 6.77l-.61-.36c2.53-2.58 4.43-5.54 6.07-5.54h3.65s.81-.87.81-.87h-11.87l-.8.86h2.57c.46 0 .89.24.62.56-4.28 5.01-7.14 8.07-13.38 14.11h3.82s4.42-5.01 6.79-7.28c15.13 9.48 30 15.79 46.55 10.61l.38-.4c-15.8 3.78-27.53-1.18-43.19-10.88"/><path d="m91.75 67.67c-1.7-.1 2.27-8.15 11.3-6.95-5.38 6.05-9.6 7.05-11.3 6.95m8.06-.32c.68-1.51 3.32-3.84 6.9-7.85h-2.53l-.51.55c-7.17-.93-12.77 2.24-14.93 5.35-.35.2-.67.39-.75.44-3.71 2.06-8.57 4.31-6.51 1.74l4.94-5.3c5.1-5.64-7.4-1.15-9.39.02l.1-.11c5.24-5.79-7-.59-8.47.16.88-.94 1.78-1.91 2.66-2.85l-2.5-.03-9.47 10.15h2.53c4.63-5.77 13.43-10.09 13.21-7.92-.15 1.45-6.91 7.92-6.91 7.92h2.59l3.38-3.72c5.56-5.8 11.47-5.53 9.88-3.75l-4.15 4.43c-3.3 3.55-.04 4.6 8.43-.44-.47.91-.64 1.79-.43 2.52.47 1.63 4.13 1.35 10.18-2.11-1.3 3.7.99 4.66 9.83-.76l.97-1.04c-.19.11-1.62.95-1.81 1.05-3.84 2.13-8.37 4.11-7.21 1.54"/><path d="m47.44 60.73c-5.38 6.05-9.6 7.05-11.3 6.95s2.27-8.15 11.3-6.95m-15.19 7.94c.47 1.63 4.13 1.35 10.18-2.11-1.07 3.03.29 4.22 5.7 1.55l-1.42 1.52h2.53c3.98-4.34 9.63-10.13 14.63-7.55l2.03-2.18c-2.6-.73-3.48-.75-9.95 2.54.87-.93 1.87-2.01 2.74-2.94h-2.53l-6.98 7.48c-3.13 1.55-5.91 2.44-4.98.36.68-1.51 3.32-3.84 6.9-7.85h-2.53l-.51.55c-9.86-1.28-16.79 5.19-15.81 8.61"/><path d="m149.4 59.9c-2.6-.73-3.48-.75-9.95 2.54.87-.93 1.87-2.01 2.74-2.94h-2.53l-9.45 10.13h2.53c3.98-4.34 9.63-10.13 14.63-7.55z"/><path d="m132.86 64.1.5-.54h-7.59s-.5.55-.5.55h1.91c.35.02.41.22.18.46-.83.89-3.16 3.39-3.16 3.39-.52.56-.8 1.02-3.7 1.02-3.37 0-4.95-1.51-3-4.83 1.76-2.98 6.55-7.39 13.21-7.39 5.11 0 2.98 2.55 2.84 2.74h1.06l2.27-2.43c-1.34-.61-3.42-.96-5.76-.95-4.26 0-7.95 1.03-10.89 2.7-2.77 1.58-4.74 3.56-5.72 5.21-1.1 1.87-1.08 3.39-.13 4.22 1.08.96 3.08 1.38 5.67 1.38 2.03 0 3.94-.32 5.76-.71l3.73-3.99c.61-.65 1.13-.83 1.79-.83h1.52z"/><path d="m179.38 68.41c5.38-6.05 9.6-7.05 11.3-6.95s-2.27 8.15-11.3 6.95m-29.67-.81c-1.91-1.32 3.58-8.36 9.75-7.22-.04.77.99 1.88 1.57 2.22-2.46 3.18-9.44 6.29-11.31 5m44.86-7.13c-.44-1.55-3.76-1.37-9.27 1.61l2.4-2.57h-2.54l-5.72 6.14c-.17.1-.3.17-.34.2-3.71 2.06-8.57 4.31-6.51 1.74l7.54-8.08h-2.53l-3.14 3.37-.72.77c-5.43 5.35-11 5.07-9.45 3.33l2.17-2.32 4.81-5.15h-2.53l-3.51 3.76c-1.38-.16-3.18-.91-3.55-1.4-1.11-1.46.04-2.51 1.06-3.7-1.62-.34-2.25-.93-3.16 1.34-9.86-.42-16.88 9.31-12.18 10.03s11.02-2.84 14.25-6.5c1.34.58 2.54.6 3.23.6l-.88.94-2.13 2.28c-4.56 5.05 4.97 1.98 8.45.44l.08-.04c-2.21 2.89.75 3.61 8.04-.55l-7.45 7.99h2.53s5.24-5.61 5.24-5.61c9.86 1.28 16.8-5.14 15.81-8.61"/></g></svg>