<svg width="300" height="300" viewBox="0 0 300 300" fill="none" xmlns="http://www.w3.org/2000/svg">
<rect width="300" height="300" fill="#D9D9D9"/>
<path d="M120.742 187.616H179.254C183.87 187.616 187.612 183.874 187.612 179.257V120.746C187.612 116.129 183.87 112.387 179.254 112.387H120.742C116.125 112.387 112.383 116.129 112.383 120.746V179.257C112.383 183.874 116.125 187.616 120.742 187.616ZM120.742 187.616L166.715 141.643L187.612 162.54M141.639 135.374C141.639 138.836 138.832 141.643 135.37 141.643C131.907 141.643 129.1 138.836 129.1 135.374C129.1 131.911 131.907 129.104 135.37 129.104C138.832 129.104 141.639 131.911 141.639 135.374Z" stroke="#1E1E1E" stroke-width="4" stroke-linecap="round" stroke-linejoin="round"/>
</svg>
