<svg width="68" height="91" viewBox="0 0 68 91" fill="none" xmlns="http://www.w3.org/2000/svg">
<path d="M59.7236 45.5C59.7236 38.319 63.2883 27.847 65.8208 21.316C68.8941 13.387 66.5311 1.216 61.6356 0.534C61.4735 0.512 61.3107 0.5 61.1457 0.5H6.05254C5.88828 0.5 5.72476 0.512 5.56269 0.534C0.667176 1.22 -1.6959 13.387 1.37749 21.316C3.9092 27.847 7.47462 38.316 7.47462 45.5C7.47462 52.684 3.9092 63.153 1.37749 69.684C-1.6959 77.613 0.667176 89.784 5.56269 90.466C5.72476 90.488 5.88755 90.5 6.05254 90.5H61.145C61.3092 90.5 61.4728 90.488 61.6348 90.466C66.5303 89.78 68.8934 77.613 65.82 69.684C63.2883 63.153 59.7229 52.684 59.7229 45.5" fill="#8D7249"/>
</svg>
