<svg xmlns="http://www.w3.org/2000/svg" width="93.485" height="93.485" viewBox="0 0 93.485 93.485"><g transform="translate(959 4760)"><g transform="translate(-959 -4760)" fill="#fff" stroke="#8d7249" stroke-width="1"><ellipse cx="46.742" cy="46.743" rx="46.742" ry="46.743" stroke="none"/><ellipse cx="46.742" cy="46.743" rx="46.242" ry="46.243" fill="none"/></g><g transform="translate(-43.371 -1.94)"><path d="M5.552,23.484a.732.732,0,0,1-.72-.858L6.1,15.221.722,9.976a.732.732,0,0,1,.4-1.248L8.563,7.646,11.888.908a.732.732,0,0,1,1.312,0l3.326,6.738,7.436,1.082a.732.732,0,0,1,.406,1.247l-5.381,5.245,1.27,7.407a.731.731,0,0,1-.721.855.741.741,0,0,1-.341-.084l-6.65-3.5L5.893,23.4A.736.736,0,0,1,5.552,23.484Zm6.993-5.139a.738.738,0,0,1,.341.082l5.679,2.985L17.48,15.089a.733.733,0,0,1,.209-.647l4.594-4.479-6.349-.921a.728.728,0,0,1-.55-.4L12.544,2.886,9.7,8.64a.728.728,0,0,1-.551.4l-6.348.922L7.4,14.441a.731.731,0,0,1,.209.648L6.526,21.411,12.2,18.427A.733.733,0,0,1,12.545,18.344Z" transform="translate(-881.462 -4723.482)"/><path d="M45.494,60H45.33a6.332,6.332,0,0,1-6.113-4.7l-.607-2.269-.235.053a23.422,23.422,0,0,1-10.325,0l-.235-.053L27.207,55.3A6.332,6.332,0,0,1,21.094,60H20.93L18.4,59.942a.732.732,0,0,1-.689-.92l.793-2.961a6.308,6.308,0,0,1,4.2-4.4l.589-.186-.553-.275a23.789,23.789,0,0,1-3.924-2.461l-.19-.148L17.105,50.4a6.325,6.325,0,0,1-7.674,1.607L7.158,50.883a.732.732,0,0,1-.236-1.127l1.972-2.349a6.309,6.309,0,0,1,4.85-2.266,6.41,6.41,0,0,1,.821.053l.616.081-.388-.485a23.742,23.742,0,0,1-2.527-3.881l-.111-.212-2.134.994A6.325,6.325,0,0,1,2.39,39.9L.8,37.923A.731.731,0,0,1,1.067,36.8l2.779-1.3a6.329,6.329,0,0,1,6.061.378l.521.329-.145-.6a23.564,23.564,0,0,1-.642-4.576l-.01-.239H7.27a6.307,6.307,0,0,1-6.15-4.846l-.6-2.465a.732.732,0,0,1,.711-.9H4.31a6.3,6.3,0,0,1,5.322,2.909l.334.52.122-.607a23.508,23.508,0,0,1,1.349-4.422l.092-.221L9.4,19.773a6.306,6.306,0,0,1-3.539-6.994l.5-2.488A.728.728,0,0,1,7.081,9.7a.738.738,0,0,1,.31.068l2.778,1.3a6.3,6.3,0,0,1,3.607,4.891l.083.611.366-.5a23.69,23.69,0,0,1,3.092-3.43l.177-.162-1.511-1.8a6.305,6.305,0,0,1-.254-7.836L17.233.8A.73.73,0,0,1,17.8.5h.024a.732.732,0,0,1,.561.261l1.971,2.35a6.305,6.305,0,0,1,.25,7.835l-1.5,2.042a.715.715,0,0,1-.119.126,22.13,22.13,0,1,0,28.45,0,.7.7,0,0,1-.118-.125l-1.5-2.043a6.306,6.306,0,0,1,.253-7.833L48.036.764A.727.727,0,0,1,48.6.5h.024a.728.728,0,0,1,.566.3l1.5,2.045a6.306,6.306,0,0,1-.251,7.835l-1.513,1.8.177.162a23.734,23.734,0,0,1,3.1,3.433l.366.5.083-.611a6.3,6.3,0,0,1,3.607-4.891l2.776-1.294a.725.725,0,0,1,.31-.068.731.731,0,0,1,.717.588l.5,2.488a6.305,6.305,0,0,1-3.538,6.995l-2.125.992.093.221a23.53,23.53,0,0,1,1.348,4.422l.122.606.335-.52a6.3,6.3,0,0,1,5.322-2.909h3.078a.732.732,0,0,1,.711.9l-.6,2.466A6.306,6.306,0,0,1,59.153,30.8l-2.362,0-.01.239a23.561,23.561,0,0,1-.64,4.576l-.145.6.521-.328a6.329,6.329,0,0,1,6.061-.378l2.778,1.3a.73.73,0,0,1,.263,1.12l-1.586,1.982A6.324,6.324,0,0,1,56.4,41.691L54.268,40.7l-.111.212a23.731,23.731,0,0,1-2.524,3.882l-.388.484.616-.08a6.4,6.4,0,0,1,.82-.053,6.311,6.311,0,0,1,4.851,2.266l1.97,2.348a.733.733,0,0,1-.236,1.127l-2.274,1.126A6.326,6.326,0,0,1,49.319,50.4L47.8,48.594l-.19.148A23.69,23.69,0,0,1,43.687,51.2l-.554.275.59.187a6.3,6.3,0,0,1,4.2,4.4l.793,2.96a.733.733,0,0,1-.689.921ZM24.611,52.824a4.861,4.861,0,0,0-4.7,3.616L19.363,58.5l1.6.037.138,0a4.851,4.851,0,0,0,4.69-3.616l.555-2.063-1.607-.037Zm17.184,0-.114,0-1.609.036.553,2.062a4.873,4.873,0,0,0,4.7,3.617h.122l1.611-.037-.553-2.063A4.887,4.887,0,0,0,41.8,52.823ZM52.67,46.6a4.9,4.9,0,0,0-2.166.509l-1.439.713,1.373,1.635a4.871,4.871,0,0,0,5.9,1.237l1.439-.713-1.372-1.634A4.857,4.857,0,0,0,52.67,46.6Zm-38.916,0a4.856,4.856,0,0,0-3.737,1.746L8.643,49.985l1.44.713a4.869,4.869,0,0,0,5.9-1.237l1.375-1.635-1.44-.713A4.894,4.894,0,0,0,13.754,46.6ZM59.9,36.374a4.846,4.846,0,0,0-3.811,1.836l-1,1.254,1.935.9a4.868,4.868,0,0,0,5.872-1.373l1-1.256-1.933-.9A4.84,4.84,0,0,0,59.9,36.374Zm-53.373,0a4.824,4.824,0,0,0-2.063.46l-1.934.9,1,1.258A4.868,4.868,0,0,0,9.4,40.362l1.934-.9-1-1.256A4.847,4.847,0,0,0,6.526,36.372ZM2.164,24.052l.379,1.561a4.853,4.853,0,0,0,4.731,3.726H9.418l-.379-1.561a4.853,4.853,0,0,0-4.731-3.726Zm59.952,0a4.851,4.851,0,0,0-4.73,3.726l-.38,1.561h2.144a4.853,4.853,0,0,0,4.731-3.726l.38-1.561ZM58.807,11.493l-1.934.9a4.851,4.851,0,0,0-2.721,5.381l.316,1.575,1.935-.9a4.855,4.855,0,0,0,2.721-5.382Zm-51.191,0L7.3,13.066l-.005.026a4.858,4.858,0,0,0,2.726,5.355l1.935.9.315-1.574a4.85,4.85,0,0,0-2.72-5.382ZM17.865,2.415h0l-.951,1.3a4.847,4.847,0,0,0,.193,6.026l1.372,1.636.952-1.294a4.849,4.849,0,0,0-.194-6.026L17.865,2.415Zm30.694,0L47.187,4.051a4.848,4.848,0,0,0-.194,6.025l.951,1.294,1.372-1.635a4.848,4.848,0,0,0,.194-6.026Z" transform="translate(-902.129 -4741.56)"/></g></g></svg>