<svg width="67" height="61" viewBox="0 0 67 61" fill="none" xmlns="http://www.w3.org/2000/svg">
<path d="M20.9623 27.2266C20.9056 27.4009 20.8987 27.5875 20.9426 27.7655C20.9864 27.9435 21.0791 28.1056 21.2103 28.2336L26.4973 33.3826L25.2493 40.6586C25.2179 40.8392 25.2377 41.0251 25.3065 41.195C25.3753 41.365 25.4904 41.5122 25.6387 41.6201C25.7869 41.728 25.9625 41.7921 26.1453 41.8053C26.3282 41.8185 26.5111 41.7801 26.6733 41.6946L33.2073 38.2586L39.7413 41.6946C39.9034 41.78 40.0862 41.8183 40.269 41.8052C40.4518 41.7921 40.6272 41.728 40.7754 41.6203C40.9237 41.5125 41.0387 41.3654 41.1077 41.1956C41.1766 41.0259 41.1965 40.8402 41.1653 40.6596L39.9183 33.3826L45.2053 28.2296C45.3362 28.1017 45.4288 27.9397 45.4726 27.762C45.5163 27.5842 45.5095 27.3978 45.453 27.2237C45.3964 27.0497 45.2923 26.8949 45.1524 26.7768C45.0125 26.6587 44.8424 26.5821 44.6613 26.5556L37.3563 25.4966L34.0883 18.8766C34.0075 18.712 33.8821 18.5734 33.7265 18.4765C33.5709 18.3795 33.3912 18.3281 33.2078 18.3281C33.0245 18.3281 32.8448 18.3795 32.6892 18.4765C32.5335 18.5734 32.4082 18.712 32.3273 18.8766L29.0593 25.4966L21.7543 26.5586C21.5732 26.585 21.403 26.6616 21.2631 26.7796C21.1231 26.8977 21.019 27.0525 20.9623 27.2266ZM29.8533 27.3656C30.0108 27.3429 30.1603 27.2823 30.2891 27.1889C30.4178 27.0955 30.5219 26.9722 30.5923 26.8296L33.2073 21.5296L35.8263 26.8306C35.8968 26.9732 36.0009 27.0965 36.1296 27.1899C36.2584 27.2833 36.4079 27.3439 36.5653 27.3666L42.4123 28.2146L38.1813 32.3396C38.0676 32.4508 37.9826 32.5881 37.9337 32.7394C37.8847 32.8908 37.8733 33.0518 37.9003 33.2086L38.9003 39.0316L33.6663 36.2826C33.5254 36.2085 33.3686 36.1698 33.2093 36.1698C33.0501 36.1698 32.8933 36.2085 32.7523 36.2826L27.5263 39.0326L28.5263 33.2096C28.5534 33.0528 28.542 32.8918 28.493 32.7404C28.4441 32.5891 28.3591 32.4518 28.2453 32.3406L24.0123 28.2156L29.8533 27.3656Z" fill="black" stroke="white" stroke-width="0.5"/>
<path d="M59.1398 31.0488C60.6181 31.0516 62.0543 30.5562 63.2164 29.6424C64.3785 28.7287 65.1988 27.45 65.5448 26.0128L66.1448 23.5478C66.1799 23.4033 66.1818 23.2527 66.1502 23.1074C66.1187 22.9621 66.0546 22.8259 65.9627 22.709C65.8709 22.5921 65.7536 22.4976 65.6199 22.4326C65.4862 22.3676 65.3395 22.3338 65.1908 22.3338H62.1248C61.0211 22.3316 59.9346 22.6075 58.9655 23.1358C57.9964 23.6641 57.176 24.4279 56.5798 25.3568C56.2734 23.8259 55.8168 22.329 55.2168 20.8878L57.1248 19.9978C58.4659 19.3749 59.5579 18.3183 60.2247 16.9986C60.8915 15.6788 61.0941 14.1728 60.7998 12.7238L60.2998 10.2358C60.2711 10.0897 60.2095 9.95211 60.1198 9.83337C60.03 9.71464 59.9144 9.61788 59.7818 9.55043C59.6491 9.48298 59.5028 9.44661 59.354 9.44407C59.2052 9.44153 59.0577 9.47288 58.9228 9.53576L56.1458 10.8298C55.1436 11.2956 54.275 12.0065 53.6203 12.8969C52.9655 13.7872 52.5458 14.8283 52.3998 15.9238C51.4733 14.668 50.426 13.5061 49.2728 12.4548L50.6308 10.8398C51.5834 9.70922 52.1273 8.29066 52.1746 6.81305C52.222 5.33543 51.7701 3.88497 50.8918 2.69575L49.3918 0.651755C49.3037 0.532053 49.1895 0.433922 49.0579 0.364761C48.9263 0.2956 48.7808 0.257213 48.6322 0.252495C48.4836 0.247777 48.3359 0.27685 48.2002 0.337523C48.0645 0.398197 47.9444 0.488886 47.8488 0.602754L45.8778 2.95175C44.9254 4.08191 44.3814 5.49995 44.3337 6.97713C44.286 8.45431 44.7373 9.90449 45.6148 11.0938L47.1148 13.1368C47.1612 13.1987 47.2145 13.255 47.2738 13.3048C50.7139 16.191 53.1826 20.0658 54.345 24.4033C55.5074 28.7407 55.3071 33.3308 53.7714 37.5505C52.2357 41.7702 49.4388 45.4153 45.7604 47.991C42.0821 50.5667 37.7003 51.9483 33.2098 51.9483C28.7193 51.9483 24.3375 50.5667 20.6592 47.991C16.9808 45.4153 14.1839 41.7702 12.6482 37.5505C11.1125 33.3308 10.9122 28.7407 12.0746 24.4033C13.237 20.0658 15.7057 16.191 19.1458 13.3048C19.2051 13.255 19.2584 13.1987 19.3048 13.1368L20.8048 11.0938C21.6832 9.90465 22.1353 8.45425 22.0881 6.97663C22.041 5.49902 21.4973 4.08041 20.5448 2.94975L18.5738 0.600755C18.4782 0.486886 18.3581 0.396197 18.2224 0.335523C18.0867 0.27485 17.939 0.245777 17.7904 0.250495C17.6418 0.255213 17.4963 0.2936 17.3647 0.362761C17.2331 0.431922 17.1189 0.530053 17.0308 0.649754L15.5308 2.69375C14.6524 3.88348 14.2007 5.33453 14.2486 6.81259C14.2965 8.29064 14.8413 9.7094 15.7948 10.8398L17.1518 12.4568C15.9985 13.5076 14.9508 14.6688 14.0238 15.9238C13.876 14.8297 13.455 13.7906 12.7998 12.902C12.1446 12.0135 11.2763 11.3043 10.2748 10.8398L7.4998 9.54276C7.36489 9.47988 7.21744 9.44853 7.06863 9.45107C6.91981 9.45361 6.77352 9.48998 6.64084 9.55743C6.50816 9.62488 6.39256 9.72164 6.30281 9.84037C6.21306 9.95911 6.1515 10.0967 6.1228 10.2428L5.6188 12.7238C5.32536 14.1726 5.52871 15.678 6.19604 16.9971C6.86337 18.3162 7.95573 19.3718 9.2968 19.9938L11.2048 20.8838C10.6048 22.325 10.1482 23.8219 9.8418 25.3528C9.24548 24.425 8.42531 23.6622 7.45682 23.1346C6.48834 22.607 5.40266 22.3316 4.2998 22.3338H1.2318C1.08312 22.3338 0.936389 22.3676 0.802672 22.4326C0.668956 22.4976 0.551745 22.5921 0.459879 22.709C0.368014 22.8259 0.303893 22.9621 0.272352 23.1074C0.240811 23.2527 0.242673 23.4033 0.277799 23.5478L0.877799 26.0128C1.22382 27.45 2.04411 28.7287 3.20623 29.6424C4.36835 30.5562 5.80448 31.0516 7.2828 31.0488H9.3918C9.45576 32.608 9.67314 34.1571 10.0408 35.6738C9.10785 35.0853 8.04191 34.7409 6.94102 34.6722C5.84013 34.6035 4.73965 34.8128 3.7408 35.2808L0.962799 36.5808C0.828364 36.6434 0.709895 36.7358 0.616302 36.8509C0.522709 36.9659 0.456431 37.1007 0.422452 37.2451C0.388473 37.3895 0.387679 37.5397 0.420129 37.6845C0.452579 37.8292 0.517429 37.9647 0.609799 38.0808L2.1948 40.0618C3.11584 41.218 4.39965 42.0302 5.839 42.3671C7.27835 42.704 8.78925 42.5461 10.1278 41.9188L12.0448 41.0258C12.7663 42.4125 13.6221 43.7251 14.5998 44.9448C13.5031 44.8013 12.3878 44.9369 11.3574 45.339C10.327 45.741 9.41463 46.3965 8.7048 47.2448L6.7298 49.5938C6.63426 49.7076 6.56581 49.8417 6.52961 49.9858C6.49342 50.13 6.49042 50.2805 6.52085 50.426C6.55127 50.5715 6.61433 50.7082 6.70526 50.8257C6.7962 50.9433 6.91263 51.0387 7.0458 51.1048L9.3198 52.2308C10.6441 52.8901 12.152 53.0839 13.5999 52.7807C15.0478 52.4775 16.3513 51.695 17.2998 50.5598L18.6618 48.9358C19.8983 49.8926 21.2257 50.7259 22.6248 51.4238C21.5722 51.7582 20.6205 52.352 19.8576 53.1506C19.0946 53.9492 18.5448 54.9269 18.2588 55.9938L17.4658 58.9548C17.4277 59.0982 17.4225 59.2484 17.4508 59.3941C17.4791 59.5399 17.5401 59.6773 17.6291 59.796C17.7181 59.9148 17.8329 60.0119 17.9648 60.0799C18.0968 60.1479 18.2424 60.1851 18.3908 60.1888L20.9268 60.2478H21.0838C22.5351 60.2499 23.9463 59.7718 25.0975 58.888C26.2486 58.0042 27.075 56.7643 27.4478 55.3618L27.9938 53.3248C31.4288 54.1008 34.9938 54.1008 38.4288 53.3248L38.9738 55.3618C39.3468 56.7644 40.1734 58.0043 41.3247 58.8881C42.476 59.7719 43.8874 60.2499 45.3388 60.2478H45.4998L48.0368 60.1888C48.1852 60.1851 48.3308 60.1479 48.4628 60.0799C48.5947 60.0119 48.7095 59.9148 48.7985 59.796C48.8875 59.6773 48.9485 59.5399 48.9768 59.3941C49.0051 59.2484 48.9999 59.0982 48.9618 58.9548L48.1688 55.9938C47.883 54.9264 47.3329 53.9482 46.5693 53.1494C45.8058 52.3507 44.8533 51.7572 43.7998 51.4238C45.2005 50.7265 46.5292 49.8931 47.7668 48.9358L49.1288 50.5598C50.0768 51.693 51.3786 52.4741 52.8246 52.7772C54.2706 53.0803 55.7765 52.8878 57.0998 52.2308L59.3738 51.1048C59.507 51.0387 59.6234 50.9433 59.7143 50.8257C59.8053 50.7082 59.8683 50.5715 59.8988 50.426C59.9292 50.2805 59.9262 50.13 59.89 49.9858C59.8538 49.8417 59.7853 49.7076 59.6898 49.5938L57.7198 47.2458C57.0099 46.3976 56.0975 45.7422 55.0671 45.3402C54.0367 44.9382 52.9215 44.8025 51.8248 44.9458C52.8027 43.7251 53.6585 42.4115 54.3798 41.0238L56.2958 41.9168C57.6344 42.5437 59.1452 42.7015 60.5845 42.3646C62.0237 42.0276 63.3075 41.2157 64.2288 40.0598L65.8138 38.0788C65.9062 37.9628 65.9711 37.8273 66.0036 37.6826C66.0361 37.538 66.0354 37.3878 66.0016 37.2434C65.9677 37.099 65.9015 36.9642 65.808 36.8491C65.7145 36.734 65.5962 36.6415 65.4618 36.5788L62.6838 35.2788C61.6849 34.8108 60.5845 34.6015 59.4836 34.6702C58.3827 34.7389 57.3167 35.0833 56.3838 35.6718C56.7506 34.1554 56.9674 32.6066 57.0308 31.0478L59.1398 31.0488ZM56.9778 12.6238L58.6248 11.8558L58.8788 13.1188C59.0848 14.1357 58.9423 15.1923 58.4745 16.1184C58.0066 17.0445 57.2406 17.7862 56.2998 18.2238L54.6528 18.9918L54.3998 17.7238C54.1946 16.7077 54.3373 15.6521 54.805 14.727C55.2726 13.8019 56.038 13.061 56.9778 12.6238ZM47.3778 4.21475L48.5458 2.81975L49.3088 3.85775C49.9258 4.69254 50.2434 5.71099 50.2102 6.74853C50.177 7.78608 49.7949 8.78213 49.1258 9.57575L47.9578 10.9678L47.1998 9.92376C46.5835 9.08923 46.2664 8.07139 46.2996 7.0345C46.3328 5.99761 46.7144 5.00215 47.3828 4.20875L47.3778 4.21475ZM17.1148 3.86075L17.8778 2.82275L19.0458 4.21575C19.7148 5.00946 20.0967 6.00549 20.1299 7.04299C20.1631 8.08049 19.8457 9.0989 19.2288 9.93375L18.4648 10.9718L17.2998 9.57376C16.6306 8.78013 16.2486 7.78408 16.2154 6.74653C16.1822 5.70899 16.4998 4.69055 17.1168 3.85575L17.1148 3.86075ZM7.5448 13.1178L7.7988 11.8548L9.4458 12.6228C10.3862 13.0597 11.1521 13.8006 11.6202 14.726C12.0882 15.6513 12.2311 16.7073 12.0258 17.7238L11.7728 18.9868L10.1258 18.2188C9.18551 17.7818 8.41962 17.0412 7.95144 16.1161C7.48326 15.1909 7.34002 14.1352 7.5448 13.1188V13.1178ZM9.2998 40.1338C8.36014 40.5743 7.29953 40.6856 6.28889 40.4497C5.27825 40.2139 4.37644 39.6447 3.7288 38.8338L2.9288 37.8238L4.5748 37.0558C5.51443 36.6151 6.57509 36.5037 7.58577 36.7395C8.59646 36.9754 9.49827 37.5447 10.1458 38.3558L10.9458 39.3628L9.2998 40.1338ZM25.5528 54.8578C25.289 55.8625 24.6928 56.7484 23.8614 57.3712C23.03 57.994 22.0122 58.3171 20.9738 58.2878L19.6858 58.2578L20.1558 56.5028C20.4209 55.4988 21.0174 54.6139 21.8486 53.9914C22.6798 53.369 23.6968 53.0456 24.7348 53.0738L26.0248 53.1028L25.5528 54.8578ZM7.2828 29.0858C6.24449 29.0884 5.23561 28.7409 4.4191 28.0995C3.60259 27.4581 3.02613 26.5602 2.7828 25.5508L2.4828 24.2988H4.2998C5.33811 24.2962 6.34699 24.6436 7.1635 25.285C7.98 25.9264 8.55647 26.8244 8.7998 27.8338L9.0998 29.0858H7.2828ZM15.7928 49.2988C15.1269 50.0951 14.2123 50.6439 13.1963 50.8567C12.1803 51.0695 11.1223 50.9339 10.1928 50.4718L9.0378 49.8998L10.2078 48.5088C10.8734 47.7121 11.7881 47.1631 12.8042 46.9503C13.8203 46.7374 14.8784 46.8732 15.8078 47.3358L16.9628 47.9078L15.7928 49.2988ZM46.2668 56.4988L46.7368 58.2538L45.4468 58.2838H45.3348C44.3157 58.2851 43.3248 57.9493 42.5164 57.3287C41.7081 56.7082 41.1277 55.8376 40.8658 54.8528L40.3958 53.0978L41.6858 53.0688C42.7234 53.0444 43.7392 53.3694 44.5699 53.9916C45.4007 54.6138 45.9983 55.4962 46.2668 56.4988ZM61.8548 37.0578L63.4998 37.8238L62.6998 38.8318C62.0522 39.6427 61.1504 40.2119 60.1397 40.4477C59.1291 40.6836 58.0685 40.5723 57.1288 40.1318L55.4818 39.3638L56.2818 38.3588C56.9285 37.5467 57.83 36.9762 58.8407 36.7392C59.8514 36.5023 60.9125 36.6127 61.8528 37.0528L61.8548 37.0578ZM57.6278 27.8328C57.8711 26.8234 58.4476 25.9254 59.2641 25.284C60.0806 24.6426 61.0895 24.2952 62.1278 24.2978H63.9448L63.6448 25.5498C63.4015 26.5592 62.825 27.4571 62.0085 28.0985C61.192 28.7399 60.1831 29.0874 59.1448 29.0848H57.3238L57.6278 27.8328ZM56.2138 48.5078L57.3818 49.8988L56.2268 50.4708C55.2973 50.9329 54.2393 51.0685 53.2233 50.8557C52.2073 50.6429 51.2927 50.0941 50.6268 49.2978L49.4588 47.9068L50.6128 47.3348C51.5422 46.8722 52.6003 46.7364 53.6164 46.9493C54.6325 47.1621 55.5482 47.7111 56.2138 48.5078Z" fill="black" stroke="white" stroke-width="0.5"/>
</svg>
