<svg width="32" height="31" viewBox="0 0 32 31" fill="none" xmlns="http://www.w3.org/2000/svg">
<path d="M27.1211 13.477C27.7388 12.817 28.2024 11.874 28.4446 10.785C28.6869 9.69594 28.6951 8.5175 28.4682 7.4208C28.2413 6.32411 27.7909 5.36626 27.1826 4.68635C26.5744 4.00644 25.8397 3.63987 25.0855 3.63987C24.3313 3.63987 23.5967 4.00644 22.9884 4.68635C22.3801 5.36626 21.9297 6.32411 21.7028 7.4208C21.4759 8.5175 21.4841 9.69594 21.7264 10.785C21.9686 11.874 22.4322 12.817 23.0499 13.477C22.2763 13.8828 21.5635 14.52 20.9535 15.3513C20.1137 14.2588 19.1339 13.4449 18.0765 12.9611C18.9163 12.1873 19.5667 11.0155 19.9285 9.6249C20.2903 8.2343 20.3435 6.70135 20.0801 5.26028C19.8166 3.81921 19.251 2.54927 18.4695 1.64453C17.6881 0.739791 16.7339 0.25 15.7527 0.25C14.7715 0.25 13.8173 0.739791 13.0359 1.64453C12.2545 2.54927 11.6888 3.81921 11.4254 5.26028C11.1619 6.70135 11.2151 8.2343 11.5769 9.6249C11.9387 11.0155 12.5892 12.1873 13.4289 12.9611C12.3845 13.445 11.4158 14.2488 10.5823 15.3234C9.9768 14.5113 9.2731 13.8872 8.51072 13.4862C9.1284 12.8263 9.59202 11.8833 9.83427 10.7943C10.0765 9.70521 10.0848 8.52677 9.85783 7.43008C9.63089 6.33338 9.18058 5.37554 8.57228 4.69563C7.96399 4.01572 7.22938 3.64914 6.47514 3.64914C5.72089 3.64914 4.98629 4.01572 4.37799 4.69563C3.76969 5.37554 3.31938 6.33338 3.09244 7.43008C2.8655 8.52677 2.87376 9.70521 3.116 10.7943C3.35825 11.8833 3.82187 12.8263 4.43955 13.4862C3.21635 14.1319 2.15552 15.3428 1.40465 16.9504C0.653774 18.558 0.250177 20.4825 0.25 22.4561L0.25 23.0746C0.250438 23.0845 0.253191 23.0937 0.257751 23.1006C0.262311 23.1076 0.268368 23.1118 0.274801 23.1125H7.79288C7.74847 23.6377 7.7258 24.1668 7.72503 24.6964V25.3335C7.72485 25.9884 7.80931 26.637 7.97361 27.2421C8.1379 27.8472 8.3788 28.397 8.68253 28.8601C8.98626 29.3232 9.34687 29.6905 9.74375 29.941C10.1406 30.1915 10.566 30.3203 10.9955 30.32H20.5244C20.9539 30.3203 21.3793 30.1915 21.7762 29.941C22.1731 29.6905 22.5337 29.3232 22.8374 28.8601C23.1411 28.397 23.382 27.8472 23.5463 27.2421C23.7106 26.637 23.7951 25.9884 23.7949 25.3335V24.6964C23.7941 24.1668 23.7715 23.6377 23.727 23.1125H31.2952C31.3016 23.1118 31.3077 23.1076 31.3122 23.1006C31.3168 23.0937 31.3196 23.0845 31.32 23.0746V22.4561C31.3169 20.4804 30.9111 18.5551 30.1589 16.9465C29.4066 15.3378 28.3451 14.1254 27.1211 13.477ZM22.5244 9.04343C22.5245 8.27364 22.6737 7.52103 22.9533 6.88001C23.2328 6.239 23.6303 5.73813 24.0958 5.44024C24.5614 5.14234 25.0743 5.06069 25.5701 5.20553C26.066 5.35036 26.5228 5.71523 26.8832 6.25436C27.2436 6.7935 27.4915 7.48289 27.5959 8.23605C27.7003 8.98921 27.6565 9.77259 27.47 10.4879C27.2834 11.2033 26.9625 11.8187 26.5475 12.2571C26.1325 12.6954 25.6418 12.9371 25.137 12.9519H25.0387C24.3671 12.9337 23.7271 12.5137 23.2567 11.7826C22.7863 11.0514 22.5233 10.0676 22.5244 9.04343ZM12.2295 7.0935C12.2296 6.04839 12.4304 5.02619 12.8071 4.15307C13.1838 3.27996 13.7199 2.59415 14.3494 2.1803C14.9788 1.76645 15.6739 1.64268 16.3489 1.82427C17.024 2.00586 17.6494 2.48486 18.1479 3.20214C18.6464 3.91942 18.9963 4.84357 19.1543 5.86054C19.3123 6.8775 19.2715 7.94274 19.037 8.92477C18.8024 9.9068 18.3844 10.7626 17.8346 11.3866C17.2847 12.0106 16.627 12.3754 15.9427 12.436H15.537C14.6431 12.3553 13.8031 11.7575 13.1884 10.7647C12.5738 9.77185 12.2308 8.45878 12.2295 7.0935ZM3.89533 9.04343C3.89542 8.27364 4.04461 7.52103 4.32417 6.88001C4.60373 6.239 5.00121 5.73813 5.46676 5.44024C5.93231 5.14234 6.44519 5.06069 6.94106 5.20553C7.43693 5.35036 7.89371 5.71523 8.25409 6.25436C8.61447 6.7935 8.86241 7.48289 8.9668 8.23605C9.07119 8.98921 9.02738 9.77259 8.84087 10.4879C8.65437 11.2033 8.33346 11.8187 7.91842 12.2571C7.50338 12.6954 7.01269 12.9371 6.50789 12.9519H6.40962C5.73835 12.932 5.09896 12.5116 4.62882 11.7807C4.15869 11.0499 3.89533 10.0671 3.89533 9.04343ZM7.96649 21.6006H1.2458C1.38397 19.6488 1.98754 17.8423 2.94184 16.5243C3.89615 15.2064 5.13471 14.4687 6.42226 14.4516H6.49619C7.72547 14.4618 8.91259 15.136 9.84671 16.3544C8.94591 17.8415 8.29961 19.6445 7.96509 21.6035L7.96649 21.6006ZM22.8005 25.3314C22.7995 26.2557 22.5583 27.1417 22.1296 27.7952C21.7009 28.4488 21.1198 28.8166 20.5136 28.8181H10.9838C10.3776 28.8166 9.79652 28.4488 9.36786 27.7952C8.93921 27.1417 8.69795 26.2557 8.69696 25.3314V24.6942C8.69887 21.8985 9.41392 19.2135 10.6909 17.2072C11.9678 15.2009 13.7066 14.0305 15.5393 13.9436C15.6072 13.9529 15.6797 13.9529 15.7485 13.9529C15.8173 13.9529 15.8889 13.9529 15.9577 13.9436C17.7904 14.0305 19.5292 15.2009 20.8061 17.2072C22.0831 19.2135 22.7981 21.8985 22.8 24.6942L22.8005 25.3314ZM23.5319 21.6006C23.1997 19.6583 22.56 17.8699 21.669 16.3922C22.6091 15.1523 23.8084 14.4642 25.0513 14.4516H25.1253C26.4127 14.4697 27.6509 15.2081 28.6048 16.5266C29.5587 17.845 30.1617 19.6517 30.2994 21.6035L23.5319 21.6006Z" fill="black" stroke="white" stroke-width="0.5"/>
</svg>
