<svg width="46" height="43" viewBox="0 0 46 43" fill="none" xmlns="http://www.w3.org/2000/svg">
<path d="M39.1772 18.7888C40.072 17.8638 40.7436 16.5421 41.0946 15.0157C41.4455 13.4893 41.4574 11.8376 41.1287 10.3005C40.7999 8.7634 40.1476 7.4209 39.2664 6.46794C38.3851 5.51499 37.321 5.0012 36.2283 5.0012C35.1357 5.0012 34.0715 5.51499 33.1902 6.46794C32.309 7.4209 31.6567 8.7634 31.3279 10.3005C30.9992 11.8376 31.0111 13.4893 31.362 15.0157C31.713 16.5421 32.3846 17.8638 33.2794 18.7888C32.1587 19.3575 31.1261 20.2506 30.2424 21.4158C29.0258 19.8846 27.6065 18.7438 26.0747 18.0658C27.2911 16.9811 28.2334 15.3388 28.7575 13.3897C29.2816 11.4407 29.3588 9.29213 28.9771 7.27235C28.5954 5.25256 27.776 3.47263 26.644 2.20456C25.512 0.936485 24.1296 0.25 22.7082 0.25C21.2868 0.25 19.9045 0.936485 18.7725 2.20456C17.6404 3.47263 16.821 5.25256 16.4393 7.27235C16.0577 9.29213 16.1348 11.4407 16.6589 13.3897C17.183 15.3388 18.1253 16.9811 19.3418 18.0658C17.8288 18.7439 16.4256 19.8706 15.2181 21.3768C14.3409 20.2385 13.3214 19.3638 12.217 18.8018C13.1118 17.8768 13.7835 16.5551 14.1344 15.0287C14.4853 13.5023 14.4973 11.8506 14.1685 10.3135C13.8398 8.7764 13.1874 7.4339 12.3062 6.48094C11.425 5.52799 10.3608 5.0142 9.26813 5.0142C8.17549 5.0142 7.11129 5.52799 6.23007 6.48094C5.34885 7.4339 4.6965 8.7764 4.36774 10.3135C4.03899 11.8506 4.05094 13.5023 4.40188 15.0287C4.75281 16.5551 5.42445 17.8768 6.31926 18.8018C4.54724 19.7067 3.01047 21.4038 1.9227 23.6571C0.834933 25.9103 0.250257 28.6076 0.25 31.3738L0.25 32.2408C0.250634 32.2545 0.254623 32.2675 0.261228 32.2772C0.267834 32.287 0.276609 32.2928 0.285929 32.2938H11.1771C11.1128 33.03 11.0799 33.7715 11.0788 34.5138V35.4068C11.0785 36.3247 11.2009 37.2337 11.4389 38.0818C11.6769 38.9299 12.0259 39.7006 12.4659 40.3496C12.9059 40.9987 13.4283 41.5135 14.0033 41.8646C14.5782 42.2157 15.1944 42.3962 15.8167 42.3958H29.6208C30.2431 42.3962 30.8593 42.2157 31.4342 41.8646C32.0092 41.5135 32.5316 40.9987 32.9716 40.3496C33.4116 39.7006 33.7605 38.9299 33.9985 38.0818C34.2366 37.2337 34.3589 36.3247 34.3586 35.4068V34.5138C34.3575 33.7715 34.3247 33.03 34.2604 32.2938H45.2241C45.2334 32.2928 45.2422 32.287 45.2488 32.2772C45.2554 32.2675 45.2594 32.2545 45.26 32.2408V31.3738C45.2555 28.6047 44.6677 25.9062 43.5779 23.6516C42.4882 21.3969 40.9503 19.6976 39.1772 18.7888ZM32.5181 12.5748C32.5183 11.4958 32.7344 10.441 33.1394 9.54255C33.5444 8.64411 34.1202 7.9421 34.7946 7.52457C35.4691 7.10705 36.212 6.99261 36.9304 7.19561C37.6487 7.39861 38.3105 7.91001 38.8325 8.66565C39.3546 9.42129 39.7138 10.3875 39.865 11.4432C40.0162 12.4988 39.9528 13.5968 39.6826 14.5994C39.4124 15.602 38.9475 16.4646 38.3463 17.079C37.745 17.6933 37.0341 18.0321 36.3029 18.0528H36.1605C35.1876 18.0273 34.2604 17.4387 33.579 16.4139C32.8976 15.3891 32.5166 14.0102 32.5181 12.5748ZM17.6043 9.84177C17.6044 8.37696 17.8952 6.94426 18.441 5.7205C18.9867 4.49675 19.7634 3.53553 20.6753 2.95548C21.5871 2.37544 22.5941 2.20196 23.572 2.45647C24.5499 2.71099 25.4558 3.38235 26.178 4.38768C26.9002 5.39301 27.407 6.6883 27.6359 8.11366C27.8648 9.53902 27.8057 11.0321 27.466 12.4085C27.1262 13.7849 26.5207 14.9844 25.7241 15.8589C24.9275 16.7335 23.9748 17.2448 22.9835 17.3298H22.3957C21.1008 17.2167 19.8839 16.3788 18.9935 14.9873C18.103 13.5957 17.6062 11.7553 17.6043 9.84177ZM5.53086 12.5748C5.53099 11.4958 5.74711 10.441 6.1521 9.54255C6.55709 8.64411 7.13291 7.9421 7.80734 7.52457C8.48176 7.10705 9.22476 6.99261 9.9431 7.19561C10.6615 7.39861 11.3232 7.91001 11.8452 8.66565C12.3673 9.42129 12.7265 10.3875 12.8777 11.4432C13.0289 12.4988 12.9655 13.5968 12.6953 14.5994C12.4251 15.602 11.9602 16.4646 11.359 17.079C10.7577 17.6933 10.0469 18.0321 9.31559 18.0528H9.17323C8.20078 18.025 7.27451 17.4357 6.59344 16.4114C5.91237 15.3871 5.53085 14.0095 5.53086 12.5748ZM11.4286 30.1748H1.69258C1.89274 27.4391 2.76711 24.9071 4.14957 23.0599C5.53204 21.2127 7.3263 20.1788 9.19153 20.1548H9.29864C11.0795 20.1691 12.7992 21.1141 14.1524 22.8218C12.8475 24.9061 11.9112 27.4331 11.4266 30.1788L11.4286 30.1748ZM32.9181 35.4038C32.9167 36.6992 32.5672 37.941 31.9462 38.8571C31.3252 39.7731 30.4834 40.2887 29.6052 40.2908H15.7997C14.9215 40.2887 14.0797 39.7731 13.4587 38.8571C12.8377 37.941 12.4882 36.6992 12.4868 35.4038V34.5108C12.4896 30.5923 13.5254 26.8291 15.3753 24.017C17.2252 21.2049 19.7441 19.5645 22.3991 19.4428C22.4974 19.4558 22.6025 19.4558 22.7021 19.4558C22.8018 19.4558 22.9055 19.4558 23.0051 19.4428C25.6602 19.5645 28.179 21.2049 30.0289 24.017C31.8788 26.8291 32.9147 30.5923 32.9174 34.5108L32.9181 35.4038ZM33.9777 30.1748C33.4964 27.4525 32.5697 24.9459 31.2789 22.8748C32.6408 21.1369 34.3782 20.1725 36.1788 20.1548H36.2859C38.151 20.1802 39.9448 21.2151 41.3266 23.0631C42.7084 24.911 43.582 27.4432 43.7815 30.1788L33.9777 30.1748Z" fill="black" stroke="white" stroke-width="0.5"/>
</svg>
