<svg width="19" height="14" viewBox="0 0 19 14" fill="none" xmlns="http://www.w3.org/2000/svg">
<path d="M15.8174 5.96835C16.1753 5.68303 16.4439 5.27536 16.5842 4.80454C16.7245 4.33371 16.7293 3.82424 16.5978 3.35011C16.4664 2.87599 16.2055 2.46189 15.8531 2.16794C15.5007 1.874 15.0751 1.71552 14.6381 1.71552C14.2012 1.71552 13.7756 1.874 13.4232 2.16794C13.0708 2.46189 12.8099 2.87599 12.6784 3.35011C12.5469 3.82424 12.5517 4.33371 12.6921 4.80454C12.8324 5.27536 13.101 5.68303 13.4588 5.96835C13.0106 6.14378 12.5977 6.41926 12.2443 6.77865C11.7578 6.30636 11.1902 5.95446 10.5776 5.74533C11.0641 5.41077 11.4409 4.90419 11.6505 4.303C11.8601 3.70181 11.8909 3.03908 11.7383 2.41607C11.5857 1.79306 11.258 1.24403 10.8052 0.85289C10.3525 0.461749 9.79973 0.25 9.23129 0.25C8.66285 0.25 8.11004 0.461749 7.65734 0.85289C7.20463 1.24403 6.87693 1.79306 6.7243 2.41607C6.57167 3.03908 6.60251 3.70181 6.81211 4.303C7.0217 4.90419 7.39853 5.41077 7.88501 5.74533C7.27994 5.95452 6.71878 6.30204 6.2359 6.76662C5.88509 6.41552 5.47741 6.14571 5.03574 5.97236C5.39358 5.68704 5.66218 5.27937 5.80252 4.80855C5.94286 4.33772 5.94765 3.82825 5.81617 3.35412C5.6847 2.88 5.42381 2.4659 5.07141 2.17195C4.719 1.87801 4.29341 1.71953 3.85645 1.71953C3.41949 1.71953 2.99391 1.87801 2.6415 2.17195C2.28909 2.4659 2.02821 2.88 1.89673 3.35412C1.76526 3.82825 1.77004 4.33772 1.91038 4.80855C2.05072 5.27937 2.31932 5.68704 2.67716 5.97236C1.96851 6.25149 1.35394 6.77497 0.918931 7.46998C0.483921 8.165 0.250103 8.99699 0.25 9.85023L0.25 10.1177C0.250254 10.1219 0.251849 10.1259 0.25449 10.1289C0.257132 10.1319 0.260641 10.1337 0.264368 10.134H4.61987C4.59414 10.3611 4.58101 10.5898 4.58056 10.8188V11.0942C4.58045 11.3774 4.62939 11.6577 4.72457 11.9193C4.81975 12.181 4.95931 12.4187 5.13527 12.6189C5.31124 12.8191 5.52015 12.9779 5.75008 13.0861C5.98001 13.1944 6.22644 13.2501 6.47528 13.25H11.9957C12.2446 13.2501 12.491 13.1944 12.7209 13.0861C12.9508 12.9779 13.1598 12.8191 13.3357 12.6189C13.5117 12.4187 13.6512 12.181 13.7464 11.9193C13.8416 11.6577 13.8905 11.3774 13.8904 11.0942V10.8188C13.89 10.5898 13.8769 10.3611 13.8511 10.134H18.2356C18.2394 10.1337 18.2429 10.1319 18.2455 10.1289C18.2482 10.1259 18.2497 10.1219 18.25 10.1177V9.85023C18.2482 8.99611 18.0131 8.16374 17.5773 7.46829C17.1415 6.77283 16.5265 6.24868 15.8174 5.96835ZM13.1544 4.05162C13.1544 3.71882 13.2409 3.39344 13.4028 3.11632C13.5648 2.83919 13.7951 2.62265 14.0648 2.49387C14.3345 2.36508 14.6316 2.32978 14.9189 2.3924C15.2062 2.45501 15.4708 2.61275 15.6796 2.84583C15.8884 3.07892 16.032 3.37696 16.0925 3.70257C16.153 4.02817 16.1276 4.36685 16.0195 4.67611C15.9115 4.98537 15.7256 5.25144 15.4851 5.44095C15.2447 5.63045 14.9604 5.73494 14.6679 5.74132H14.611C14.2219 5.73347 13.8511 5.55191 13.5786 5.23581C13.3061 4.9197 13.1538 4.49439 13.1544 4.05162ZM7.19018 3.20861C7.19021 2.75679 7.30653 2.31487 7.52477 1.9374C7.74302 1.55992 8.05364 1.26343 8.41828 1.08451C8.78293 0.905598 9.18565 0.852089 9.57672 0.930594C9.96778 1.0091 10.3301 1.21618 10.6189 1.52628C10.9077 1.83638 11.1104 2.23592 11.2019 2.67557C11.2935 3.11523 11.2698 3.57576 11.134 4.00032C10.9981 4.42487 10.7559 4.79487 10.4374 5.06463C10.1188 5.33439 9.7378 5.49211 9.34136 5.51831H9.10632C8.58845 5.48343 8.10181 5.22499 7.74572 4.79576C7.38963 4.36653 7.19093 3.79886 7.19018 3.20861ZM2.36187 4.05162C2.36193 3.71882 2.44836 3.39344 2.61032 3.11632C2.77228 2.83919 3.00255 2.62265 3.27226 2.49387C3.54197 2.36508 3.8391 2.32978 4.12638 2.3924C4.41366 2.45501 4.67828 2.61275 4.88706 2.84583C5.09585 3.07892 5.23949 3.37696 5.29996 3.70257C5.36044 4.02817 5.33506 4.36685 5.22701 4.67611C5.11896 4.98537 4.93305 5.25144 4.6926 5.44095C4.45215 5.63045 4.16787 5.73494 3.87543 5.74132H3.8185C3.4296 5.73276 3.05918 5.55097 2.78681 5.23503C2.51445 4.91908 2.36187 4.49417 2.36187 4.05162ZM4.72045 9.48039H0.826902C0.906951 8.63656 1.25662 7.85558 1.80948 7.28579C2.36235 6.71601 3.07989 6.39712 3.82582 6.38969H3.86865C4.58082 6.39413 5.26856 6.6856 5.80973 7.21234C5.28786 7.85525 4.91344 8.6347 4.71964 9.48163L4.72045 9.48039ZM13.3143 11.0933C13.3138 11.4929 13.174 11.8759 12.9257 12.1585C12.6773 12.441 12.3407 12.6001 11.9895 12.6007H6.46851C6.11731 12.6001 5.78065 12.441 5.53232 12.1585C5.28398 11.8759 5.14421 11.4929 5.14364 11.0933V10.8178C5.14474 9.60919 5.559 8.44841 6.29879 7.58101C7.03858 6.71362 8.04589 6.20764 9.10767 6.17007C9.14698 6.17408 9.189 6.17408 9.22885 6.17408C9.2687 6.17408 9.31018 6.17408 9.35004 6.17007C10.4118 6.20764 11.4191 6.71362 12.1589 7.58101C12.8987 8.44841 13.313 9.60919 13.3141 10.8178L13.3143 11.0933ZM13.7381 9.48039C13.5456 8.64069 13.175 7.86753 12.6588 7.22869C13.2034 6.69265 13.8982 6.39516 14.6183 6.38969H14.6612C15.407 6.39753 16.1244 6.71676 16.677 7.28676C17.2296 7.85677 17.579 8.63784 17.6587 9.48163L13.7381 9.48039Z" fill="black" stroke="white" stroke-width="0.5"/>
</svg>
