<svg width="67" height="43" viewBox="0 0 67 43" fill="none" xmlns="http://www.w3.org/2000/svg">
<path d="M57.673 18.7888C58.993 17.8638 59.9837 16.5421 60.5014 15.0157C61.0191 13.4893 61.0367 11.8376 60.5518 10.3005C60.0668 8.7634 59.1045 7.4209 57.8046 6.46794C56.5046 5.51499 54.9348 5.0012 53.323 5.0012C51.7112 5.0012 50.1414 5.51499 48.8414 6.46794C47.5415 7.4209 46.5792 8.7634 46.0942 10.3005C45.6093 11.8376 45.6269 13.4893 46.1446 15.0157C46.6623 16.5421 47.653 17.8638 48.973 18.7888C47.3197 19.3575 45.7966 20.2506 44.493 21.4158C42.6983 19.8846 40.6046 18.7438 38.345 18.0658C40.1395 16.9811 41.5294 15.3388 42.3026 13.3897C43.0757 11.4407 43.1895 9.29214 42.6265 7.27235C42.0635 5.25256 40.8547 3.47263 39.1848 2.20456C37.5149 0.936485 35.4758 0.25 33.379 0.25C31.2822 0.25 29.2431 0.936485 27.5732 2.20456C25.9033 3.47263 24.6945 5.25256 24.1315 7.27235C23.5685 9.29214 23.6823 11.4407 24.4554 13.3897C25.2286 15.3388 26.6186 16.9811 28.413 18.0658C26.1811 18.7439 24.1112 19.8706 22.33 21.3768C21.036 20.2385 19.5322 19.3638 17.903 18.8018C19.223 17.8768 20.2137 16.5551 20.7314 15.0287C21.2491 13.5023 21.2667 11.8506 20.7818 10.3135C20.2968 8.7764 19.3345 7.4339 18.0346 6.48094C16.7346 5.52799 15.1648 5.0142 13.553 5.0142C11.9412 5.0142 10.3714 5.52799 9.07144 6.48094C7.77152 7.4339 6.80921 8.7764 6.32425 10.3135C5.83928 11.8506 5.85692 13.5023 6.3746 15.0287C6.89227 16.5551 7.88303 17.8768 9.203 18.8018C6.58903 19.7067 4.32207 21.4038 2.71746 23.6571C1.11286 25.9103 0.250379 28.6076 0.25 31.3738L0.25 32.2408C0.250935 32.2545 0.256819 32.2675 0.266563 32.2772C0.276308 32.2869 0.289252 32.2928 0.303 32.2938H16.369C16.2741 33.03 16.2257 33.7715 16.224 34.5138V35.4068C16.2236 36.3247 16.4041 37.2337 16.7552 38.0818C17.1063 38.9299 17.6211 39.7006 18.2702 40.3496C18.9192 40.9987 19.6898 41.5135 20.538 41.8646C21.3861 42.2157 22.2951 42.3962 23.213 42.3958H43.576C44.4939 42.3962 45.4029 42.2157 46.251 41.8646C47.0992 41.5135 47.8698 40.9987 48.5188 40.3496C49.1679 39.7006 49.6827 38.9299 50.0338 38.0818C50.3849 37.2337 50.5654 36.3247 50.565 35.4068V34.5138C50.5634 33.7715 50.5149 33.03 50.42 32.2938H66.593C66.6068 32.2928 66.6197 32.2869 66.6294 32.2772C66.6392 32.2675 66.6451 32.2545 66.646 32.2408V31.3738C66.6394 28.6047 65.7723 25.9062 64.1647 23.6516C62.5572 21.3969 60.2887 19.6976 57.673 18.7888ZM47.85 12.5748C47.8502 11.4958 48.169 10.441 48.7664 9.54255C49.3638 8.64411 50.2133 7.9421 51.2081 7.52457C52.203 7.10705 53.299 6.99261 54.3587 7.19561C55.4183 7.39861 56.3945 7.91001 57.1646 8.66565C57.9347 9.42129 58.4646 10.3875 58.6876 11.4432C58.9107 12.4988 58.8171 13.5968 58.4185 14.5994C58.02 15.602 57.3342 16.4646 56.4473 17.079C55.5603 17.6933 54.5117 18.0321 53.433 18.0528H53.223C51.7878 18.0273 50.42 17.4387 49.4149 16.4139C48.4097 15.3891 47.8477 14.0102 47.85 12.5748ZM25.85 9.84177C25.8501 8.37696 26.2792 6.94426 27.0842 5.7205C27.8893 4.49675 29.035 3.53553 30.3801 2.95548C31.7251 2.37544 33.2106 2.20196 34.6531 2.45647C36.0957 2.71099 37.4321 3.38235 38.4974 4.38768C39.5628 5.39301 40.3104 6.6883 40.648 8.11366C40.9857 9.53902 40.8985 11.0321 40.3974 12.4085C39.8962 13.7849 39.0029 14.9844 37.8279 15.8589C36.6528 16.7335 35.2473 17.2448 33.785 17.3298H32.918C31.0078 17.2167 29.2127 16.3788 27.8992 14.9873C26.5857 13.5957 25.8528 11.7553 25.85 9.84177ZM8.04 12.5748C8.0402 11.4958 8.359 10.441 8.95642 9.54255C9.55383 8.64411 10.4033 7.9421 11.3981 7.52457C12.393 7.10705 13.489 6.99261 14.5487 7.19561C15.6083 7.39861 16.5845 7.91001 17.3546 8.66565C18.1247 9.42129 18.6546 10.3875 18.8776 11.4432C19.1007 12.4988 19.0071 13.5968 18.6085 14.5994C18.21 15.602 17.5242 16.4646 16.6373 17.079C15.7503 17.6933 14.7017 18.0321 13.623 18.0528H13.413C11.9785 18.025 10.6121 17.4357 9.60746 16.4114C8.60279 15.3871 8.03999 14.0095 8.04 12.5748ZM16.74 30.1748H2.378C2.67327 27.4391 3.96308 24.9071 6.00241 23.0599C8.04175 21.2127 10.6885 20.1788 13.44 20.1548H13.598C16.2249 20.1691 18.7618 21.1141 20.758 22.8218C18.833 24.9061 17.4519 27.4331 16.737 30.1788L16.74 30.1748ZM48.44 35.4038C48.4379 36.6992 47.9223 37.941 47.0063 38.8571C46.0903 39.7731 44.8485 40.2887 43.553 40.2908H23.188C21.8925 40.2887 20.6507 39.7731 19.7347 38.8571C18.8187 37.941 18.3031 36.6992 18.301 35.4038V34.5108C18.3051 30.5923 19.8331 26.8291 22.562 24.017C25.2908 21.2049 29.0064 19.5645 32.923 19.4428C33.068 19.4558 33.223 19.4558 33.37 19.4558C33.517 19.4558 33.67 19.4558 33.817 19.4428C37.7336 19.5645 41.4492 21.2049 44.178 24.017C46.9069 26.8291 48.4349 30.5923 48.439 34.5108L48.44 35.4038ZM50.003 30.1748C49.293 27.4525 47.9261 24.9459 46.022 22.8748C48.0309 21.1369 50.5938 20.1725 53.25 20.1548H53.408C56.1592 20.1802 58.8053 21.2151 60.8437 23.0631C62.882 24.911 64.1707 27.4432 64.465 30.1788L50.003 30.1748Z" fill="black" stroke="white" stroke-width="0.5"/>
</svg>
