<svg xmlns="http://www.w3.org/2000/svg" width="93.485" height="93.485" viewBox="0 0 93.485 93.485"><g transform="translate(282.995 4759.865)"><g transform="translate(-282.995 -4759.865)" fill="#fff" stroke="#8d7249" stroke-width="1"><ellipse cx="46.742" cy="46.743" rx="46.742" ry="46.743" stroke="none"/><ellipse cx="46.742" cy="46.743" rx="46.242" ry="46.243" fill="none"/></g><g transform="translate(-269.449 -4826.451)"><g transform="translate(0 92.25)"><path d="M57.423,110.8a7.58,7.58,0,1,0-8.7,0,13.134,13.134,0,0,0-4.48,2.627,17,17,0,0,0-6.148-3.35,9.6,9.6,0,1,0-9.932,0,17.137,17.137,0,0,0-6.083,3.311,13.24,13.24,0,0,0-4.427-2.575,7.58,7.58,0,1,0-8.7,0A13.306,13.306,0,0,0,0,123.385v.867a.057.057,0,0,0,.053.053H16.119a17.669,17.669,0,0,0-.145,2.22v.893a6.986,6.986,0,0,0,6.989,6.989H43.326a6.986,6.986,0,0,0,6.989-6.989v-.893a17.668,17.668,0,0,0-.145-2.22H66.343a.057.057,0,0,0,.053-.053v-.867A13.357,13.357,0,0,0,57.423,110.8ZM47.6,104.586a5.478,5.478,0,1,1,5.583,5.478h-.21A5.47,5.47,0,0,1,47.6,104.586ZM25.6,101.853a7.5,7.5,0,1,1,7.935,7.488h-.867A7.512,7.512,0,0,1,25.6,101.853ZM7.79,104.586a5.478,5.478,0,1,1,5.583,5.478h-.21A5.479,5.479,0,0,1,7.79,104.586Zm8.7,17.6H2.128A11.225,11.225,0,0,1,13.19,112.166h.158a11.108,11.108,0,0,1,7.16,2.667A17.249,17.249,0,0,0,16.487,122.19Zm31.7,5.229a4.895,4.895,0,0,1-4.887,4.887H22.938a4.895,4.895,0,0,1-4.887-4.887v-.893a15.091,15.091,0,0,1,14.622-15.068c.145.013.3.013.447.013s.3,0,.447-.013a15.091,15.091,0,0,1,14.622,15.068Zm1.563-5.229a17.2,17.2,0,0,0-3.981-7.3A11.162,11.162,0,0,1,53,112.166h.158A11.225,11.225,0,0,1,64.215,122.19Z" transform="translate(0 -92.25)" stroke="#fff" stroke-width="0.5"/></g></g></g></svg>