<svg width="42" height="43" viewBox="0 0 42 43" fill="none" xmlns="http://www.w3.org/2000/svg">
<path d="M20.5006 12.72C23.737 12.72 26.3606 10.0964 26.3606 6.86C26.3606 3.62361 23.737 1 20.5006 1C17.2642 1 14.6406 3.62361 14.6406 6.86C14.6406 10.0964 17.2642 12.72 20.5006 12.72Z" stroke="black" stroke-width="2" stroke-linecap="round" stroke-linejoin="round"/>
<path d="M20.5 40.0658V12.7188" stroke="black" stroke-width="2" stroke-linecap="round" stroke-linejoin="round"/>
<path d="M6.86 21.4922H1C1 24.0573 1.50524 26.5973 2.48686 28.9671C3.46849 31.337 4.90728 33.4903 6.72108 35.3041C8.53489 37.1179 10.6882 38.5567 13.058 39.5383C15.4279 40.52 17.9679 41.0252 20.533 41.0252C23.0981 41.0252 25.6381 40.52 28.008 39.5383C30.3778 38.5567 32.5311 37.1179 34.3449 35.3041C36.1587 33.4903 37.5975 31.337 38.5791 28.9671C39.5608 26.5973 40.066 24.0573 40.066 21.4922H34.206" stroke="black" stroke-width="2" stroke-linecap="round" stroke-linejoin="round"/>
</svg>
