<svg xmlns="http://www.w3.org/2000/svg" width="80" height="80" viewBox="0 0 80 80"><g transform="translate(-79.743 4909.257)"><circle cx="40" cy="40" r="40" transform="translate(79.743 -4909.257)" fill="#8d7249"/><g transform="translate(398.229 -5051.771)"><path d="M38.994,15.376H29.283V6.016a3.506,3.506,0,0,0-3.5-3.5H6.016a3.506,3.506,0,0,0-3.5,3.5V19.453a3.506,3.506,0,0,0,3.5,3.5H7.567v5.908a.625.625,0,0,0,1.076.434l6.095-6.341h.844v9.465a3.524,3.524,0,0,0,3.52,3.52H30.218l6.135,6.383a.625.625,0,0,0,1.076-.434v-5.95h1.565a3.524,3.524,0,0,0,3.52-3.52V18.9A3.524,3.524,0,0,0,38.994,15.376ZM14.471,21.7a.626.626,0,0,0-.451.192l-5.2,5.414V22.33a.625.625,0,0,0-.625-.625H6.016a2.254,2.254,0,0,1-2.252-2.252V6.016A2.254,2.254,0,0,1,6.016,3.764H25.782a2.254,2.254,0,0,1,2.252,2.252v9.36H19.1a3.524,3.524,0,0,0-3.52,3.52V21.7ZM41.264,32.419a2.273,2.273,0,0,1-2.27,2.27H36.8a.625.625,0,0,0-.625.625v5.023l-5.244-5.456a.625.625,0,0,0-.451-.192H19.1a2.273,2.273,0,0,1-2.27-2.27V18.9a2.273,2.273,0,0,1,2.27-2.27H38.994a2.273,2.273,0,0,1,2.27,2.27V32.419ZM15.034,10.084a4.013,4.013,0,0,1-2.3,3.617,1.832,1.832,0,0,0-1.075,1.693v.676a.625.625,0,1,1-1.25,0v-.676a3.055,3.055,0,0,1,1.792-2.824,2.746,2.746,0,1,0-3.912-2.486.625.625,0,1,1-1.25,0,3.995,3.995,0,1,1,7.99,0Zm-2.973,8.609a1.022,1.022,0,1,1-1.022-1.022A1.024,1.024,0,0,1,12.061,18.694ZM18.951,8.106a.625.625,0,0,1,.625-.625H24.31a.625.625,0,1,1,0,1.25H19.577A.625.625,0,0,1,18.951,8.106Zm0,3.829a.625.625,0,0,1,.625-.625H24.31a.625.625,0,1,1,0,1.25H19.577A.625.625,0,0,1,18.951,11.935Zm16.827,9.893a.625.625,0,0,1-.625.625H22.942a.625.625,0,1,1,0-1.25H35.153A.625.625,0,0,1,35.778,21.828Zm0,3.829a.625.625,0,0,1-.625.625H22.942a.625.625,0,1,1,0-1.25H35.153A.625.625,0,0,1,35.778,25.658Zm0,3.829a.625.625,0,0,1-.625.625H22.942a.625.625,0,1,1,0-1.25H35.153A.625.625,0,0,1,35.778,29.487Z" transform="translate(-301 160)" fill="#fff"/></g></g></svg>