<svg width="54" height="54" viewBox="0 0 54 54" fill="none" xmlns="http://www.w3.org/2000/svg">
<path d="M53.2405 7.10464C53.2414 5.74027 52.8492 4.40454 52.1107 3.25728C51.3723 2.11002 50.3189 1.19982 49.0767 0.635584C47.8345 0.0713519 46.456 -0.123012 45.1062 0.0757493C43.7564 0.274511 42.4924 0.85798 41.4656 1.75634C40.4387 2.6547 39.6924 3.8299 39.316 5.14132C38.9396 6.45274 38.9491 7.84484 39.3432 9.15103C39.7373 10.4572 40.4995 11.6222 41.5384 12.5066C42.5774 13.3909 43.8491 13.9572 45.2015 14.1376C44.9948 15.8636 44.1639 17.4544 42.8655 18.6103C41.5671 19.7661 39.8908 20.4072 38.1525 20.4126H15.0855C12.7344 20.4198 10.4817 21.3569 8.81922 23.0193C7.15675 24.6818 6.21963 26.9346 6.21251 29.2856V39.1046C4.42061 39.3304 2.78209 40.2306 1.63051 41.6219C0.478924 43.0132 -0.0991557 44.791 0.0139456 46.5936C0.127047 48.3961 0.922827 50.0878 2.23929 51.3242C3.55576 52.5607 5.29394 53.249 7.10001 53.249C8.90608 53.249 10.6443 52.5607 11.9607 51.3242C13.2772 50.0878 14.073 48.3961 14.1861 46.5936C14.2992 44.791 13.7211 43.0132 12.5695 41.6219C11.4179 40.2306 9.77941 39.3304 7.98751 39.1046V29.2856C7.99253 27.4041 8.74217 25.6011 10.0726 24.2707C11.403 22.9403 13.206 22.1907 15.0875 22.1856H29.3015C28.1965 23.0107 27.2989 24.0819 26.6801 25.3144C26.0612 26.5468 25.7382 27.9066 25.7365 29.2856V39.1046C23.9446 39.3304 22.3061 40.2306 21.1545 41.6219C20.0029 43.0132 19.4248 44.791 19.5379 46.5936C19.651 48.3961 20.4468 50.0878 21.7633 51.3242C23.0798 52.5607 24.8179 53.249 26.624 53.249C28.4301 53.249 30.1683 52.5607 31.4847 51.3242C32.8012 50.0878 33.597 48.3961 33.7101 46.5936C33.8232 44.791 33.2451 43.0132 32.0935 41.6219C30.9419 40.2306 29.3034 39.3304 27.5115 39.1046V29.2856C27.5165 27.4041 28.2662 25.6011 29.5966 24.2707C30.927 22.9403 32.73 22.1907 34.6115 22.1856H38.1605C40.3672 22.1791 42.4928 21.3531 44.1248 19.8678C45.7568 18.3826 46.7788 16.344 46.9925 14.1476C48.7126 13.935 50.2961 13.1023 51.4463 11.8058C52.5965 10.5093 53.2344 8.83781 53.2405 7.10464ZM12.4235 46.1446C12.4235 47.1977 12.1112 48.2271 11.5261 49.1027C10.941 49.9783 10.1094 50.6607 9.13645 51.0636C8.1635 51.4665 7.09292 51.5718 6.06011 51.3662C5.0273 51.1606 4.07866 50.6533 3.33417 49.9086C2.58967 49.1638 2.08277 48.215 1.87757 47.1821C1.67236 46.1492 1.77808 45.0786 2.18135 44.1058C2.58462 43.133 3.26732 42.3017 4.14311 41.7169C5.0189 41.1322 6.04844 40.8202 7.10151 40.8206C8.51188 40.8254 9.8631 41.3879 10.8602 42.3854C11.8573 43.3828 12.4193 44.7343 12.4235 46.1446ZM31.9445 46.1446C31.9445 47.1976 31.6323 48.227 31.0473 49.1025C30.4622 49.978 29.6308 50.6604 28.6579 51.0634C27.6851 51.4663 26.6146 51.5718 25.5819 51.3663C24.5491 51.1609 23.6005 50.6539 22.8559 49.9093C22.1113 49.1647 21.6042 48.2161 21.3988 47.1833C21.1934 46.1505 21.2988 45.0801 21.7018 44.1072C22.1047 43.1344 22.7871 42.3029 23.6627 41.7179C24.5382 41.1329 25.5675 40.8206 26.6205 40.8206C28.0312 40.8249 29.383 41.3871 30.3805 42.3847C31.378 43.3822 31.9403 44.7339 31.9445 46.1446ZM46.1445 12.4266C45.0913 12.4272 44.0616 12.1154 43.1856 11.5307C42.3097 10.946 41.6268 10.1146 41.2234 9.14166C40.8201 8.16876 40.7143 7.09809 40.9196 6.06508C41.1248 5.03207 41.6319 4.08315 42.3765 3.33836C43.1212 2.59356 44.07 2.08636 45.103 1.88091C46.1359 1.67547 47.2066 1.78101 48.1796 2.18419C49.1526 2.58737 49.9841 3.27007 50.569 4.14593C51.1539 5.02178 51.4659 6.05144 51.4655 7.10464C51.4608 8.51501 50.8983 9.86622 49.9008 10.8633C48.9033 11.8604 47.5519 12.4224 46.1415 12.4266H46.1445Z" fill="black"/>
</svg>
