<svg xmlns="http://www.w3.org/2000/svg" width="93.485" height="93.485" viewBox="0 0 93.485 93.485"><g transform="translate(793.409 4613.865)"><g transform="translate(-793.409 -4613.865)" fill="#fff" stroke="#8d7249" stroke-width="1"><ellipse cx="46.742" cy="46.743" rx="46.742" ry="46.743" stroke="none"/><ellipse cx="46.742" cy="46.743" rx="46.242" ry="46.243" fill="none"/></g><g transform="translate(-836.098 -4601.679)"><g transform="translate(66.023 3.437)"><path d="M107.742,13.992a2.781,2.781,0,0,1-2.174-2.734,4.088,4.088,0,0,0-5.011-3.984,2.778,2.778,0,0,1-3.139-1.521,4.089,4.089,0,0,0-6.237-1.419,2.777,2.777,0,0,1-3.492,0,4.088,4.088,0,0,0-6.24,1.43A2.784,2.784,0,0,1,78.3,7.27a4.088,4.088,0,0,0-5,4,2.779,2.779,0,0,1-2.181,2.724,4.089,4.089,0,0,0-2.775,5.769,2.783,2.783,0,0,1-.786,3.4,4.089,4.089,0,0,0,.015,6.4,2.781,2.781,0,0,1,.768,3.4A4.087,4.087,0,0,0,71.1,38.728l.022.006A2.781,2.781,0,0,1,73.3,41.469a4.085,4.085,0,0,0,3.646,4.064L69.48,57.314a2.4,2.4,0,0,0,2.6,3.623l4.82-1.182,2.053,4.508a2.4,2.4,0,0,0,4.457-.2L89.12,47.8a2.759,2.759,0,0,1,.625,0l5.707,16.266a2.4,2.4,0,0,0,4.457.2l2.053-4.509,4.819,1.181a2.4,2.4,0,0,0,2.6-3.621L101.92,45.534a4.088,4.088,0,0,0,3.648-4.079,2.781,2.781,0,0,1,2.181-2.724,4.089,4.089,0,0,0,2.777-5.756l-.005-.011,0-.005a2.784,2.784,0,0,1,.783-3.4,4.088,4.088,0,0,0-.01-6.4,2.78,2.78,0,0,1-.769-3.4A4.088,4.088,0,0,0,107.742,13.992ZM82.187,63.637a1.1,1.1,0,0,1-2.053.089l-2.276-5a.648.648,0,0,0-.745-.362L71.77,59.677a1.1,1.1,0,0,1-1.2-1.669l7.976-12.59a2.777,2.777,0,0,1,2.9,1.557,4.068,4.068,0,0,0,6.038,1.552Zm26.1-5.628a1.1,1.1,0,0,1-1.2,1.668l-5.342-1.31a.647.647,0,0,0-.745.362l-2.276,5a1.1,1.1,0,0,1-2.053-.089l-5.3-15.11a4.08,4.08,0,0,0,6.05-1.566,2.768,2.768,0,0,1,2.889-1.544Zm2.2-33.831a2.792,2.792,0,0,1-.01,4.372,4.07,4.07,0,0,0-1.133,4.97l.006.011a2.792,2.792,0,0,1-1.9,3.936,4.072,4.072,0,0,0-3.18,4,2.791,2.791,0,0,1-3.427,2.719,4.075,4.075,0,0,0-4.594,2.222,2.792,2.792,0,0,1-4.26.969,4.072,4.072,0,0,0-5.111,0,2.791,2.791,0,0,1-4.263-.982,4.091,4.091,0,0,0-4.622-2.207,2.791,2.791,0,0,1-3.4-2.736,4.067,4.067,0,0,0-3.162-3.982l-.022-.006a2.791,2.791,0,0,1-1.893-3.943,4.076,4.076,0,0,0-1.147-4.983,2.792,2.792,0,0,1,.015-4.373,4.071,4.071,0,0,0,1.129-4.977,2.791,2.791,0,0,1,1.9-3.935,4.073,4.073,0,0,0,3.183-4,2.792,2.792,0,0,1,3.425-2.72,4.069,4.069,0,0,0,4.6-2.221,2.792,2.792,0,0,1,4.264-.966,4.065,4.065,0,0,0,5.1,0,2.792,2.792,0,0,1,4.264.978,4.076,4.076,0,0,0,4.607,2.21,2.791,2.791,0,0,1,3.411,2.734,4.052,4.052,0,0,0,3.185,3.988,2.792,2.792,0,0,1,1.893,3.942,4.072,4.072,0,0,0,1.143,4.977Z" transform="translate(-66.023 -3.437)" stroke="#000" stroke-width="0.3"/><path d="M188.055,115.165a1.04,1.04,0,0,1-.782-.569l-1.638-3.32a2.337,2.337,0,0,0-4.19,0l-1.638,3.32a1.04,1.04,0,0,1-.783.569l-3.666.535a2.337,2.337,0,0,0-1.293,3.984l2.649,2.582a1.04,1.04,0,0,1,.3.919l-.625,3.655a2.337,2.337,0,0,0,3.39,2.462l3.276-1.725a1.04,1.04,0,0,1,.969,0L187.3,129.3a2.337,2.337,0,0,0,3.39-2.462l-.625-3.655a1.039,1.039,0,0,1,.3-.919l2.649-2.582a2.337,2.337,0,0,0-1.294-3.984Zm4.055,3.591-2.649,2.582a2.335,2.335,0,0,0-.672,2.067l.625,3.654a1.039,1.039,0,0,1-1.509,1.1l-3.278-1.725a2.337,2.337,0,0,0-2.176,0l-3.277,1.725a1.039,1.039,0,0,1-1.509-1.1l.625-3.656a2.337,2.337,0,0,0-.672-2.066l-2.649-2.582a1.039,1.039,0,0,1,.576-1.773l3.666-.535a2.337,2.337,0,0,0,1.758-1.278l1.639-3.32a1.04,1.04,0,0,1,1.865,0l1.638,3.32a2.336,2.336,0,0,0,1.757,1.278l3.666.535a1.039,1.039,0,0,1,.576,1.773Z" transform="translate(-160.132 -96.847)" stroke="#000" stroke-width="0.3"/><path d="M152.542,71.514a14.539,14.539,0,1,0,14.539,14.539A14.556,14.556,0,0,0,152.542,71.514Zm0,27.781a13.242,13.242,0,1,1,13.242-13.242A13.257,13.257,0,0,1,152.542,99.295Z" transform="translate(-129.134 -63.126)" stroke="#000" stroke-width="0.3"/></g></g></g></svg>