<svg width="48" height="63" viewBox="0 0 48 63" fill="none" xmlns="http://www.w3.org/2000/svg">
<path d="M41.8684 10.7016C41.2482 10.5629 40.6942 10.2159 40.2986 9.71848C39.903 9.22104 39.6898 8.60311 39.6944 7.96758C39.6946 7.35216 39.5559 6.74461 39.2886 6.19028C39.0212 5.63594 38.6322 5.14912 38.1505 4.76612C37.6687 4.38312 37.1067 4.11383 36.5064 3.97833C35.9061 3.84284 35.2829 3.84463 34.6834 3.98358C34.0651 4.12673 33.4165 4.05388 32.8454 3.77715C32.2743 3.50043 31.8152 3.03651 31.5444 2.46258C31.2776 1.90886 30.8894 1.42241 30.4087 1.0394C29.928 0.656392 29.3671 0.386681 28.7678 0.250327C28.1685 0.113972 27.5461 0.114483 26.947 0.25182C26.3479 0.389157 25.7875 0.659787 25.3074 1.04358C24.8132 1.44316 24.1969 1.66114 23.5614 1.66114C22.9259 1.66114 22.3096 1.44316 21.8154 1.04358C21.3346 0.659394 20.7733 0.388714 20.1733 0.251734C19.5733 0.114754 18.9501 0.11501 18.3502 0.252483C17.7504 0.389955 17.1893 0.661096 16.7088 1.04568C16.2283 1.43027 15.8409 1.91837 15.5754 2.47358C15.3009 3.04604 14.839 3.50748 14.2662 3.78139C13.6935 4.0553 13.0443 4.12523 12.4264 3.97958C11.8263 3.84224 11.2029 3.8422 10.6028 3.97948C10.0027 4.11675 9.44132 4.38779 8.96061 4.77236C8.47989 5.15693 8.09224 5.64511 7.82658 6.20045C7.56092 6.7558 7.42412 7.36397 7.42639 7.97958C7.42869 8.61446 7.21354 9.23099 6.81674 9.72658C6.41993 10.2222 5.8654 10.567 5.24539 10.7036C4.6453 10.8399 4.08371 11.1098 3.60247 11.4933C3.12124 11.8768 2.73278 12.364 2.46603 12.9186C2.19928 13.4731 2.06114 14.0807 2.06189 14.6961C2.06265 15.3114 2.20228 15.9187 2.47039 16.4726C2.74673 17.044 2.81945 17.6927 2.67649 18.3111C2.53353 18.9295 2.18347 19.4804 1.68438 19.8726C1.20389 20.2567 0.816238 20.7442 0.550304 21.2989C0.28437 21.8535 0.147007 22.4611 0.148449 23.0762C0.14989 23.6913 0.290097 24.2982 0.558628 24.8516C0.827159 25.4051 1.21709 25.8908 1.69938 26.2726C2.19574 26.6669 2.54248 27.219 2.68216 27.8373C2.82183 28.4557 2.74606 29.1032 2.46739 29.6726C2.19956 30.2252 2.05968 30.831 2.05815 31.445C2.05663 32.0591 2.19349 32.6656 2.45857 33.2195C2.72365 33.7734 3.11014 34.2604 3.58932 34.6444C4.0685 35.0285 4.62804 35.2995 5.22638 35.4376L5.24839 35.4436C5.86952 35.5815 6.42456 35.9283 6.82093 36.426C7.21729 36.9237 7.431 37.5423 7.42639 38.1786C7.42573 39.1864 7.79768 40.159 8.47071 40.9092C9.14375 41.6594 10.0704 42.1343 11.0724 42.2426L3.60639 54.0236C3.34748 54.4281 3.21589 54.901 3.22865 55.3811C3.2414 55.8612 3.39791 56.3265 3.67794 56.7167C3.95796 57.1069 4.34861 57.4041 4.79937 57.5699C5.25014 57.7356 5.74027 57.7624 6.20639 57.6466L11.0264 56.4646L13.0794 60.9726C13.2766 61.411 13.6009 61.7802 14.0104 62.0321C14.4198 62.2841 14.8955 62.4073 15.3758 62.3857C15.8561 62.3642 16.3188 62.1989 16.704 61.9113C17.0893 61.6236 17.3793 61.2269 17.5364 60.7726L23.2464 44.5096C23.454 44.4859 23.6637 44.4859 23.8714 44.5096L29.5784 60.7756C29.7355 61.2299 30.0255 61.6266 30.4107 61.9143C30.796 62.2019 31.2587 62.3672 31.739 62.3887C32.2193 62.4103 32.695 62.2871 33.1044 62.0351C33.5138 61.7832 33.8382 61.414 34.0354 60.9756L36.0884 56.4666L40.9074 57.6476C41.3732 57.763 41.8629 57.7361 42.3133 57.5703C42.7637 57.4046 43.154 57.1076 43.4339 56.7178C43.7139 56.328 43.8705 55.8632 43.8836 55.3835C43.8966 54.9037 43.7656 54.4311 43.5074 54.0266L36.0464 42.2436C37.0511 42.1348 37.9799 41.6578 38.6536 40.9045C39.3272 40.1512 39.698 39.1751 39.6944 38.1646C39.6924 37.5298 39.9077 36.9135 40.3045 36.4179C40.7012 35.9224 41.2556 35.5775 41.8754 35.4406C42.4739 35.3041 43.034 35.0345 43.5141 34.652C43.9943 34.2694 44.3821 33.7837 44.6488 33.2308C44.9156 32.6778 45.0544 32.072 45.055 31.4581C45.0556 30.8442 44.918 30.238 44.6524 29.6846L44.6474 29.6736V29.6686C44.3709 29.0975 44.2978 28.449 44.4402 27.8307C44.5826 27.2124 44.932 26.6612 45.4304 26.2686C45.9113 25.885 46.2995 25.3978 46.566 24.8433C46.8325 24.2888 46.9704 23.6814 46.9694 23.0662C46.9685 22.451 46.8287 21.8439 46.5605 21.2903C46.2922 20.7366 45.9025 20.2507 45.4204 19.8686C44.9237 19.4745 44.5767 18.9225 44.4368 18.3041C44.2969 17.6857 44.3726 17.038 44.6514 16.4686C44.9193 15.9143 45.0585 15.3066 45.0587 14.691C45.0588 14.0753 44.92 13.4676 44.6524 12.9131C44.3848 12.3586 43.9955 11.8718 43.5134 11.4888C43.0313 11.1059 42.469 10.8368 41.8684 10.7016ZM16.3134 60.3466C16.2429 60.5579 16.11 60.7428 15.9322 60.8769C15.7544 61.011 15.54 61.0879 15.3175 61.0976C15.095 61.1072 14.8748 61.0491 14.686 60.9309C14.4973 60.8127 14.3489 60.64 14.2604 60.4356L11.9844 55.4356C11.922 55.2978 11.8133 55.1861 11.6773 55.12C11.5412 55.0539 11.3863 55.0375 11.2394 55.0736L5.89638 56.3866C5.68094 56.4437 5.45323 56.434 5.24342 56.3588C5.03361 56.2836 4.8516 56.1464 4.72149 55.9654C4.59137 55.7845 4.51931 55.5682 4.51483 55.3454C4.51034 55.1226 4.57366 54.9036 4.69638 54.7176L12.6724 42.1276C13.2586 42.044 13.8562 42.15 14.3779 42.4301C14.8996 42.7102 15.3182 43.1498 15.5724 43.6846C15.8288 44.2206 16.1996 44.694 16.6586 45.0714C17.1177 45.4488 17.6538 45.721 18.2294 45.869C18.8049 46.0169 19.4059 46.037 19.99 45.9277C20.5741 45.8184 21.1272 45.5825 21.6104 45.2366L16.3134 60.3466ZM42.4134 54.7186C42.5358 54.9046 42.5988 55.1234 42.5941 55.3461C42.5895 55.5687 42.5174 55.7847 42.3873 55.9655C42.2573 56.1462 42.0754 56.2833 41.8658 56.3585C41.6562 56.4337 41.4287 56.4435 41.2134 56.3866L35.8714 55.0766C35.7245 55.0403 35.5695 55.0566 35.4334 55.1227C35.2972 55.1889 35.1886 55.3006 35.1264 55.4386L32.8504 60.4386C32.7619 60.643 32.6135 60.8157 32.4247 60.9339C32.236 61.0521 32.0158 61.1102 31.7933 61.1006C31.5707 61.0909 31.3564 61.014 31.1786 60.8799C31.0008 60.7458 30.8678 60.5609 30.7974 60.3496L25.4974 45.2396C25.9824 45.5852 26.5372 45.8204 27.1229 45.9287C27.7085 46.0371 28.3108 46.0159 28.8874 45.8666C29.4639 45.7174 30.0008 45.4437 30.4604 45.0649C30.9199 44.686 31.2909 44.2111 31.5474 43.6736C31.8019 43.1423 32.2194 42.706 32.739 42.4284C33.2586 42.1507 33.8532 42.046 34.4364 42.1296L42.4134 54.7186ZM44.6134 20.8876C44.9419 21.1498 45.2069 21.4828 45.3887 21.8617C45.5706 22.2406 45.6645 22.6557 45.6635 23.076C45.6626 23.4963 45.5667 23.9109 45.3832 24.289C45.1996 24.6671 44.933 24.9989 44.6034 25.2596C43.8768 25.8352 43.3685 26.6415 43.1624 27.5452C42.9564 28.449 43.0651 29.396 43.4704 30.2296L43.4764 30.2406C43.6588 30.619 43.7535 31.0337 43.7534 31.4538C43.7533 31.8739 43.6584 32.2886 43.4758 32.6669C43.2932 33.0452 43.0275 33.3775 42.6987 33.6389C42.3698 33.9002 41.9862 34.0841 41.5764 34.1766C40.6694 34.3802 39.8593 34.888 39.2808 35.6157C38.7024 36.3433 38.3902 37.247 38.3964 38.1766C38.3966 38.5973 38.3017 39.0126 38.1188 39.3915C37.9359 39.7703 37.6697 40.1029 37.3401 40.3644C37.0105 40.6259 36.6261 40.8095 36.2156 40.9015C35.805 40.9935 35.379 40.9915 34.9694 40.8956C34.0651 40.6876 33.1168 40.7944 32.2815 41.1984C31.4461 41.6025 30.7737 42.2795 30.3754 43.1176C30.1933 43.4959 29.9282 43.8283 29.5998 44.0899C29.2715 44.3516 28.8884 44.5359 28.479 44.629C28.0696 44.7221 27.6444 44.7217 27.2352 44.6278C26.826 44.5339 26.4432 44.3489 26.1154 44.0866C25.3915 43.5031 24.4897 43.1849 23.5599 43.1849C22.6301 43.1849 21.7283 43.5031 21.0044 44.0866C20.6757 44.3492 20.2919 44.5342 19.8817 44.6276C19.4715 44.721 19.0455 44.7205 18.6355 44.626C18.2255 44.5316 17.8422 44.3457 17.5142 44.0822C17.1862 43.8187 16.922 43.4845 16.7414 43.1046C16.3372 42.2656 15.6589 41.5896 14.8185 41.1883C13.9781 40.787 13.0259 40.6844 12.1194 40.8976C11.7102 40.9891 11.2857 40.9872 10.8773 40.8921C10.4689 40.797 10.0873 40.6111 9.7606 40.3482C9.43394 40.0854 9.17071 39.7523 8.99045 39.3737C8.81019 38.9952 8.71755 38.5809 8.71939 38.1616C8.72324 37.2373 8.41216 36.3393 7.8374 35.6155C7.26264 34.8917 6.45847 34.3852 5.55738 34.1796L5.53538 34.1736C5.12517 34.0806 4.74128 33.8962 4.41239 33.634C4.0835 33.3718 3.81811 33.0387 3.63607 32.6595C3.45404 32.2803 3.36005 31.8649 3.36114 31.4443C3.36223 31.0237 3.45838 30.6088 3.64238 30.2306C4.04843 29.3938 4.15608 28.4433 3.94744 27.5369C3.7388 26.6304 3.22643 25.8226 2.49539 25.2476C2.16703 24.985 1.90221 24.6517 1.7207 24.2724C1.53918 23.8932 1.44566 23.4779 1.4471 23.0575C1.44854 22.637 1.54492 22.2224 1.72903 21.8444C1.91314 21.4664 2.18024 21.1349 2.51039 20.8746C3.23776 20.298 3.74625 19.4901 3.95159 18.585C4.15692 17.6798 4.04677 16.7316 3.63938 15.8976C3.45693 15.5192 3.36222 15.1046 3.36232 14.6846C3.36242 14.2645 3.45733 13.8499 3.63996 13.4717C3.8226 13.0934 4.08826 12.7613 4.41714 12.5C4.74602 12.2387 5.12963 12.055 5.53939 11.9626C6.44687 11.7594 7.25749 11.2518 7.83654 10.5241C8.41558 9.79643 8.72819 8.89252 8.72239 7.96258C8.72228 7.54207 8.81717 7.12696 8.99996 6.74824C9.18275 6.36953 9.44873 6.037 9.77803 5.77548C10.1073 5.51396 10.4915 5.3302 10.9017 5.23793C11.312 5.14565 11.7378 5.14724 12.1474 5.24258C13.0525 5.45333 14.0025 5.3479 14.8393 4.94384C15.6762 4.53978 16.3495 3.86143 16.7474 3.02158C16.9297 2.64287 17.1951 2.3102 17.5239 2.04838C17.8527 1.78656 18.2363 1.60235 18.6462 1.50948C19.0562 1.41662 19.4817 1.4175 19.8913 1.51206C20.3008 1.60661 20.6837 1.79241 21.0114 2.05558C21.7339 2.63755 22.6337 2.95487 23.5614 2.95487C24.4891 2.95487 25.3889 2.63755 26.1114 2.05558C26.4399 1.79281 26.8235 1.60765 27.2336 1.51395C27.6437 1.42026 28.0696 1.42043 28.4797 1.51447C28.8897 1.60852 29.2731 1.79399 29.6014 2.05704C29.9297 2.32009 30.1943 2.65392 30.3754 3.03358C30.7763 3.87196 31.4517 4.54815 32.2896 4.9501C33.1275 5.35204 34.0776 5.45559 34.9824 5.24358C35.3922 5.15022 35.8177 5.1506 36.2273 5.24471C36.637 5.33881 37.02 5.52421 37.348 5.78706C37.6759 6.04991 37.9402 6.38343 38.1213 6.76273C38.3023 7.14203 38.3953 7.55731 38.3934 7.97758C38.3865 8.90673 38.6992 9.81001 39.2791 10.5361C39.859 11.2621 40.6707 11.7668 41.5784 11.9656C41.9884 12.0587 42.372 12.2433 42.7007 12.5054C43.0294 12.7676 43.2946 13.1006 43.4766 13.4796C43.6586 13.8586 43.7526 14.2737 43.7517 14.6942C43.7508 15.1146 43.655 15.5294 43.4714 15.9076C43.0657 16.7431 42.9579 17.6923 43.1658 18.5975C43.3737 19.5028 43.8848 20.3098 44.6144 20.8846L44.6134 20.8876Z" fill="black" stroke="black" stroke-width="0.3"/>
<path d="M28.0691 18.4638C27.9024 18.4394 27.7441 18.3748 27.6079 18.2757C27.4717 18.1766 27.3616 18.0459 27.2871 17.8948L25.6491 14.5748C25.4559 14.1841 25.1574 13.8552 24.7872 13.6253C24.417 13.3953 23.9899 13.2734 23.5541 13.2734C23.1183 13.2734 22.6911 13.3953 22.3209 13.6253C21.9507 13.8552 21.6522 14.1841 21.4591 14.5748L19.8211 17.8948C19.7465 18.046 19.6362 18.1768 19.4998 18.2759C19.3634 18.3751 19.2049 18.4395 19.0381 18.4638L15.3721 18.9988C14.9412 19.0621 14.5365 19.2447 14.2038 19.5257C13.8711 19.8068 13.6236 20.1752 13.4891 20.5895C13.3547 21.0038 13.3387 21.4474 13.4429 21.8703C13.5472 22.2931 13.7675 22.6785 14.0791 22.9828L16.7281 25.5648C16.8487 25.6822 16.9391 25.8272 16.9913 25.9873C17.0436 26.1474 17.0562 26.3178 17.0281 26.4838L16.4031 30.1388C16.3298 30.5683 16.3781 31.0098 16.5426 31.4134C16.707 31.8169 16.9809 32.1665 17.3335 32.4225C17.6861 32.6786 18.1033 32.831 18.5379 32.8625C18.9725 32.894 19.4073 32.8033 19.7931 32.6008L23.0691 30.8758C23.2184 30.7972 23.3847 30.7561 23.5536 30.7561C23.7224 30.7561 23.8887 30.7972 24.0381 30.8758L27.3141 32.5988C27.6999 32.8013 28.1347 32.892 28.5693 32.8605C29.0039 32.829 29.421 32.6766 29.7736 32.4205C30.1262 32.1645 30.4002 31.8149 30.5646 31.4114C30.729 31.0078 30.7773 30.5663 30.7041 30.1368L30.0791 26.4818C30.0509 26.3158 30.0634 26.1454 30.1157 25.9853C30.1679 25.8252 30.2583 25.6802 30.3791 25.5628L33.0281 22.9808C33.3397 22.6764 33.56 22.291 33.6642 21.868C33.7684 21.4451 33.7523 21.0014 33.6177 20.5871C33.4831 20.1729 33.2355 19.8044 32.9026 19.5234C32.5698 19.2424 32.1651 19.06 31.7341 18.9968L28.0691 18.4638ZM32.1241 22.0548L29.4751 24.6368C29.2039 24.901 29.001 25.2272 28.8839 25.5873C28.7668 25.9474 28.7391 26.3306 28.8031 26.7038L29.4281 30.3578C29.4621 30.5494 29.4416 30.7468 29.369 30.9273C29.2963 31.1079 29.1744 31.2644 29.0171 31.3791C28.8598 31.4937 28.6735 31.5619 28.4794 31.5758C28.2852 31.5897 28.0911 31.5488 27.9191 31.4578L24.6411 29.7328C24.3056 29.5563 23.9322 29.4641 23.5531 29.4641C23.174 29.4641 22.8006 29.5563 22.4651 29.7328L19.1881 31.4578C19.016 31.5488 18.8219 31.5897 18.6278 31.5758C18.4336 31.5619 18.2473 31.4937 18.09 31.3791C17.9327 31.2644 17.8108 31.1079 17.7382 30.9273C17.6655 30.7468 17.645 30.5494 17.6791 30.3578L18.3041 26.7018C18.3677 26.3288 18.3398 25.9458 18.2227 25.586C18.1057 25.2261 17.903 24.9 17.6321 24.6358L14.9831 22.0538C14.844 21.9185 14.7456 21.7469 14.699 21.5586C14.6524 21.3703 14.6595 21.1726 14.7195 20.9881C14.7794 20.8036 14.8898 20.6395 15.0382 20.5145C15.1866 20.3895 15.367 20.3085 15.5591 20.2808L19.2251 19.7458C19.5997 19.6911 19.9554 19.5462 20.2617 19.3236C20.5679 19.101 20.8155 18.8073 20.9831 18.4678L22.6221 15.1478C22.708 14.9738 22.8408 14.8274 23.0056 14.725C23.1704 14.6226 23.3605 14.5683 23.5546 14.5683C23.7486 14.5683 23.9387 14.6226 24.1035 14.725C24.2683 14.8274 24.4012 14.9738 24.4871 15.1478L26.1251 18.4678C26.2925 18.8072 26.5399 19.1009 26.8459 19.3235C27.152 19.5461 27.5076 19.691 27.8821 19.7458L31.5481 20.2808C31.7401 20.3085 31.9205 20.3895 32.0689 20.5145C32.2173 20.6395 32.3277 20.8036 32.3877 20.9881C32.4476 21.1726 32.4547 21.3703 32.4081 21.5586C32.3615 21.7469 32.2631 21.9195 32.1241 22.0548Z" fill="black" stroke="black" stroke-width="0.3"/>
<path d="M23.5546 8.53125C20.6791 8.53125 17.8681 9.38395 15.4772 10.9815C13.0863 12.5791 11.2228 14.8498 10.1223 17.5064C9.02192 20.1631 8.73401 23.0864 9.295 25.9067C9.85599 28.727 11.2407 31.3176 13.274 33.3509C15.3073 35.3842 17.8979 36.7689 20.7182 37.3299C23.5385 37.8909 26.4618 37.603 29.1185 36.5025C31.7751 35.4021 34.0458 33.5386 35.6434 31.1477C37.2409 28.7568 38.0936 25.9458 38.0936 23.0703C38.0891 19.2157 36.5559 15.5202 33.8303 12.7946C31.1047 10.069 27.4092 8.53575 23.5546 8.53125ZM23.5546 36.3122C20.9356 36.3122 18.3754 35.5356 16.1978 34.0806C14.0201 32.6255 12.3229 30.5574 11.3206 28.1377C10.3184 25.7181 10.0561 23.0556 10.5671 20.4869C11.078 17.9182 12.3392 15.5587 14.1911 13.7067C16.0431 11.8548 18.4026 10.5936 20.9713 10.0827C23.5399 9.57175 26.2025 9.83398 28.6221 10.8362C31.0418 11.8385 33.1099 13.5358 34.565 15.7134C36.02 17.891 36.7966 20.4512 36.7966 23.0703C36.7927 26.581 35.3963 29.9469 32.9138 32.4294C30.4313 34.9119 27.0654 36.3083 23.5546 36.3122Z" fill="black" stroke="black" stroke-width="0.3"/>
</svg>
