<svg xmlns="http://www.w3.org/2000/svg" width="93.485" height="93.485" viewBox="0 0 93.485 93.485"><g transform="translate(109.247 4613.968)"><g transform="translate(-109.247 -4613.968)" fill="#fff" stroke="#8d7249" stroke-width="1"><ellipse cx="46.742" cy="46.743" rx="46.742" ry="46.743" stroke="none"/><ellipse cx="46.742" cy="46.743" rx="46.242" ry="46.243" fill="none"/></g><g transform="translate(-88.125 -4592.845)"><g transform="translate(-1 -1)"><path d="M52.239,6.1A7.1,7.1,0,1,0,44.2,13.133a7.122,7.122,0,0,1-7.049,6.275H14.084a8.9,8.9,0,0,0-8.873,8.873V38.1a7.1,7.1,0,1,0,1.775,0V28.281a7.119,7.119,0,0,1,7.1-7.1H28.3a8.874,8.874,0,0,0-3.565,7.1V38.1a7.1,7.1,0,1,0,1.775,0V28.281a7.119,7.119,0,0,1,7.1-7.1h3.549a8.9,8.9,0,0,0,8.832-8.038A7.122,7.122,0,0,0,52.239,6.1ZM11.422,45.14A5.324,5.324,0,1,1,6.1,39.816,5.34,5.34,0,0,1,11.422,45.14Zm19.521,0a5.324,5.324,0,1,1-5.324-5.324A5.34,5.34,0,0,1,30.943,45.14Zm14.2-33.718A5.324,5.324,0,1,1,50.464,6.1,5.34,5.34,0,0,1,45.14,11.422Z" transform="translate(1 1)"/></g></g></g></svg>