<svg width="53" height="54" viewBox="0 0 53 54" fill="none" xmlns="http://www.w3.org/2000/svg">
<path d="M47.3129 8.90788H26.6019L25.9959 4.03887C25.9394 2.98441 25.4897 1.98944 24.7354 1.25038C23.9812 0.511326 22.9773 0.0818976 21.9219 0.046875H4.12788C3.04593 0.0481982 2.00868 0.478584 1.24363 1.24363C0.478584 2.00868 0.0481982 3.04593 0.046875 4.12788V39.3729C0.0481982 40.4548 0.478584 41.4921 1.24363 42.2571C2.00868 43.0222 3.04593 43.4526 4.12788 43.4539H17.9149V48.3469C17.917 49.742 18.4724 51.0794 19.4592 52.0657C20.446 53.0519 21.7837 53.6066 23.1789 53.6079H47.3129C48.7079 53.6066 50.0454 53.0519 51.0319 52.0656C52.0184 51.0793 52.5733 49.7419 52.5749 48.3469V14.1719C52.5736 12.7767 52.0189 11.439 51.0327 10.4522C50.0464 9.46537 48.709 8.90999 47.3139 8.90788H47.3129ZM1.56487 39.3729V4.13188C1.56567 3.45237 1.83595 2.80092 2.31644 2.32044C2.79692 1.83995 3.44837 1.56967 4.12788 1.56888H21.9219C22.6014 1.61878 23.2388 1.91733 23.7122 2.40747C24.1855 2.89761 24.4617 3.54498 24.4879 4.22587L29.1959 41.9359H4.12788C3.44837 41.9351 2.79692 41.6648 2.31644 41.1843C1.83595 40.7038 1.56567 40.0524 1.56487 39.3729ZM19.4329 48.3469V43.4539H28.1609L20.4069 50.8609C19.7796 50.1735 19.4322 49.2774 19.4329 48.3469ZM51.0569 48.3469C51.0558 49.3393 50.6611 50.2907 49.9594 50.9924C49.2577 51.6941 48.3063 52.0888 47.3139 52.0899H23.1789C22.6547 52.0901 22.1364 51.9797 21.6579 51.7659L30.5779 43.2469C30.5939 43.2319 30.6089 43.2169 30.6229 43.2009C30.6946 43.1198 30.7481 43.0243 30.7798 42.9208C30.8115 42.8173 30.8208 42.7082 30.8069 42.6009L26.7959 10.4259H47.3129C48.3056 10.4275 49.2572 10.8227 49.9589 11.525C50.6606 12.2272 51.0551 13.1791 51.0559 14.1719L51.0569 48.3469ZM47.3649 25.9699C47.3649 26.1712 47.2849 26.3642 47.1426 26.5066C47.0002 26.6489 46.8072 26.7289 46.6059 26.7289H44.0489C44.0299 27.1829 43.9939 27.6419 43.9359 28.1019C43.5858 30.9674 42.4464 33.6792 40.6449 35.9349C41.8243 37.1638 43.4295 37.8945 45.1309 37.9769C45.3322 37.9769 45.5252 38.0568 45.6676 38.1992C45.8099 38.3415 45.8899 38.5346 45.8899 38.7359C45.8899 38.9372 45.8099 39.1302 45.6676 39.2726C45.5252 39.4149 45.3322 39.4949 45.1309 39.4949C43.0485 39.4122 41.0765 38.5364 39.6189 37.0469C38.1622 38.5443 36.1837 39.4216 34.0959 39.4959C33.8946 39.4959 33.7015 39.4159 33.5592 39.2736C33.4168 39.1312 33.3369 38.9382 33.3369 38.7369C33.3369 38.5356 33.4168 38.3425 33.5592 38.2002C33.7015 38.0578 33.8946 37.9779 34.0959 37.9779C35.7995 37.8996 37.4073 37.1675 38.5849 35.9339C37.0562 34.0352 36.0033 31.7988 35.5139 29.4109C35.4721 29.214 35.5103 29.0085 35.62 28.8397C35.7297 28.6709 35.902 28.5526 36.0989 28.5109C36.2958 28.4691 36.5013 28.5073 36.67 28.617C36.8388 28.7267 36.9571 28.899 36.9989 29.0959C37.4258 31.1723 38.3204 33.1241 39.6149 34.8029C41.1547 32.7998 42.1283 30.4199 42.4339 27.9119C42.4839 27.5119 42.5159 27.1219 42.5339 26.7309H32.7939C32.5926 26.7309 32.3995 26.6509 32.2572 26.5086C32.1148 26.3662 32.0349 26.1732 32.0349 25.9719C32.0349 25.7706 32.1148 25.5775 32.2572 25.4352C32.3995 25.2928 32.5926 25.2129 32.7939 25.2129H38.9439V23.7789C38.9439 23.5776 39.0238 23.3845 39.1662 23.2422C39.3085 23.0998 39.5016 23.0199 39.7029 23.0199C39.9042 23.0199 40.0972 23.0998 40.2396 23.2422C40.3819 23.3845 40.4619 23.5776 40.4619 23.7789V25.2109H46.6119C46.8132 25.2109 47.0062 25.2908 47.1486 25.4332C47.2909 25.5755 47.3709 25.7686 47.3709 25.9699H47.3649ZM19.4959 24.8859L21.6479 29.5469C21.6897 29.6374 21.7489 29.7187 21.8222 29.7863C21.8955 29.8539 21.9813 29.9064 22.0749 29.9408C22.1684 29.9752 22.2679 29.9908 22.3675 29.9868C22.4671 29.9828 22.5649 29.9592 22.6554 29.9174C22.7459 29.8755 22.8272 29.8163 22.8948 29.743C22.9624 29.6698 23.0149 29.5839 23.0493 29.4904C23.0837 29.3968 23.0993 29.2974 23.0953 29.1978C23.0913 29.0982 23.0677 29.0004 23.0259 28.9099L16.1169 13.9559C16.0561 13.8243 15.9589 13.7129 15.8368 13.6348C15.7147 13.5567 15.5728 13.5152 15.4279 13.5152C15.2829 13.5152 15.141 13.5567 15.019 13.6348C14.8969 13.7129 14.7997 13.8243 14.7389 13.9559L7.83087 28.9129C7.78905 29.0034 7.76545 29.1012 7.76144 29.2008C7.75742 29.3004 7.77306 29.3998 7.80746 29.4934C7.84187 29.5869 7.89436 29.6728 7.96195 29.746C8.02954 29.8193 8.11089 29.8785 8.20138 29.9204C8.29186 29.9622 8.38969 29.9858 8.48929 29.9898C8.58889 29.9938 8.6883 29.9782 8.78186 29.9438C8.87541 29.9094 8.96128 29.8569 9.03454 29.7893C9.10781 29.7217 9.16705 29.6404 9.20887 29.5499L11.3629 24.8859H19.4959ZM15.4309 16.0859L18.7959 23.3679H12.0639L15.4309 16.0859Z" fill="white" stroke="white" stroke-width="0.1"/>
</svg>
