<svg xmlns="http://www.w3.org/2000/svg" width="93.485" height="93.485" viewBox="0 0 93.485 93.485"><g transform="translate(-596.508 4803)"><g transform="translate(596.508 -4803)" fill="#8d7249" stroke="#8d7249" stroke-width="1"><ellipse cx="46.742" cy="46.743" rx="46.742" ry="46.743" stroke="none"/><ellipse cx="46.742" cy="46.743" rx="46.242" ry="46.243" fill="none"/></g><path d="M61.017,17.861H40.306L39.7,12.992A4.22,4.22,0,0,0,35.626,9H17.832a4.086,4.086,0,0,0-4.081,4.081V48.326a4.086,4.086,0,0,0,4.081,4.081H31.619V57.3a5.269,5.269,0,0,0,5.264,5.261H61.017A5.267,5.267,0,0,0,66.279,57.3V23.125a5.269,5.269,0,0,0-5.261-5.264ZM15.269,48.326V13.085a2.566,2.566,0,0,1,2.563-2.563H35.626a2.771,2.771,0,0,1,2.566,2.657L42.9,50.889H17.832a2.566,2.566,0,0,1-2.563-2.563ZM33.137,57.3V52.407h8.728l-7.754,7.407a3.727,3.727,0,0,1-.974-2.515Zm31.624,0a3.747,3.747,0,0,1-3.743,3.743H36.883a3.726,3.726,0,0,1-1.521-.324L44.282,52.2h0c.016-.015.031-.03.045-.046a.759.759,0,0,0,.184-.6L40.5,19.379H61.017a3.749,3.749,0,0,1,3.743,3.746ZM61.069,34.923a.759.759,0,0,1-.759.759H57.753c-.019.454-.055.913-.113,1.373a15.579,15.579,0,0,1-3.291,7.833,6.664,6.664,0,0,0,4.486,2.042.759.759,0,1,1,0,1.518A8.165,8.165,0,0,1,53.323,46,8.107,8.107,0,0,1,47.8,48.449a.759.759,0,0,1,0-1.518,6.626,6.626,0,0,0,4.489-2.044,15.3,15.3,0,0,1-3.071-6.523.759.759,0,0,1,1.485-.315,13.945,13.945,0,0,0,2.616,5.707,14.107,14.107,0,0,0,2.819-6.891c.05-.4.082-.79.1-1.181h-9.74a.759.759,0,1,1,0-1.518h6.15V32.732a.759.759,0,1,1,1.518,0v1.432h6.15a.759.759,0,0,1,.759.759ZM33.2,33.839,35.352,38.5a.759.759,0,1,0,1.378-.637L29.821,22.909a.759.759,0,0,0-1.378,0L21.535,37.866a.759.759,0,1,0,1.378.637l2.154-4.664Zm-4.065-8.8L32.5,32.321H25.768Z" transform="translate(603.233 -4792.04)" fill="#fff" stroke="#fff" stroke-width="0.1"/></g></svg>