<svg width="69" height="26" viewBox="0 0 69 26" fill="none" xmlns="http://www.w3.org/2000/svg">
<mask id="mask0_3845_2862" style="mask-type:luminance" maskUnits="userSpaceOnUse" x="0" y="0" width="69" height="26">
<path d="M43.1549 0.000601724C33.9472 2.57606 24.5715 5.45524 15.3639 8.17557L14.6446 7.74546C17.6502 4.62485 19.8963 1.0471 21.853 1.0471L26.187 1.04318L27.1428 0H13.0555L12.1008 1.04318H15.1533C15.6984 1.04318 16.2067 1.33796 15.8864 1.72035C10.8016 7.77469 7.40414 11.4809 0 18.7873H4.53076C4.53076 18.7873 9.78254 12.733 12.5865 9.98745C30.553 21.4509 48.2031 29.0785 67.8404 22.8114L68.2896 22.3218C49.5332 26.8894 35.6152 20.9012 17.0163 9.16601C28.2936 4.83594 38.1556 2.57546 48.5929 0L43.1549 0.000601724Z" fill="white"/>
</mask>
<g mask="url(#mask0_3845_2862)">
<path d="M68.2896 0H0V29.0785H68.2896V0Z" fill="white"/>
</g>
</svg>
