<svg xmlns="http://www.w3.org/2000/svg" width="93.485" height="93.485" viewBox="0 0 93.485 93.485"><g transform="translate(456.835 4613.865)"><g transform="translate(-456.835 -4613.865)" fill="#fff" stroke="#8d7249" stroke-width="1"><ellipse cx="46.742" cy="46.743" rx="46.742" ry="46.743" stroke="none"/><ellipse cx="46.742" cy="46.743" rx="46.242" ry="46.243" fill="none"/></g><path d="M7.084,44.315l3.816,2.6a2.511,2.511,0,0,0,1.409.435,2.45,2.45,0,0,0,1.158-.318l2.3,1.684-.514.41a3.2,3.2,0,0,0,2.015,5.684h.2a3.185,3.185,0,0,0,3.111,3.92,3.258,3.258,0,0,0,1.225-.263v.055a3.228,3.228,0,0,0,.735,2.015,3.162,3.162,0,0,0,3.9.857v.08a3.142,3.142,0,0,0,.71,2.009,3.179,3.179,0,0,0,2.131,1.17h.343a3.185,3.185,0,0,0,2-.71L33.7,62.29l.086-.08,3.479,2.964a3.478,3.478,0,0,0,5.726-2.768,3.436,3.436,0,0,0,1.519.355,3.473,3.473,0,0,0,3.442-3.975,3.473,3.473,0,0,0,3.767-5.267,3.481,3.481,0,0,0,2.413-5.512L58.291,45.2a2.517,2.517,0,0,0,2.83,0l3.8-2.6a2.5,2.5,0,0,0,.649-3.473l-8.44-12.3a2.493,2.493,0,0,0-3.466-.643l-3.8,2.6a2.511,2.511,0,0,0-.986,2.6l-1.439.845-7.839-.857a3.675,3.675,0,0,0-2.664.318l-1.58.845a13,13,0,0,0-7.772.453l-4.287-.612a2.493,2.493,0,0,0-1.084-1.941l-3.8-2.6a2.5,2.5,0,0,0-3.466.649L6.435,40.848a2.5,2.5,0,0,0,.649,3.466Zm8.642,8.574a1.948,1.948,0,0,1-.441-1.225,1.99,1.99,0,0,1,.729-1.568l1.139-.9.943-.753a1.942,1.942,0,0,1,.3-.2l.141-.067c.061,0,.122-.055.184-.073l.171-.043a.919.919,0,0,1,.178-.037h.171a1.7,1.7,0,0,1,.306,0,1.99,1.99,0,0,1,1.764,1.954,1.746,1.746,0,0,1,0,.312v.073a1.709,1.709,0,0,1-.061.239.22.22,0,0,1,0,.055,1.555,1.555,0,0,1-.1.233l-.037.061-.11.178-2.37,1.917a2.383,2.383,0,0,0-.318.294,1.966,1.966,0,0,1-2.591-.472ZM19.033,56.8a1.984,1.984,0,0,1,0-2.493c.08-.049.147-.1.22-.159l2.082-1.654.159-.141a3.4,3.4,0,0,0,.331-.355l1.617-1.3a1.972,1.972,0,0,1,3.215,1.531,1.868,1.868,0,0,1-.037.367,1.1,1.1,0,0,1,0,.116,1.746,1.746,0,0,1-.067.239,1.3,1.3,0,0,1-.067.129,1.948,1.948,0,0,1-.1.2l-.1.129c-.037.049-.073.1-.116.153l-.141.1-3.025,2.382a3.431,3.431,0,0,0-.429.416l-.766.612a1.99,1.99,0,0,1-2.781-.288Zm5.775,3.711a1.978,1.978,0,0,1-1.764-1.96,1.954,1.954,0,0,1,.4-1.225l3.258-2.64a1.99,1.99,0,0,0,.239-.214l.171-.092c.049,0,.1-.055.147-.073l.19-.061.159-.043h.7l.178.049.159.043a.925.925,0,0,1,.178.08l.147.067a1.967,1.967,0,0,1,.184.129l.116.08a2.15,2.15,0,0,1,.257.269,1.968,1.968,0,0,1-.263,2.75.208.208,0,0,0-.037.037l-2.958,2.364a1.941,1.941,0,0,1-1.47.441Zm6.057,2.517a1.972,1.972,0,1,1-2.48-3.062l1.641-1.311.429-.343a1.935,1.935,0,0,1,.312-.2l.1-.049c.08,0,.153-.067.239-.092h.122l.227-.043h.331a1.5,1.5,0,0,1,.233,0l.165.031.239.08.147.061a2.517,2.517,0,0,1,.239.147l.11.08a1.77,1.77,0,0,1,.306.3,1.96,1.96,0,0,1,.031,2.45,1.893,1.893,0,0,1-.325.337ZM50.55,29.763l3.834-2.6a1.262,1.262,0,0,1,.717-.227,1,1,0,0,1,.233,0,1.225,1.225,0,0,1,.815.527l8.458,12.347a1.274,1.274,0,0,1-.331,1.764l-3.8,2.6a1.274,1.274,0,0,1-1.654-.2c-.043-.043-.08-.092-.116-.135L50.225,31.533l-.092-.147a1.274,1.274,0,0,1,.416-1.623Zm-13.064,3a2.4,2.4,0,0,1,1.8-.2h.1l8.1.888a.612.612,0,0,0,.374-.08l1.537-.906,3.019,4.416,5.059,7.349L53.251,47.1l-5.647-4.8L41.088,36.9a.613.613,0,0,0-.159-.092.294.294,0,0,0-.1-.031h-.159a.612.612,0,0,0-.251.055l-2.291,1.151a6.866,6.866,0,0,1-6.32-.227,1.084,1.084,0,0,1-.545-.974,1.1,1.1,0,0,1,.612-.986Zm-9.622,1.409A11.465,11.465,0,0,1,33.6,33.45L31.27,34.706a2.327,2.327,0,0,0-1.225,2.046A2.284,2.284,0,0,0,31.209,38.8a8.084,8.084,0,0,0,7.447.269L40.6,38.1l.612.527,11.563,9.72h.037a2.249,2.249,0,0,1-2.9,3.436L41.774,45.2a.612.612,0,0,0-.772.949l8.1,6.584,1.158.986a2.251,2.251,0,0,1-2.915,3.43l-.612-.5-9.94-8.391a.618.618,0,1,0-.784.955l9.971,8.378a2.248,2.248,0,0,1,.251,3.166,2.3,2.3,0,0,1-3.172.257l-1.053-.894-9.45-7.882a.612.612,0,1,0-.784.919l9.407,7.87a2.248,2.248,0,0,1-3.111,3.234l-3.515-2.995a3.76,3.76,0,0,0,.165-.392v-.1a3.466,3.466,0,0,0,.092-.361v-.129a2.989,2.989,0,0,0,.043-.465,3.142,3.142,0,0,0-1.115-2.45l-.116-.092a2.633,2.633,0,0,0-.441-.294,3.8,3.8,0,0,0-.514-.214h-.11a2.878,2.878,0,0,0-.508-.1h-.018a3.38,3.38,0,0,0-.557,0H31.16v-.055a2.922,2.922,0,0,0,.043-.465,3.2,3.2,0,0,0-.7-2.009,3.9,3.9,0,0,0-.386-.392l-.092-.08a3.314,3.314,0,0,0-.423-.3h-.055a2.621,2.621,0,0,0-.423-.19L29,53.122a4.08,4.08,0,0,0-.472-.116H28.41a3.136,3.136,0,0,0-.41,0,.821.821,0,0,0-.122,0,.208.208,0,0,0-.061,0V52.92a.71.71,0,0,0,0-.11,3.2,3.2,0,0,0-5.157-3.062l-.153.122v-.453a1.375,1.375,0,0,0-.08-.3c-.031-.1-.037-.135-.061-.2a1.972,1.972,0,0,0-.141-.306,1.354,1.354,0,0,0-.073-.165,4.287,4.287,0,0,0-.3-.441,3.191,3.191,0,0,0-4.5-.484l-.576.459-2.389-1.77,8.415-12.28A2.493,2.493,0,0,0,23,33.6l4.551.612a.612.612,0,0,0,.318-.043ZM7.446,41.522,15.9,29.193a1.262,1.262,0,0,1,.815-.533h.233a1.225,1.225,0,0,1,.717.22l3.8,2.6a1.262,1.262,0,0,1,.527,1.323q-.03.072-.067.141l-.031.073a1.041,1.041,0,0,1-.116.214L13.35,45.576a1.39,1.39,0,0,1-.239.263,1.28,1.28,0,0,1-1.525.067L7.776,43.3a1.292,1.292,0,0,1-.551-.815,1.262,1.262,0,0,1,.22-.968ZM36.01,12.768a.612.612,0,0,1,.612.612v.478a2.15,2.15,0,0,1,1.666,2.027.612.612,0,1,1-1.225,0,1.072,1.072,0,0,0-2.107,0,.98.98,0,0,0,1.053.894,2.2,2.2,0,0,1,2.278,2.113,2.15,2.15,0,0,1-1.666,2.033V21.4a.612.612,0,1,1-1.225,0v-.478a2.15,2.15,0,0,1-1.666-2.033.612.612,0,1,1,1.225,0,1.066,1.066,0,0,0,2.107,0A.98.98,0,0,0,36.01,18a2.2,2.2,0,0,1-2.278-2.119A2.15,2.15,0,0,1,35.4,13.858V13.38A.612.612,0,0,1,36.01,12.768Zm-7.527,4.624A7.527,7.527,0,1,0,36.01,9.865a7.527,7.527,0,0,0-7.527,7.527Zm13.823,0a6.3,6.3,0,1,1-6.3-6.3,6.3,6.3,0,0,1,6.3,6.3Zm-17.688,0A11.392,11.392,0,1,0,36.01,6,11.392,11.392,0,0,0,24.619,17.392Zm21.558,0A10.167,10.167,0,1,1,36.01,7.225,10.167,10.167,0,0,1,46.177,17.392ZM53.159,18h-2.94a.612.612,0,0,1,0-1.225h2.94a.612.612,0,1,1,0,1.225ZM49.8,14.574a.612.612,0,0,1,0-.864l2.076-2.082a.615.615,0,0,1,.87.87l-2.082,2.076a.614.614,0,0,1-.864,0Zm.864,5.635,2.082,2.076a.615.615,0,1,1-.87.87L49.8,21.072a.612.612,0,1,1,.864-.864ZM22.4,17.392a.612.612,0,0,1-.612.612H18.862a.612.612,0,1,1,0-1.225H21.8A.612.612,0,0,1,22.4,17.392Zm-.178-2.817a.621.621,0,0,1-.87,0L19.272,12.5a.615.615,0,0,1,.87-.87l2.076,2.082a.612.612,0,0,1,0,.864Zm0,5.635a.612.612,0,0,1,0,.864l-2.076,2.076a.615.615,0,1,1-.87-.87L21.348,20.2a.612.612,0,0,1,.87.006Z" transform="translate(-446.094 -4603.123)" stroke="#000" stroke-width="0.2"/></g></svg>