<svg width="61" height="61" viewBox="0 0 61 61" fill="none" xmlns="http://www.w3.org/2000/svg">
<path d="M1.18395 38.4166L4.99995 41.0166C5.41549 41.2993 5.90633 41.4508 6.40895 41.4516C6.81535 41.4433 7.2133 41.334 7.56695 41.1336L9.86695 42.8176L9.35295 43.2276C8.83994 43.6442 8.46851 44.2094 8.28969 44.8457C8.11086 45.4819 8.1334 46.1579 8.35422 46.7808C8.57504 47.4037 8.9833 47.9429 9.52293 48.3245C10.0626 48.706 10.7071 48.9111 11.3679 48.9116H11.5679C11.4568 49.3803 11.4534 49.8682 11.558 50.3385C11.6627 50.8088 11.8727 51.2491 12.1722 51.6265C12.4717 52.0039 12.8529 52.3084 13.2871 52.5171C13.7213 52.7259 14.1972 52.8334 14.6789 52.8316C15.1005 52.824 15.5165 52.7347 15.9039 52.5686V52.6236C15.9121 53.3594 16.1714 54.0703 16.6389 54.6386C17.0913 55.2082 17.7261 55.6044 18.4366 55.7606C19.147 55.9167 19.8895 55.8231 20.5389 55.4956V55.5756C20.5344 56.3075 20.7855 57.018 21.2489 57.5846C21.7762 58.2415 22.5427 58.6623 23.3799 58.7546H23.7229C24.4512 58.7535 25.1571 58.5029 25.7229 58.0446L27.7999 56.3916L27.8859 56.3116L31.3649 59.2756C31.8785 59.7113 32.5076 59.9884 33.1757 60.0735C33.8438 60.1585 34.5222 60.0478 35.1286 59.7547C35.735 59.4615 36.2432 58.9987 36.5915 58.4222C36.9399 57.8458 37.1134 57.1807 37.091 56.5076C37.5634 56.7408 38.0831 56.8623 38.6099 56.8626C39.1089 56.8633 39.6022 56.7566 40.0562 56.5496C40.5102 56.3426 40.9143 56.0402 41.2409 55.663C41.5675 55.2858 41.8091 54.8426 41.949 54.3637C42.089 53.8848 42.1241 53.3813 42.0519 52.8876C42.7303 53.0612 43.4453 53.0258 44.1031 52.786C44.761 52.5461 45.331 52.113 45.7383 51.5435C46.1456 50.9739 46.3713 50.2946 46.3857 49.5945C46.4001 48.8944 46.2025 48.2064 45.819 47.6206C46.4239 47.551 47.0001 47.324 47.4899 46.9621C47.9797 46.6002 48.366 46.1162 48.6102 45.5583C48.8544 45.0005 48.948 44.3883 48.8816 43.7829C48.8153 43.1776 48.5912 42.6003 48.2319 42.1086L52.3909 39.3016C52.8083 39.5853 53.3013 39.737 53.806 39.737C54.3106 39.737 54.8036 39.5853 55.2209 39.3016L59.0209 36.7016C59.5672 36.3268 59.9424 35.7505 60.064 35.0993C60.1857 34.4482 60.044 33.7753 59.6699 33.2286L51.2299 20.9286C50.8555 20.3838 50.2801 20.01 49.6301 19.8894C48.9801 19.7688 48.3089 19.9113 47.764 20.2856L43.9639 22.8856C43.5618 23.1736 43.2536 23.5741 43.0782 24.0366C42.9028 24.4992 42.8679 25.0033 42.9779 25.4856L41.5389 26.3306L33.6999 25.4736C32.8036 25.2401 31.8521 25.3536 31.0359 25.7916L29.4559 26.6366C26.8798 25.9901 24.1675 26.1482 21.6839 27.0896L17.3969 26.4776C17.3788 26.0922 17.2714 25.7163 17.0833 25.3795C16.8952 25.0427 16.6315 24.7542 16.3129 24.5366L12.5129 21.9366C11.9667 21.5647 11.2955 21.4243 10.646 21.5459C9.99656 21.6675 9.42164 22.0413 9.04695 22.5856L0.534948 34.9496C0.163123 35.4958 0.0226666 36.167 0.14428 36.8165C0.265893 37.466 0.639685 38.0419 1.18395 38.4166ZM9.82595 46.9906C9.5428 46.6449 9.3871 46.2124 9.38495 45.7656C9.38068 45.4662 9.44402 45.1697 9.57024 44.8982C9.69646 44.6268 9.88231 44.3872 10.1139 44.1976L11.2529 43.2976L12.1959 42.5446C12.2895 42.4687 12.39 42.4018 12.4959 42.3446L12.6369 42.2776C12.6979 42.2776 12.7589 42.2226 12.8209 42.2046L12.9919 42.1616C13.0499 42.1434 13.1095 42.131 13.1699 42.1246H13.3409C13.4427 42.1154 13.5452 42.1154 13.6469 42.1246C14.1285 42.1796 14.5734 42.4084 14.8982 42.7682C15.223 43.128 15.4053 43.5939 15.4109 44.0786C15.4203 44.1824 15.4203 44.2868 15.4109 44.3906V44.4636C15.3964 44.5446 15.376 44.6245 15.3499 44.7026C15.3522 44.7208 15.3522 44.7393 15.3499 44.7576C15.323 44.8378 15.2896 44.9157 15.2499 44.9906L15.2129 45.0516L15.1029 45.2296L12.7329 47.1466C12.6182 47.2347 12.5118 47.3331 12.4149 47.4406C12.0012 47.6964 11.5073 47.7897 11.0287 47.7025C10.5502 47.6153 10.1209 47.3538 9.82395 46.9686L9.82595 46.9906ZM13.1329 50.9016C12.8479 50.5486 12.6925 50.1087 12.6925 49.6551C12.6925 49.2014 12.8479 48.7615 13.1329 48.4086C13.2129 48.3596 13.2799 48.3086 13.3529 48.2496L15.4349 46.5956L15.5939 46.4546C15.7126 46.3443 15.8232 46.2256 15.9249 46.0996L17.5419 44.7996C17.8313 44.5647 18.1812 44.4165 18.5513 44.3724C18.9213 44.3282 19.2963 44.3898 19.6328 44.5501C19.9693 44.7103 20.2535 44.9626 20.4524 45.2777C20.6514 45.5928 20.757 45.9579 20.7569 46.3306C20.7568 46.4538 20.7444 46.5768 20.7199 46.6976C20.722 46.7362 20.722 46.7749 20.7199 46.8136C20.7033 46.8947 20.6809 46.9746 20.6529 47.0526C20.633 47.0968 20.6107 47.1398 20.5859 47.1816C20.5565 47.2501 20.5231 47.3169 20.4859 47.3816L20.3859 47.5106C20.3489 47.5596 20.3129 47.6106 20.2699 47.6636L20.1289 47.7636L17.1039 50.1456C16.9491 50.2715 16.8056 50.4107 16.6749 50.5616L15.9089 51.1736C15.5006 51.5008 14.9799 51.6541 14.4593 51.6002C13.9388 51.5463 13.4605 51.2896 13.1279 50.8856L13.1329 50.9016ZM18.9079 54.6126C18.4244 54.5599 17.9771 54.331 17.6517 53.9694C17.3263 53.6078 17.1455 53.139 17.1439 52.6526C17.1349 52.2107 17.2759 51.7789 17.5439 51.4276L20.8019 48.7876C20.8872 48.7228 20.9672 48.6512 21.0409 48.5736L21.2119 48.4816C21.2609 48.4816 21.3119 48.4266 21.3589 48.4086L21.5489 48.3476L21.7079 48.3046H22.4079L22.5859 48.3536L22.7449 48.3966C22.8069 48.4169 22.8666 48.4437 22.9229 48.4766L23.0699 48.5436C23.1337 48.583 23.1951 48.6261 23.2539 48.6726L23.3699 48.7526C23.4632 48.8346 23.5492 48.9246 23.6269 49.0216C23.9531 49.4226 24.1083 49.9359 24.0591 50.4505C24.0098 50.965 23.7602 51.4396 23.3639 51.7716C23.3501 51.7823 23.3377 51.7947 23.3269 51.8086L20.3689 54.1726C20.1668 54.3421 19.9321 54.4687 19.6794 54.5445C19.4266 54.6203 19.1611 54.6438 18.8989 54.6136L18.9079 54.6126ZM24.9649 57.1296C24.7656 57.3058 24.5326 57.4399 24.28 57.5237C24.0274 57.6075 23.7605 57.6393 23.4953 57.6173C23.2301 57.5952 22.9721 57.5196 22.7368 57.3952C22.5016 57.2708 22.294 57.1 22.1265 56.8932C21.959 56.6864 21.8351 56.4478 21.7622 56.1919C21.6894 55.9359 21.6691 55.6679 21.7026 55.4039C21.7361 55.1399 21.8227 54.8854 21.9571 54.6557C22.0916 54.4261 22.2711 54.226 22.4849 54.0676L24.1259 52.7566L24.5549 52.4136C24.6523 52.3371 24.7568 52.2701 24.8669 52.2136L24.9669 52.1646C25.0469 52.1646 25.1199 52.0976 25.2059 52.0726H25.3279L25.5549 52.0296H25.8859C25.9635 52.0235 26.0414 52.0235 26.1189 52.0296L26.2839 52.0606L26.5229 52.1406L26.6699 52.2016C26.7523 52.2461 26.8321 52.2952 26.9089 52.3486L27.0189 52.4286C27.1327 52.5158 27.2355 52.6165 27.3249 52.7286C27.6077 53.0727 27.7648 53.5028 27.7705 53.9481C27.7761 54.3935 27.6299 54.8274 27.3559 55.1786C27.262 55.3039 27.1528 55.4171 27.0309 55.5156L24.9649 57.1296ZM44.6499 23.8646L48.4839 21.2646C48.6943 21.1178 48.9444 21.0386 49.201 21.0376C49.2784 21.0285 49.3565 21.0285 49.4339 21.0376C49.5985 21.0653 49.7557 21.1263 49.8959 21.2169C50.036 21.3075 50.1562 21.4258 50.2489 21.5646L58.707 33.9116C58.8957 34.1898 58.9668 34.5313 58.9048 34.8617C58.8428 35.1922 58.6527 35.4847 58.3759 35.6756L54.576 38.2756C54.3222 38.4463 54.0154 38.5201 53.7117 38.4834C53.408 38.4467 53.1277 38.3019 52.9219 38.0756C52.8789 38.0326 52.8419 37.9836 52.806 37.9406L44.3249 25.6346L44.2329 25.4876C44.0944 25.2125 44.0601 24.8965 44.1366 24.5981C44.2131 24.2997 44.3961 24.0391 44.6499 23.8646ZM31.5859 26.8646C32.1368 26.5654 32.7829 26.4936 33.3859 26.6646H33.486L41.5859 27.5526C41.716 27.5665 41.847 27.5385 41.9599 27.4726L43.4969 26.5666L46.5159 30.9826L51.5749 38.3316L47.3509 41.2016L41.7039 36.4016L35.188 31.0016C35.1399 30.9631 35.0863 30.9321 35.0289 30.9096C34.9977 30.8933 34.9639 30.8828 34.9289 30.8786H34.7699C34.6833 30.8789 34.5978 30.8977 34.5189 30.9336L32.2279 32.0846C31.2334 32.556 30.1402 32.7815 29.0403 32.742C27.9404 32.7025 26.8661 32.3992 25.9079 31.8576C25.7373 31.7599 25.5965 31.6177 25.5005 31.4461C25.4045 31.2745 25.3569 31.0801 25.3629 30.8836C25.3629 30.6785 25.4202 30.4775 25.5283 30.3033C25.6365 30.1291 25.7912 29.9885 25.9749 29.8976L31.5859 26.8646ZM21.9639 28.2736C23.7829 27.5469 25.7577 27.2983 27.6999 27.5516L25.3699 28.8076C25.0002 29.0064 24.6911 29.3015 24.4754 29.6617C24.2598 30.0219 24.1456 30.4337 24.1449 30.8536C24.1346 31.2685 24.2375 31.6784 24.4425 32.0392C24.6476 32.4 24.9472 32.6982 25.3089 32.9016C26.4376 33.5405 27.7035 33.8985 28.9996 33.9453C30.2957 33.9921 31.5841 33.7264 32.7559 33.1706L34.6999 32.2016L35.312 32.7286L46.875 42.4486H46.9119C47.3487 42.8386 47.616 43.3836 47.6572 43.9678C47.6984 44.5519 47.5101 45.129 47.1324 45.5765C46.7548 46.0239 46.2175 46.3065 45.6347 46.364C45.052 46.4215 44.4698 46.2495 44.0119 45.8846L35.8739 39.3016C35.7475 39.2054 35.5886 39.1621 35.4309 39.181C35.2732 39.1998 35.1289 39.2792 35.0287 39.4024C34.9284 39.5257 34.88 39.6831 34.8937 39.8413C34.9074 39.9996 34.982 40.1464 35.1019 40.2506L43.202 46.8346L44.3599 47.8206C44.8032 48.2105 45.0756 48.7589 45.1183 49.3477C45.1611 49.9366 44.9708 50.5186 44.5885 50.9684C44.2062 51.4183 43.6624 51.7 43.0744 51.7527C42.4864 51.8055 41.9012 51.6252 41.445 51.2506L40.833 50.7506L30.8929 42.3596C30.8306 42.3056 30.758 42.2647 30.6795 42.2392C30.6011 42.2137 30.5183 42.2042 30.4361 42.2112C30.3539 42.2182 30.2739 42.2416 30.2009 42.28C30.1279 42.3184 30.0633 42.3711 30.011 42.4348C29.9586 42.4986 29.9196 42.5722 29.8961 42.6513C29.8727 42.7304 29.8653 42.8134 29.8744 42.8954C29.8836 42.9773 29.909 43.0567 29.9493 43.1287C29.9896 43.2007 30.0439 43.2639 30.1089 43.3146L40.0799 51.6926C40.5325 52.0795 40.8132 52.6301 40.8602 53.2237C40.9073 53.8172 40.7169 54.4052 40.3309 54.8586C39.9373 55.302 39.3876 55.5763 38.7966 55.6242C38.2055 55.6721 37.6188 55.4899 37.1589 55.1156L36.1059 54.2216L26.6559 46.3396C26.5986 46.2719 26.5273 46.2174 26.4468 46.18C26.3664 46.1426 26.2787 46.1232 26.19 46.123C26.1013 46.1228 26.0136 46.142 25.933 46.1791C25.8524 46.2161 25.7809 46.2703 25.7233 46.3378C25.6657 46.4053 25.6235 46.4845 25.5995 46.5699C25.5756 46.6554 25.5705 46.745 25.5847 46.8326C25.5988 46.9202 25.6318 47.0036 25.6814 47.0772C25.7311 47.1507 25.7961 47.2126 25.8719 47.2586L35.2789 55.1286C35.6661 55.5499 35.8779 56.1031 35.8713 56.6752C35.8648 57.2474 35.6403 57.7955 35.2436 58.2079C34.8469 58.6203 34.3079 58.8658 33.7364 58.8946C33.1649 58.9233 32.604 58.7331 32.1679 58.3626L28.6529 55.3676C28.7153 55.2401 28.7704 55.1092 28.8179 54.9756V54.8756C28.8551 54.757 28.8858 54.6365 28.9099 54.5146V54.3856C28.9364 54.2319 28.9508 54.0764 28.9529 53.9206C28.9602 53.4551 28.8639 52.9938 28.6711 52.5701C28.4783 52.1464 28.1937 51.7708 27.8379 51.4706L27.7219 51.3786C27.5852 51.266 27.4375 51.1675 27.2809 51.0846C27.1151 51.0008 26.9433 50.9292 26.7669 50.8706H26.6569C26.491 50.822 26.3209 50.7886 26.1489 50.7706H26.1309C25.9456 50.7552 25.7593 50.7552 25.5739 50.7706H25.2599V50.7156C25.2867 50.562 25.301 50.4065 25.3029 50.2506C25.3056 49.5207 25.0586 48.8118 24.6029 48.2416C24.4837 48.102 24.3547 47.971 24.2169 47.8496L24.1249 47.7696C23.992 47.6587 23.8506 47.5584 23.7019 47.4696H23.6469C23.5118 47.3939 23.3703 47.3303 23.2239 47.2796L23.0999 47.2236C22.9451 47.1756 22.7874 47.1368 22.6279 47.1076H22.5099C22.3734 47.0986 22.2365 47.0986 22.0999 47.1076C22.0593 47.1045 22.0186 47.1045 21.9779 47.1076C21.9577 47.1046 21.9372 47.1046 21.9169 47.1076V47.0216C21.9198 46.985 21.9198 46.9482 21.9169 46.9116C22.0333 46.2694 21.9506 45.607 21.6798 45.0132C21.409 44.4194 20.9631 43.9226 20.402 43.5894C19.8408 43.2562 19.1912 43.1025 18.5402 43.149C17.8892 43.1955 17.268 43.44 16.7599 43.8496L16.6069 43.9716V43.5186C16.5917 43.4159 16.5649 43.3152 16.5269 43.2186C16.4959 43.1186 16.4899 43.0836 16.4659 43.0186C16.4278 42.9127 16.3806 42.8104 16.3249 42.7126C16.3043 42.656 16.2799 42.6009 16.2519 42.5476C16.1612 42.3945 16.061 42.2472 15.9519 42.1066C15.689 41.7783 15.3637 41.5052 14.9949 41.3031C14.626 41.1009 14.2208 40.9737 13.8026 40.9287C13.3844 40.8837 12.9614 40.9219 12.558 41.041C12.1546 41.16 11.7787 41.3577 11.4519 41.6226L10.8759 42.0816L8.48695 40.3116L16.9019 28.0316C16.9764 27.9268 17.0425 27.8165 17.0999 27.7016L21.6509 28.3136C21.7589 28.3278 21.8687 28.3129 21.9689 28.2706L21.9639 28.2736ZM1.54595 35.6236L9.99995 23.2946C10.0937 23.1562 10.2141 23.0378 10.354 22.9463C10.4939 22.8548 10.6506 22.792 10.8149 22.7616H11.0479C11.3041 22.7581 11.5548 22.8351 11.7649 22.9816L15.5649 25.5816C15.7758 25.7234 15.9389 25.9256 16.0329 26.1616C16.1269 26.3977 16.1475 26.6566 16.0919 26.9046C16.0719 26.9526 16.0496 26.9996 16.0249 27.0456L15.9939 27.1186C15.9638 27.1942 15.9249 27.266 15.8779 27.3326L7.44995 39.6776C7.38186 39.7751 7.30154 39.8635 7.21095 39.9406C6.99766 40.114 6.73418 40.2142 6.45953 40.2263C6.18487 40.2383 5.91363 40.1616 5.68595 40.0076L1.87595 37.4016C1.59199 37.2132 1.39395 36.9203 1.32495 36.5866C1.29428 36.4187 1.29796 36.2464 1.33577 36.08C1.37359 35.9136 1.44475 35.7567 1.54495 35.6186L1.54595 35.6236ZM30.1099 6.86956C30.2723 6.86956 30.4279 6.93404 30.5427 7.04881C30.6575 7.16359 30.7219 7.31925 30.7219 7.48156V7.95956C31.1844 8.06617 31.5986 8.32281 31.9 8.68946C32.2014 9.05612 32.3729 9.51219 32.3879 9.98656C32.3879 10.149 32.3234 10.3048 32.2086 10.4197C32.0937 10.5345 31.9379 10.5991 31.7754 10.5991C31.613 10.5991 31.4572 10.5345 31.3423 10.4197C31.2275 10.3048 31.1629 10.149 31.1629 9.98656C31.1167 9.74097 30.9861 9.51924 30.7938 9.35971C30.6014 9.20017 30.3594 9.11286 30.1094 9.11286C29.8595 9.11286 29.6175 9.20017 29.4251 9.35971C29.2328 9.51924 29.1022 9.74097 29.0559 9.98656C29.0779 10.2444 29.2009 10.4831 29.3982 10.6506C29.5954 10.8181 29.851 10.9008 30.1089 10.8806C30.691 10.8595 31.2577 11.0701 31.6847 11.4662C32.1118 11.8623 32.3643 12.4115 32.3869 12.9936C32.3732 13.469 32.2023 13.9264 31.9008 14.2943C31.5993 14.6622 31.1844 14.9197 30.7209 15.0266V15.5016C30.7209 15.664 30.6564 15.8198 30.5416 15.9347C30.4267 16.0495 30.2709 16.1141 30.1084 16.1141C29.946 16.1141 29.7902 16.0495 29.6753 15.9347C29.5605 15.8198 29.4959 15.664 29.4959 15.5016V15.0236C29.0325 14.9167 28.6176 14.6592 28.3161 14.2913C28.0146 13.9234 27.8437 13.466 27.8299 12.9906C27.8299 12.8281 27.8945 12.6723 28.0093 12.5575C28.1242 12.4426 28.28 12.3781 28.4424 12.3781C28.6049 12.3781 28.7607 12.4426 28.8756 12.5575C28.9904 12.6723 29.0549 12.8281 29.0549 12.9906C29.0938 13.2421 29.2214 13.4714 29.4146 13.6371C29.6078 13.8027 29.8539 13.8938 30.1084 13.8938C30.363 13.8938 30.6091 13.8027 30.8023 13.6371C30.9955 13.4714 31.1231 13.2421 31.1619 12.9906C31.1388 12.7338 31.0154 12.4965 30.8185 12.3301C30.6215 12.1637 30.367 12.0816 30.1099 12.1016C29.5269 12.1226 28.9593 11.9112 28.5321 11.5138C28.1049 11.1164 27.853 10.5656 27.8319 9.98256C27.8479 9.50861 28.0202 9.05326 28.3219 8.68737C28.6236 8.32149 29.0377 8.06561 29.4999 7.95956V7.48156C29.4999 7.3196 29.5642 7.16423 29.6785 7.04952C29.7928 6.9348 29.948 6.87009 30.1099 6.86956ZM22.5829 11.4936C22.5829 12.9823 23.0244 14.4375 23.8515 15.6753C24.6786 16.9131 25.8541 17.8779 27.2295 18.4476C28.6049 19.0173 30.1183 19.1664 31.5784 18.8759C33.0385 18.5855 34.3797 17.8686 35.4323 16.816C36.485 15.7633 37.2019 14.4221 37.4923 12.962C37.7828 11.5019 37.6337 9.98848 37.064 8.6131C36.4943 7.23772 35.5295 6.06217 34.2917 5.23509C33.0539 4.40801 31.5986 3.96656 30.1099 3.96656C28.1137 3.96656 26.1991 4.75958 24.7876 6.17117C23.376 7.58276 22.5829 9.49728 22.5829 11.4936ZM36.4059 11.4936C36.4059 12.7396 36.0365 13.9576 35.3442 14.9937C34.652 16.0297 33.668 16.8372 32.5169 17.314C31.3657 17.7908 30.099 17.9156 28.8769 17.6725C27.6548 17.4294 26.5322 16.8294 25.6512 15.9483C24.7701 15.0673 24.1701 13.9447 23.927 12.7226C23.6839 11.5006 23.8087 10.2338 24.2855 9.08266C24.7623 7.93148 25.5698 6.94756 26.6059 6.2553C27.6419 5.56305 28.8599 5.19356 30.1059 5.19356C31.7768 5.19356 33.3792 5.85731 34.5607 7.03879C35.7422 8.22027 36.4059 9.8227 36.4059 11.4936ZM18.7179 11.4936C18.7179 13.7467 19.3861 15.9492 20.6378 17.8226C21.8896 19.696 23.6688 21.1562 25.7504 22.0184C27.832 22.8806 30.1226 23.1062 32.3324 22.6667C34.5422 22.2271 36.5721 21.1421 38.1653 19.5489C39.7585 17.9557 40.8435 15.9259 41.2831 13.716C41.7226 11.5062 41.497 9.21565 40.6348 7.13403C39.7726 5.05242 38.3124 3.27323 36.439 2.02146C34.5656 0.769691 32.3631 0.101562 30.1099 0.101562C27.0888 0.101828 24.1914 1.30217 22.0552 3.43856C19.919 5.57494 18.7179 8.47239 18.7179 11.4936ZM40.2759 11.4936C40.2759 13.5044 39.6796 15.4702 38.5624 17.1421C37.4452 18.8141 35.8573 20.1173 33.9995 20.8867C32.1416 21.6562 30.0973 21.8575 28.1251 21.4651C26.1529 21.0728 24.3413 20.1043 22.9194 18.6824C21.4976 17.2604 20.5294 15.4487 20.1372 13.4764C19.745 11.5042 19.9465 9.45989 20.7162 7.60213C21.4858 5.74437 22.7891 4.15657 24.4612 3.03953C26.1333 1.92248 28.0991 1.32636 30.1099 1.32656C32.8064 1.32656 35.3924 2.39773 37.2991 4.30441C39.2058 6.21109 40.2759 8.79711 40.2759 11.4936ZM47.2589 12.1016H44.319C44.1565 12.1016 44.0007 12.037 43.8858 11.9222C43.771 11.8073 43.7064 11.6515 43.7064 11.4891C43.7064 11.3266 43.771 11.1708 43.8858 11.056C44.0007 10.9411 44.1565 10.8766 44.319 10.8766H47.2589C47.4214 10.8766 47.5772 10.9411 47.6921 11.056C47.8069 11.1708 47.8714 11.3266 47.8714 11.4891C47.8714 11.6515 47.8069 11.8073 47.6921 11.9222C47.5772 12.037 47.4214 12.1016 47.2589 12.1016ZM43.8999 8.67556C43.7856 8.56085 43.7214 8.40551 43.7214 8.24356C43.7214 8.08162 43.7856 7.92627 43.8999 7.81156L45.9759 5.72956C46.0913 5.61419 46.2478 5.54938 46.4109 5.54938C46.5741 5.54938 46.7306 5.61419 46.8459 5.72956C46.9613 5.84493 47.0261 6.00141 47.0261 6.16456C47.0261 6.32772 46.9613 6.48419 46.8459 6.59956L44.764 8.67556C44.649 8.78939 44.4937 8.85325 44.3319 8.85325C44.1702 8.85325 44.0149 8.78939 43.8999 8.67556ZM44.764 14.3106L46.8459 16.3866C46.9613 16.5019 47.0261 16.6584 47.0261 16.8216C47.0261 16.9847 46.9613 17.1412 46.8459 17.2566C46.7306 17.3719 46.5741 17.4367 46.4109 17.4367C46.2478 17.4367 46.0913 17.3719 45.9759 17.2566L43.8999 15.1736C43.8376 15.1182 43.7873 15.0506 43.752 14.975C43.7167 14.8995 43.6972 14.8175 43.6948 14.7341C43.6923 14.6507 43.7069 14.5678 43.7377 14.4902C43.7685 14.4127 43.8148 14.3423 43.8737 14.2834C43.9327 14.2244 44.0031 14.1781 44.0806 14.1473C44.1581 14.1165 44.2411 14.1019 44.3245 14.1044C44.4079 14.1068 44.4898 14.1263 44.5654 14.1616C44.641 14.1969 44.7085 14.2482 44.764 14.3106ZM16.4999 11.4936C16.4999 11.6559 16.4355 11.8115 16.3207 11.9263C16.2059 12.0411 16.0503 12.1056 15.8879 12.1056H12.9619C12.7995 12.1056 12.6437 12.041 12.5288 11.9262C12.414 11.8113 12.3494 11.6555 12.3494 11.4931C12.3494 11.3306 12.414 11.1748 12.5288 11.06C12.6437 10.9451 12.7995 10.8806 12.9619 10.8806H15.8999C16.0603 10.8837 16.2131 10.9497 16.3253 11.0644C16.4375 11.179 16.5002 11.3331 16.4999 11.4936ZM16.3219 8.67656C16.2058 8.79053 16.0496 8.85437 15.8869 8.85437C15.7243 8.85437 15.5681 8.79053 15.4519 8.67656L13.3719 6.60156C13.2566 6.48619 13.1918 6.32972 13.1918 6.16656C13.1918 6.00341 13.2566 5.84693 13.3719 5.73156C13.4873 5.61619 13.6438 5.55138 13.8069 5.55138C13.9701 5.55138 14.1266 5.61619 14.2419 5.73156L16.3179 7.81356C16.4323 7.92827 16.4965 8.08362 16.4965 8.24556C16.4965 8.40751 16.4323 8.56285 16.3179 8.67756L16.3219 8.67656ZM16.3219 14.3116C16.4363 14.4263 16.5005 14.5816 16.5005 14.7436C16.5005 14.9055 16.4363 15.0609 16.3219 15.1756L14.2459 17.2516C14.1306 17.3669 13.9741 17.4317 13.8109 17.4317C13.6478 17.4317 13.4913 17.3669 13.3759 17.2516C13.2606 17.1362 13.1958 16.9797 13.1958 16.8166C13.1958 16.6534 13.2606 16.4969 13.3759 16.3816L15.4479 14.3016C15.5053 14.2444 15.5733 14.1993 15.6482 14.1686C15.7231 14.138 15.8033 14.1225 15.8842 14.123C15.9651 14.1236 16.0451 14.1402 16.1196 14.1719C16.194 14.2035 16.2614 14.2497 16.3179 14.3076L16.3219 14.3116Z" fill="black" stroke="black" stroke-width="0.2"/>
</svg>
