<svg width="61" height="61" viewBox="0 0 61 61" fill="none" xmlns="http://www.w3.org/2000/svg">
<path d="M22.4642 39.0847V29.7187C22.4631 28.8207 22.1059 27.9599 21.471 27.3249C20.836 26.69 19.9751 26.3328 19.0772 26.3317C18.5738 26.3346 18.0775 26.4508 17.6252 26.6717V21.0087C17.6244 20.1104 17.2672 19.2491 16.632 18.6139C15.9968 17.9787 15.1355 17.6215 14.2372 17.6207C13.7338 17.6236 13.2375 17.7398 12.7852 17.9607V15.2007C12.7872 14.3769 12.4882 13.5807 11.9445 12.9617C11.4008 12.3428 10.6497 11.9438 9.83247 11.8396C9.01524 11.7355 8.18811 11.9334 7.50653 12.3962C6.82495 12.8589 6.33585 13.5547 6.13116 14.3527C5.54712 13.9806 4.87364 13.7726 4.18147 13.7506C3.4893 13.7287 2.80399 13.8935 2.19752 14.2278C1.59106 14.5622 1.08582 15.0537 0.734889 15.6507C0.383957 16.2477 0.200282 16.9282 0.203158 17.6207V34.0747C0.203147 34.2368 0.243713 34.3963 0.321158 34.5387L6.12816 45.1847C6.173 45.2657 6.22886 45.3401 6.29416 45.4057L13.8712 52.9827C14.4137 53.5285 14.7191 54.2662 14.7212 55.0357V59.2357C14.7212 59.3628 14.7462 59.4887 14.7948 59.6062C14.8435 59.7236 14.9148 59.8303 15.0047 59.9202C15.0946 60.0101 15.2013 60.0814 15.3187 60.13C15.4362 60.1787 15.562 60.2037 15.6892 60.2037H27.3032C27.4303 60.2037 27.5562 60.1787 27.6736 60.13C27.791 60.0814 27.8977 60.0101 27.9876 59.9202C28.0775 59.8303 28.1488 59.7236 28.1975 59.6062C28.2461 59.4887 28.2712 59.3628 28.2712 59.2357V47.2137C28.2725 45.9886 27.8077 44.8088 26.9712 43.9137L22.4642 39.0847ZM19.0762 28.2677C19.4611 28.2682 19.8301 28.4214 20.1023 28.6936C20.3745 28.9658 20.5276 29.3348 20.5282 29.7197V37.0137L17.6282 33.9027V29.7187C17.6289 29.3346 17.7817 28.9665 18.053 28.6946C18.3243 28.4228 18.6921 28.2693 19.0762 28.2677ZM14.2372 19.5567C14.6221 19.5572 14.9911 19.7104 15.2633 19.9826C15.5355 20.2548 15.6886 20.6238 15.6892 21.0087V31.8257L15.0352 31.1257C14.763 30.8352 14.4343 30.6035 14.0691 30.4449C13.704 30.2863 13.3102 30.2042 12.9122 30.2037H12.7852V21.0087C12.7857 20.6238 12.9388 20.2548 13.211 19.9826C13.4832 19.7104 13.8522 19.5572 14.2372 19.5567ZM7.94616 15.2007C7.93582 15.0039 7.96565 14.807 8.03385 14.6221C8.10205 14.4372 8.20719 14.2681 8.34285 14.1251C8.47851 13.9821 8.64186 13.8683 8.82295 13.7905C9.00403 13.7127 9.19906 13.6725 9.39616 13.6725C9.59325 13.6725 9.78828 13.7127 9.96937 13.7905C10.1505 13.8683 10.3138 13.9821 10.4495 14.1251C10.5851 14.2681 10.6903 14.4372 10.7585 14.6221C10.8267 14.807 10.8565 15.0039 10.8462 15.2007V30.9557C10.4073 31.3467 10.0976 31.8618 9.95816 32.4327L7.94616 29.8677V15.2007ZM26.3352 58.2707H16.6572V55.0357C16.6589 54.4 16.5346 53.7702 16.2914 53.1828C16.0482 52.5954 15.6909 52.0621 15.2402 51.6137L7.76116 44.1357L2.13916 33.8277V17.6207C2.1333 17.3628 2.17903 17.1064 2.27366 16.8664C2.36829 16.6265 2.50992 16.4079 2.69023 16.2234C2.87054 16.0389 3.08589 15.8924 3.32363 15.7923C3.56137 15.6923 3.81672 15.6407 4.07466 15.6407C4.3326 15.6407 4.58794 15.6923 4.82568 15.7923C5.06343 15.8924 5.27878 16.0389 5.45908 16.2234C5.63939 16.4079 5.78102 16.6265 5.87566 16.8664C5.97029 17.1064 6.01602 17.3628 6.01016 17.6207V30.2027C6.00969 30.4203 6.08262 30.6317 6.21716 30.8027L16.8632 44.3527L18.3842 43.1527L11.8162 34.7927V33.1067C11.8164 32.8501 11.9185 32.604 12.1 32.4225C12.2814 32.241 12.5275 32.139 12.7842 32.1387H12.9112C13.0438 32.139 13.1751 32.1664 13.2968 32.2192C13.4186 32.272 13.5282 32.3491 13.6192 32.4457L25.5552 45.2327C26.0571 45.7705 26.336 46.479 26.3352 47.2147V58.2707Z" fill="black" stroke="white" stroke-width="0.4"/>
<path d="M56.3406 13.7449C55.6119 13.7456 54.8985 13.9537 54.2836 14.3449C54.0789 13.5469 53.5898 12.8511 52.9083 12.3883C52.2267 11.9256 51.3995 11.7277 50.5823 11.8318C49.7651 11.936 49.014 12.335 48.4703 12.9539C47.9266 13.5729 47.6276 14.3691 47.6296 15.1929V17.9519C47.1773 17.731 46.681 17.6148 46.1776 17.6119C45.2795 17.6127 44.4184 17.9698 43.7832 18.6047C43.148 19.2397 42.7907 20.1008 42.7896 20.9989V26.6619C42.3373 26.441 41.841 26.3248 41.3376 26.3219C40.4395 26.323 39.5785 26.6803 38.9435 27.3155C38.3085 27.9506 37.9514 28.8118 37.9506 29.7099V39.0759L33.4406 43.9089C32.604 44.804 32.1393 45.9837 32.1406 47.2089V59.2339C32.1406 59.4906 32.2426 59.7368 32.4241 59.9184C32.6057 60.0999 32.8519 60.2019 33.1086 60.2019H44.7226C44.9794 60.2019 45.2256 60.0999 45.4071 59.9184C45.5886 59.7368 45.6906 59.4906 45.6906 59.2339V55.0339C45.6929 54.2644 45.9983 53.5268 46.5406 52.9809L54.1176 45.4039C54.1829 45.3383 54.2388 45.2639 54.2836 45.1829L60.0906 34.5329C60.1681 34.3905 60.2086 34.231 60.2086 34.0689V17.6159C60.2076 16.5901 59.7998 15.6066 59.0747 14.8809C58.3497 14.1553 57.3664 13.7468 56.3406 13.7449ZM49.5656 15.1969C49.5553 15.0001 49.5851 14.8032 49.6533 14.6183C49.7215 14.4334 49.8267 14.2643 49.9623 14.1213C50.098 13.9783 50.2613 13.8645 50.4424 13.7866C50.6235 13.7088 50.8185 13.6687 51.0156 13.6687C51.2127 13.6687 51.4078 13.7088 51.5888 13.7866C51.7699 13.8645 51.9333 13.9783 52.0689 14.1213C52.2046 14.2643 52.3097 14.4334 52.3779 14.6183C52.4461 14.8032 52.476 15.0001 52.4656 15.1969V29.8629L50.4506 32.4269C50.3111 31.856 50.0015 31.3409 49.5626 30.9499V15.1959L49.5656 15.1969ZM44.7266 21.0039C44.7163 20.8071 44.7461 20.6102 44.8143 20.4253C44.8825 20.2404 44.9877 20.0713 45.1233 19.9283C45.259 19.7853 45.4223 19.6715 45.6034 19.5936C45.7845 19.5158 45.9795 19.4757 46.1766 19.4757C46.3737 19.4757 46.5688 19.5158 46.7498 19.5936C46.9309 19.6715 47.0943 19.7853 47.2299 19.9283C47.3656 20.0713 47.4707 20.2404 47.5389 20.4253C47.6071 20.6102 47.637 20.8071 47.6266 21.0039V30.1989H47.4996C47.1015 30.1994 46.7078 30.2815 46.3427 30.4401C45.9775 30.5986 45.6488 30.8304 45.3766 31.1209L44.7226 31.8209V21.0039H44.7266ZM39.8876 29.7149C39.8773 29.5181 39.9071 29.3212 39.9753 29.1363C40.0435 28.9514 40.1487 28.7823 40.2843 28.6393C40.42 28.4963 40.5833 28.3825 40.7644 28.3046C40.9455 28.2268 41.1405 28.1867 41.3376 28.1867C41.5347 28.1867 41.7298 28.2268 41.9108 28.3046C42.0919 28.3825 42.2553 28.4963 42.3909 28.6393C42.5266 28.7823 42.6317 28.9514 42.6999 29.1363C42.7681 29.3212 42.798 29.5181 42.7876 29.7149V33.8959L39.8876 37.0069V29.7149ZM58.2766 33.8239L52.6506 44.1299L45.1716 51.6089C44.721 52.0573 44.3638 52.5907 44.1206 53.178C43.8773 53.7654 43.753 54.3952 43.7546 55.0309V58.2669H34.0766V47.2089C34.0757 46.4733 34.355 45.765 34.8576 45.2279L46.7926 32.4419C46.8831 32.3449 46.9925 32.2674 47.1141 32.2145C47.2358 32.1615 47.367 32.1341 47.4996 32.1339H47.6266C47.8833 32.1342 48.1293 32.2362 48.3108 32.4177C48.4923 32.5992 48.5944 32.8452 48.5946 33.1019V34.7909L42.0266 43.1499L43.5476 44.3499L54.1936 30.7999C54.3285 30.6291 54.4015 30.4176 54.4006 30.1999V17.6159C54.3948 17.358 54.4405 17.1016 54.5351 16.8616C54.6298 16.6217 54.7714 16.403 54.9517 16.2186C55.132 16.0341 55.3474 15.8876 55.5851 15.7875C55.8228 15.6874 56.0782 15.6359 56.3361 15.6359C56.5941 15.6359 56.8494 15.6874 57.0872 15.7875C57.3249 15.8876 57.5402 16.0341 57.7206 16.2186C57.9009 16.403 58.0425 16.6217 58.1371 16.8616C58.2318 17.1016 58.2775 17.358 58.2716 17.6159L58.2766 33.8239Z" fill="black" stroke="white" stroke-width="0.4"/>
<path d="M44.7075 8.17075C44.6337 6.89368 44.2725 5.64976 43.6507 4.53186C43.0289 3.41395 42.1626 2.45095 41.1164 1.71475C39.6107 0.656877 37.7966 0.128259 35.9583 0.211679C34.12 0.295099 32.3612 0.985847 30.9575 2.17575L30.2064 2.81275L29.4544 2.17575C28.0507 0.985847 26.2919 0.295099 24.4536 0.211679C22.6153 0.128259 20.8012 0.656877 19.2955 1.71475C18.2522 2.4572 17.3882 3.42356 16.7668 4.54307C16.1453 5.66258 15.782 6.90691 15.7036 8.18495C15.6252 9.46299 15.8336 10.7424 16.3135 11.9295C16.7935 13.1166 17.5328 14.1813 18.4774 15.0458L29.5554 25.1208C29.7336 25.2819 29.9652 25.3711 30.2055 25.3711C30.4457 25.3711 30.6773 25.2819 30.8554 25.1208L41.9354 15.0468C42.8854 14.1833 43.6282 13.1165 44.1081 11.9259C44.5881 10.7353 44.793 9.45163 44.7075 8.17075ZM30.2074 23.0977L19.7814 13.6168C19.0509 12.9474 18.4792 12.1233 18.108 11.2046C17.7368 10.286 17.5755 9.29599 17.6358 8.30702C17.6962 7.31806 17.9768 6.35506 18.457 5.4884C18.9372 4.62174 19.6049 3.8733 20.4114 3.29775C21.5663 2.48622 22.9578 2.08072 24.3679 2.14478C25.7779 2.20884 27.1269 2.73884 28.2034 3.65175L29.5805 4.81875C29.7554 4.96639 29.977 5.04737 30.2059 5.04737C30.4349 5.04737 30.6565 4.96639 30.8314 4.81875L32.2094 3.65075C33.2863 2.73791 34.6355 2.20805 36.0457 2.14417C37.4559 2.08029 38.8475 2.486 40.0024 3.29775C40.8084 3.87334 41.4757 4.62164 41.9556 5.48803C42.4355 6.35441 42.7158 7.31703 42.7762 8.30559C42.8366 9.29416 42.6754 10.2837 42.3046 11.2021C41.9337 12.1204 41.3624 12.9444 40.6325 13.6138L30.2074 23.0977Z" fill="black" stroke="white" stroke-width="0.4"/>
</svg>
