<svg xmlns="http://www.w3.org/2000/svg" width="93.485" height="93.485" viewBox="0 0 93.485 93.485"><g transform="translate(622.661 4759.865)"><g transform="translate(-622.661 -4759.865)" fill="#fff" stroke="#8d7249" stroke-width="1"><ellipse cx="46.742" cy="46.743" rx="46.742" ry="46.743" stroke="none"/><ellipse cx="46.742" cy="46.743" rx="46.242" ry="46.243" fill="none"/></g><g transform="translate(-606.922 -4744.13)"><path d="M23.261,40.271V30.905a3.391,3.391,0,0,0-3.387-3.387,3.353,3.353,0,0,0-1.452.34V22.195a3.391,3.391,0,0,0-3.388-3.388,3.353,3.353,0,0,0-1.452.34V16.387a3.38,3.38,0,0,0-6.654-.848A3.856,3.856,0,0,0,1,18.807V35.261a.971.971,0,0,0,.118.464L6.925,46.371a1,1,0,0,0,.166.221l7.577,7.577a2.923,2.923,0,0,1,.85,2.053v4.2a.968.968,0,0,0,.968.968H28.1a.968.968,0,0,0,.968-.968V48.4a4.825,4.825,0,0,0-1.3-3.3ZM19.873,29.454a1.454,1.454,0,0,1,1.452,1.452V38.2l-2.9-3.111V30.905A1.454,1.454,0,0,1,19.873,29.454Zm-4.839-8.711a1.454,1.454,0,0,1,1.452,1.452V33.012l-.654-.7a2.914,2.914,0,0,0-2.123-.922h-.127V22.195a1.454,1.454,0,0,1,1.452-1.452ZM8.743,16.387a1.452,1.452,0,1,1,2.9,0V32.142a2.9,2.9,0,0,0-.888,1.477L8.743,31.054V16.387Zm18.389,43.07H17.454V56.222A4.808,4.808,0,0,0,16.037,52.8L8.558,45.322,2.936,35.014V18.807a1.936,1.936,0,1,1,3.871,0V31.389a.967.967,0,0,0,.207.6l10.646,13.55,1.521-1.2-6.568-8.36V34.293a.969.969,0,0,1,.968-.968h.127a.975.975,0,0,1,.708.307L26.352,46.419a2.9,2.9,0,0,1,.78,1.982Z" transform="translate(0 -0.386)" stroke="#fff" stroke-width="0.4"/><path d="M58.2,14.936a3.839,3.839,0,0,0-2.057.6,3.38,3.38,0,0,0-6.654.848v2.759a3.353,3.353,0,0,0-1.452-.34,3.391,3.391,0,0,0-3.388,3.387v5.663a3.353,3.353,0,0,0-1.452-.34,3.391,3.391,0,0,0-3.387,3.388v9.366L35.3,45.1A4.825,4.825,0,0,0,34,48.4V60.425a.968.968,0,0,0,.968.968H46.582a.968.968,0,0,0,.968-.968v-4.2a2.925,2.925,0,0,1,.85-2.053l7.577-7.577a1,1,0,0,0,.166-.221L61.95,35.724a.971.971,0,0,0,.118-.464V18.807A3.875,3.875,0,0,0,58.2,14.936Zm-6.775,1.452a1.452,1.452,0,1,1,2.9,0V31.054L52.31,33.618a2.9,2.9,0,0,0-.888-1.477V16.387Zm-4.839,5.807a1.452,1.452,0,1,1,2.9,0v9.195h-.127a2.914,2.914,0,0,0-2.123.922l-.654.7V22.195Zm-4.839,8.711a1.452,1.452,0,1,1,2.9,0v4.181l-2.9,3.111Zm18.389,4.109L54.51,45.321,47.031,52.8a4.81,4.81,0,0,0-1.417,3.422v3.236H35.936V48.4a2.894,2.894,0,0,1,.781-1.981L48.652,33.633a.968.968,0,0,1,.707-.308h.127a.969.969,0,0,1,.968.968v1.689l-6.568,8.359,1.521,1.2,10.646-13.55a.962.962,0,0,0,.207-.6V18.807a1.936,1.936,0,1,1,3.871,0Z" transform="translate(-1.061 -0.386)" stroke="#fff" stroke-width="0.4"/><path d="M46.018,8.973a8.493,8.493,0,0,0-3.591-6.456,8.317,8.317,0,0,0-10.159.461l-.751.637-.752-.637a8.317,8.317,0,0,0-10.159-.461,8.587,8.587,0,0,0-.818,13.331L30.866,25.923a.969.969,0,0,0,1.3,0L43.246,15.849a8.524,8.524,0,0,0,2.772-6.876ZM31.518,23.9,21.092,14.419A6.652,6.652,0,0,1,21.722,4.1a6.378,6.378,0,0,1,7.792.354l1.377,1.167a.97.97,0,0,0,1.251,0l1.378-1.168A6.379,6.379,0,0,1,41.313,4.1a6.652,6.652,0,0,1,.63,10.316Z" transform="translate(-0.514)" stroke="#fff" stroke-width="0.4"/></g></g></svg>