<svg width="40" height="49" viewBox="0 0 40 49" fill="none" xmlns="http://www.w3.org/2000/svg">
<path d="M36.243 39.4058C36.002 38.5928 35.263 38.1138 34.048 37.9798C33.8371 37.9568 33.6251 37.9451 33.413 37.9448C32.3852 37.9399 31.3743 38.2058 30.482 38.7158C29.2796 39.4839 27.9911 40.1082 26.643 40.5758C26.8438 40.3253 27.0222 40.0576 27.176 39.7758C27.2022 39.7266 27.2253 39.6759 27.245 39.6238C27.3787 39.329 27.4374 39.0058 27.4159 38.6828C27.3945 38.3599 27.2935 38.0473 27.122 37.7728C26.9034 37.478 26.6159 37.2414 26.2847 37.0834C25.9535 36.9255 25.5886 36.8511 25.222 36.8668H25.022H18.897C17.084 34.6828 13.746 33.5868 8.725 33.5208H8.248H8.243C8.16846 33.5217 8.09415 33.5294 8.021 33.5438V32.9638C8.021 32.6407 7.89268 32.3309 7.66426 32.1025C7.43584 31.8741 7.12603 31.7458 6.803 31.7458H1.218C0.894967 31.7458 0.585164 31.8741 0.356745 32.1025C0.128325 32.3309 0 32.6407 0 32.9638V46.3638C0 46.6868 0.128325 46.9966 0.356745 47.225C0.585164 47.4535 0.894967 47.5818 1.218 47.5818H6.8C7.12303 47.5818 7.43284 47.4535 7.66126 47.225C7.88968 46.9966 8.018 46.6868 8.018 46.3638V45.9908C14.085 47.5048 18.541 48.2408 21.637 48.2408C26.437 48.2408 34.294 42.6698 34.625 42.4328L34.689 42.3828C35.225 41.9278 36.643 40.7608 36.243 39.4058ZM6.8 46.3458H1.217V32.9458H6.799L6.8 46.3458ZM33.918 41.4238C33.918 41.4238 26.102 47.0058 21.637 47.0058C18.6597 47.0058 14.193 46.2618 8.237 44.7738V34.7258H8.706C13.6487 34.7924 16.8417 35.9081 18.285 38.0728H24.985H25.159C26.0497 38.1141 26.3637 38.4848 26.101 39.1848C25.193 40.8608 23.293 41.6981 20.401 41.6968C19.3201 41.6873 18.2416 41.5943 17.175 41.4188V42.5348L17.694 42.6028C18.6475 42.7209 19.6072 42.781 20.568 42.7828C24.3095 42.8168 27.9801 41.7612 31.132 39.7448C31.8321 39.3573 32.6198 39.1556 33.42 39.1588C33.587 39.159 33.7539 39.1681 33.92 39.1858C35.399 39.3538 35.581 40.0598 33.918 41.4238ZM25.316 26.2958V31.5358H24.267V26.2958H25.316ZM14.543 18.1688L14.868 19.1688L9.881 20.7888L9.557 19.7888L14.543 18.1688ZM35.018 18.1688L40.004 19.7888L39.68 20.7888L34.693 19.1688L35.018 18.1688ZM34.301 1.31878L35.15 1.93578L32.068 6.17678L31.219 5.55978L34.301 1.31878ZM15.29 1.31878L18.372 5.55978L17.523 6.17678L14.437 1.93578L15.29 1.31878ZM16.731 27.3768C16.5248 27.3765 16.3226 27.3197 16.1463 27.2128C15.9701 27.1058 15.8264 26.9526 15.731 26.7698C15.6157 26.5489 15.5756 26.2965 15.617 26.0508L17.075 17.5508L10.9 11.5308C10.6857 11.3211 10.5631 11.035 10.5592 10.7351C10.5552 10.4353 10.6702 10.1461 10.879 9.93078C11.0503 9.75263 11.275 9.63504 11.519 9.59578L20.054 8.35578L23.872 0.621777C24.0108 0.358034 24.2456 0.1576 24.5278 0.0617844C24.81 -0.034031 25.1183 -0.0179272 25.389 0.106777C25.6123 0.217574 25.7932 0.39846 25.904 0.621777L29.722 8.35578L38.255 9.59578C38.4647 9.62609 38.6617 9.71467 38.8236 9.85143C38.9855 9.9882 39.1057 10.1676 39.1706 10.3694C39.2355 10.5711 39.2425 10.787 39.1908 10.9925C39.1391 11.198 39.0307 11.3848 38.878 11.5318L32.707 17.5478L34.164 26.0478C34.2148 26.3439 34.146 26.648 33.9728 26.8934C33.7995 27.1388 33.536 27.3055 33.24 27.3568C32.9946 27.3999 32.7419 27.3598 32.522 27.2428L24.886 23.2298L17.253 27.2418C17.0915 27.3294 16.9108 27.3758 16.727 27.3768H16.731ZM11.869 10.7768L18.143 16.9028C18.2135 16.9719 18.2662 17.0569 18.2966 17.1508C18.3271 17.2447 18.3344 17.3445 18.318 17.4418L16.843 26.0888L24.608 22.0068C24.6953 21.961 24.7924 21.937 24.891 21.937C24.9896 21.937 25.0867 21.961 25.174 22.0068L32.939 26.0878L31.457 17.4428C31.4403 17.3455 31.4475 17.2456 31.478 17.1517C31.5085 17.0578 31.5613 16.9727 31.632 16.9038L37.913 10.7798L29.233 9.51878C29.1352 9.50466 29.0423 9.46698 28.9624 9.40896C28.8824 9.35095 28.8178 9.27435 28.774 9.18578L24.891 1.31878L21.008 9.18578C20.9645 9.27433 20.9 9.35093 20.8202 9.40896C20.7404 9.46698 20.6477 9.50468 20.55 9.51878L11.869 10.7768Z" fill="white"/>
</svg>
