<svg xmlns="http://www.w3.org/2000/svg" width="80" height="80" viewBox="0 0 80 80"><g transform="translate(-255.999 4909.257)"><circle cx="40" cy="40" r="40" transform="translate(255.999 -4909.257)" fill="#8d7249"/><path d="M53.4,49.81c-.241-.813-.98-1.292-2.195-1.426a5.956,5.956,0,0,0-.635-.035,5.851,5.851,0,0,0-2.931.771A18.224,18.224,0,0,1,43.8,50.98a5.469,5.469,0,0,0,.533-.8,1.31,1.31,0,0,0,.069-.152,1.963,1.963,0,0,0-.123-1.851,2.246,2.246,0,0,0-1.9-.906l-.2,0H36.054c-1.813-2.184-5.151-3.28-10.172-3.346l-.477,0H25.4a1.228,1.228,0,0,0-.222.023v-.58a1.218,1.218,0,0,0-1.218-1.218H18.375a1.218,1.218,0,0,0-1.218,1.218v13.4a1.218,1.218,0,0,0,1.218,1.218h5.582a1.218,1.218,0,0,0,1.218-1.218v-.373c6.067,1.514,10.523,2.25,13.619,2.25,4.8,0,12.657-5.571,12.988-5.808l.064-.05C52.382,52.332,53.8,51.165,53.4,49.81ZM23.957,56.75H18.374v-13.4h5.582Zm27.118-4.922S43.259,57.41,38.794,57.41q-4.466,0-13.4-2.232V45.13l.469,0q7.414.1,9.579,3.347h6.7l.174,0q1.336.062.942,1.112-1.362,2.514-5.7,2.512a21.006,21.006,0,0,1-3.226-.278v1.116l.519.068a23.718,23.718,0,0,0,2.874.18,19.278,19.278,0,0,0,10.564-3.038,4.687,4.687,0,0,1,2.288-.586,4.785,4.785,0,0,1,.5.027C52.556,49.758,52.738,50.465,51.075,51.829ZM42.473,36.7V41.94H41.424V36.7ZM31.7,28.573l.325,1-4.987,1.62-.324-1Zm20.475,0,4.986,1.62-.324,1-4.987-1.62Zm-.717-16.85.849.617-3.082,4.241-.849-.617Zm-19.011,0,3.082,4.241-.849.617L31.594,12.34Zm1.441,26.058h0a1.13,1.13,0,0,1-1-.607,1.143,1.143,0,0,1-.114-.719l1.458-8.5-6.175-6.02a1.134,1.134,0,0,1-.021-1.6A1.139,1.139,0,0,1,28.676,20l8.535-1.24,3.818-7.734a1.164,1.164,0,0,1,1.517-.515,1.141,1.141,0,0,1,.515.515l3.818,7.734L55.412,20a1.132,1.132,0,0,1,.623,1.936l-6.171,6.016,1.457,8.5a1.134,1.134,0,0,1-.924,1.309,1.117,1.117,0,0,1-.718-.114l-7.636-4.013-7.633,4.012A1.115,1.115,0,0,1,33.884,37.781Zm-4.862-16.6L35.3,27.307a.612.612,0,0,1,.175.539L34,36.493l7.765-4.082a.609.609,0,0,1,.566,0l7.765,4.081-1.482-8.645a.609.609,0,0,1,.175-.539l6.281-6.124-8.68-1.261a.609.609,0,0,1-.459-.333l-3.883-7.867-3.883,7.867a.607.607,0,0,1-.458.333Z" transform="translate(258.843 -4903.773)" fill="#fff"/></g></svg>