<svg xmlns="http://www.w3.org/2000/svg" width="53.734" height="35.838" viewBox="0 0 53.734 35.838">
  <path id="Icon_ionic-ios-arrow-round-back" data-name="Icon ionic-ios-arrow-round-back" d="M27.349,11.938a2.439,2.439,0,0,1,.019,3.434L16.038,26.739h43.17a2.426,2.426,0,0,1,0,4.853H16.038L27.386,42.958a2.456,2.456,0,0,1-.019,3.434,2.416,2.416,0,0,1-3.416-.019L8.573,30.882h0a2.725,2.725,0,0,1-.5-.765,2.316,2.316,0,0,1-.187-.933,2.433,2.433,0,0,1,.691-1.7L23.952,11.994A2.378,2.378,0,0,1,27.349,11.938Z" transform="translate(-7.882 -11.252)"/>
</svg>
