<svg xmlns="http://www.w3.org/2000/svg" xmlns:xlink="http://www.w3.org/1999/xlink" width="30" height="26.933" viewBox="0 0 30 26.933"><defs><clipPath id="a"><rect width="30" height="26.933" fill="#b19975" stroke="#8d7249" stroke-width="0.3"/></clipPath></defs><g clip-path="url(#a)"><path d="M30,24.665V4.264a2.253,2.253,0,0,0-2.25-2.25h-.675V.483a.483.483,0,1,0-.966,0V2.014H23.964V.483a.483.483,0,1,0-.965,0V2.014H7V.483a.483.483,0,0,0-.966,0V2.014H3.891V.483a.483.483,0,1,0-.966,0V2.014H2.25A2.253,2.253,0,0,0,0,4.264v20.4a2.271,2.271,0,0,0,2.269,2.268H27.732A2.271,2.271,0,0,0,30,24.665M.966,4.264A1.287,1.287,0,0,1,2.25,2.979h.675V4.008a.483.483,0,0,0,.966,0V2.979H6.036V4.008a.483.483,0,0,0,.966,0V2.979H23V4.008a.483.483,0,0,0,.965,0V2.979h2.145V4.008a.483.483,0,0,0,.966,0V2.979h.675a1.287,1.287,0,0,1,1.285,1.285V7.008H.966Zm0,20.4V7.973H29.035V24.665a1.3,1.3,0,0,1-1.3,1.3H2.269a1.3,1.3,0,0,1-1.3-1.3" fill="#b19975" stroke="#8d7249" stroke-width="0.3"/><path d="M11.682,25.1H9.6a1.788,1.788,0,0,0-1.786,1.786v2.079A1.788,1.788,0,0,0,9.6,30.749h2.079a1.788,1.788,0,0,0,1.786-1.786V26.884A1.788,1.788,0,0,0,11.682,25.1m.821,3.865a.822.822,0,0,1-.821.821H9.6a.822.822,0,0,1-.821-.821V26.884a.821.821,0,0,1,.821-.82h2.079a.821.821,0,0,1,.821.82Z" transform="translate(-4.55 -14.608)" fill="#b19975" stroke="#8d7249" stroke-width="0.3"/><path d="M33.252,25.1H31.173a1.788,1.788,0,0,0-1.786,1.786v2.079a1.788,1.788,0,0,0,1.786,1.786h2.079a1.788,1.788,0,0,0,1.786-1.786V26.884A1.788,1.788,0,0,0,33.252,25.1m.821,3.865a.822.822,0,0,1-.821.821H31.173a.822.822,0,0,1-.821-.821V26.884a.821.821,0,0,1,.821-.82h2.079a.821.821,0,0,1,.821.82Z" transform="translate(-17.104 -14.608)" fill="#b19975" stroke="#8d7249" stroke-width="0.3"/><path d="M54.821,25.1H52.742a1.788,1.788,0,0,0-1.786,1.786v2.079a1.788,1.788,0,0,0,1.786,1.786h2.079a1.788,1.788,0,0,0,1.787-1.786V26.884A1.788,1.788,0,0,0,54.821,25.1m.821,3.865a.822.822,0,0,1-.821.821H52.742a.822.822,0,0,1-.821-.821V26.884a.821.821,0,0,1,.821-.82h2.079a.821.821,0,0,1,.821.82Z" transform="translate(-29.658 -14.608)" fill="#b19975" stroke="#8d7249" stroke-width="0.3"/><path d="M11.682,43.256H9.6a1.788,1.788,0,0,0-1.786,1.786v2.079A1.788,1.788,0,0,0,9.6,48.907h2.079a1.788,1.788,0,0,0,1.786-1.786V45.042a1.788,1.788,0,0,0-1.786-1.786m.821,3.865a.822.822,0,0,1-.821.821H9.6a.822.822,0,0,1-.821-.821V45.042a.821.821,0,0,1,.821-.82h2.079a.821.821,0,0,1,.821.82Z" transform="translate(-4.55 -25.176)" fill="#b19975" stroke="#8d7249" stroke-width="0.3"/><path d="M33.252,43.256H31.173a1.788,1.788,0,0,0-1.786,1.786v2.079a1.788,1.788,0,0,0,1.786,1.786h2.079a1.788,1.788,0,0,0,1.786-1.786V45.042a1.788,1.788,0,0,0-1.786-1.786m.821,3.865a.822.822,0,0,1-.821.821H31.173a.822.822,0,0,1-.821-.821V45.042a.821.821,0,0,1,.821-.82h2.079a.821.821,0,0,1,.821.82Z" transform="translate(-17.104 -25.176)" fill="#b19975" stroke="#8d7249" stroke-width="0.3"/><path d="M54.821,43.256H52.742a1.788,1.788,0,0,0-1.786,1.786v2.079a1.788,1.788,0,0,0,1.786,1.786h2.079a1.788,1.788,0,0,0,1.787-1.786V45.042a1.788,1.788,0,0,0-1.787-1.786m.821,3.865a.822.822,0,0,1-.821.821H52.742a.822.822,0,0,1-.821-.821V45.042a.821.821,0,0,1,.821-.82h2.079a.821.821,0,0,1,.821.82Z" transform="translate(-29.658 -25.176)" fill="#b19975" stroke="#8d7249" stroke-width="0.3"/></g></svg>