<svg xmlns="http://www.w3.org/2000/svg" width="38.859" height="38.859" viewBox="0 0 38.859 38.859">
  <g id="Images" transform="translate(1.5 1.5)">
    <path id="Path_59091" data-name="Path 59091" d="M8.415,4.5H35.823a3.915,3.915,0,0,1,3.915,3.915V35.823a3.915,3.915,0,0,1-3.915,3.915H8.415A3.915,3.915,0,0,1,4.5,35.823V8.415A3.915,3.915,0,0,1,8.415,4.5Z" transform="translate(-4.5 -4.5)" fill="none" stroke="#fff" stroke-linecap="round" stroke-linejoin="round" stroke-width="3"/>
    <path id="Path_59092" data-name="Path 59092" d="M16.373,13.437A2.937,2.937,0,1,1,13.437,10.5,2.937,2.937,0,0,1,16.373,13.437Z" transform="translate(-2.669 -2.669)" fill="none" stroke="#fff" stroke-linecap="round" stroke-linejoin="round" stroke-width="3"/>
    <path id="Path_59093" data-name="Path 59093" d="M38.823,24.788,29.034,15,7.5,36.534" transform="translate(-3.585 -1.296)" fill="none" stroke="#fff" stroke-linecap="round" stroke-linejoin="round" stroke-width="3"/>
  </g>
</svg>
