<svg xmlns="http://www.w3.org/2000/svg" width="117.575" height="95.577" viewBox="0 0 117.575 95.577"><path d="M22.307-237.265Q7.515-237.265-.07-249.4q-6.448-10.24-6.448-25.032a62.152,62.152,0,0,1,9.671-34.135q9.671-15.171,29.394-24.273l3.413,6.827a51.248,51.248,0,0,0-20.291,15.55q-8.534,10.62-8.534,21.619a25.215,25.215,0,0,0,1.138,7.965,21.609,21.609,0,0,1,14.033-4.931,24.161,24.161,0,0,1,17.257,6.637q7.017,6.637,7.017,17.636a23.456,23.456,0,0,1-7.017,17.257A23.456,23.456,0,0,1,22.307-237.265Zm-64.476,0q-14.792,0-22.377-12.137-6.448-10.24-6.448-25.032a62.152,62.152,0,0,1,9.671-34.135q9.671-15.171,29.394-24.273l3.413,6.827a51.248,51.248,0,0,0-20.291,15.55q-8.534,10.62-8.534,21.619a25.214,25.214,0,0,0,1.138,7.965,21.609,21.609,0,0,1,14.033-4.931,24.161,24.161,0,0,1,17.257,6.637q7.017,6.637,7.017,17.636a23.456,23.456,0,0,1-7.017,17.257A23.456,23.456,0,0,1-42.169-237.265Z" transform="translate(70.994 332.842)" fill="#8d7249"/></svg>