<svg xmlns="http://www.w3.org/2000/svg" width="117.575" height="95.576" viewBox="0 0 117.575 95.576"><path d="M-46.721-332.842q14.792,0,22.377,12.137,6.448,10.24,6.448,25.032a62.151,62.151,0,0,1-9.671,34.134q-9.671,15.171-29.394,24.273l-3.413-6.827a51.248,51.248,0,0,0,20.291-15.55q8.534-10.619,8.534-21.618a25.214,25.214,0,0,0-1.138-7.965A21.609,21.609,0,0,1-46.721-284.3a24.162,24.162,0,0,1-17.257-6.637q-7.017-6.637-7.017-17.636a23.456,23.456,0,0,1,7.017-17.257A23.456,23.456,0,0,1-46.721-332.842Zm64.476,0q14.792,0,22.377,12.137,6.448,10.24,6.448,25.032a62.151,62.151,0,0,1-9.671,34.134q-9.671,15.171-29.394,24.273L4.1-244.093a51.249,51.249,0,0,0,20.291-15.55q8.534-10.619,8.534-21.618a25.214,25.214,0,0,0-1.138-7.965A21.609,21.609,0,0,1,17.756-284.3,24.162,24.162,0,0,1,.5-290.933q-7.017-6.637-7.017-17.636A23.456,23.456,0,0,1,.5-325.826,23.456,23.456,0,0,1,17.756-332.842Z" transform="translate(70.994 332.842)" fill="#8d7249"/></svg>