<svg xmlns="http://www.w3.org/2000/svg" width="133.97" height="170.509" viewBox="0 0 133.97 170.509"><g transform="translate(9056.646 -7881.59)"><path d="M1414.99,599A67.06,67.06,0,0,0,1348,665.986a66.35,66.35,0,0,0,13.49,40.192s1.83,2.405,2.13,2.753l51.37,60.578,51.39-60.609c.26-.323,2.1-2.722,2.1-2.722v-.02a66.294,66.294,0,0,0,13.49-40.172A67.064,67.064,0,0,0,1414.99,599Z" transform="translate(-10404.646 7282.59)" fill="#8d7249"/><path d="M1416.02,717.995c30.6,0,55.41-23.921,55.41-53.43s-24.81-53.43-55.41-53.43-55.41,23.921-55.41,53.43S1385.42,717.995,1416.02,717.995Z" transform="translate(-10404.646 7282.59)" fill="#fff"/><path d="M1387.41,659.026c24.84,15.7,49.24,26.152,76.39,17.568l.62-.671c-25.93,6.26-45.17-1.95-70.89-18.026,15.6-5.925,29.23-9.023,43.66-12.549h-7.52c-12.72,3.526-25.69,7.473-38.42,11.2l-1-.588c4.16-4.273,7.27-9.171,9.96-9.171h5.99l1.33-1.437h-19.48l-1.32,1.427h4.22c.75,0,1.46.4,1.02.924a291.055,291.055,0,0,1-21.96,23.381h6.26S1383.54,662.786,1387.41,659.026Z" transform="translate(-10404.646 7282.59)" fill="#8d7249"/></g></svg>