<svg xmlns="http://www.w3.org/2000/svg" width="12.844" height="26.605" viewBox="0 0 12.844 26.605"><g transform="translate(-23.795)"><path d="M38.3,6.267a3.133,3.133,0,1,0-3.133-3.133A3.137,3.137,0,0,0,38.3,6.267Z" transform="translate(-8.085)" fill="#ededed"/><path d="M36.6,32.829,34.06,24.965a1.139,1.139,0,0,0-1.031-.751H27.4a1.139,1.139,0,0,0-1.031.751l-2.538,7.865a.685.685,0,0,0,.676.928h.651a1.139,1.139,0,0,0,1.031-.751l.723-2.241V42.372a1.447,1.447,0,0,0,1.446,1.446h.1a1.447,1.447,0,0,0,1.446-1.446V34.805h.615v7.566a1.447,1.447,0,0,0,1.446,1.446h.1a1.447,1.447,0,0,0,1.446-1.446V30.765l.723,2.242a1.139,1.139,0,0,0,1.031.751h.651a.684.684,0,0,0,.676-.928Z" transform="translate(0 -17.212)" fill="#ededed"/></g></svg>