<svg xmlns="http://www.w3.org/2000/svg" width="111.136" height="91.204" viewBox="0 0 111.136 91.204"><path d="M-35.636-210.8q-10.268-6.946-15.1-13.439t-4.832-15.855a58.554,58.554,0,0,1,3.775-19.177,127.4,127.4,0,0,1,10.419-22.046A108.8,108.8,0,0,1-25.67-302l5.134,3.624q-7.248,11.174-10.721,17.667a27.588,27.588,0,0,0-3.473,13.137q0,3.02,3.02,7.1a45.015,45.015,0,0,0,9.664,8.909q11.476,8.154,11.476,15.1,0,3.624-3.473,8.456a56.768,56.768,0,0,1-8.607,9.362A87.11,87.11,0,0,1-32.918-210.8Zm66.44,0q-10.57-6.946-15.251-13.439T10.872-240.09a58.554,58.554,0,0,1,3.775-19.177,127.4,127.4,0,0,1,10.419-22.046A108.8,108.8,0,0,1,40.77-302l5.134,3.624a183.462,183.462,0,0,0-10.872,17.667,28.573,28.573,0,0,0-3.322,13.137q0,3.02,3.02,7.1a45.015,45.015,0,0,0,9.664,8.909q11.174,8.154,11.174,15.1,0,3.624-3.473,8.456a60.255,60.255,0,0,1-8.456,9.362A78.415,78.415,0,0,1,33.522-210.8Z" transform="translate(55.568 302)" fill="#8d7249"/></svg>