<svg xmlns="http://www.w3.org/2000/svg" width="210.098" height="38.692" viewBox="0 0 210.098 38.692"><path d="M315.244,38.756h0a97.831,97.831,0,0,1-19.476-1.85,85.677,85.677,0,0,1-15.919-4.834c-9.665-3.979-17.689-9.244-25.449-14.336C241.221,9.091,228.776.925,210.081.064h210.1c-23.29.962-35.094,9.55-47.591,18.642-6.576,4.784-13.376,9.732-22.008,13.473a74.389,74.389,0,0,1-14.607,4.6,99.623,99.623,0,0,1-18.84,1.965C316.49,38.751,315.872,38.756,315.244,38.756Z" transform="translate(-210.081 -0.064)"/></svg>