<svg id="volume-high" xmlns="http://www.w3.org/2000/svg" width="30.544" height="24" viewBox="0 0 30.544 24">
  <path id="Path_58759" data-name="Path 58759" d="M16.313,29.25a1.679,1.679,0,0,1-1-.329.581.581,0,0,1-.046-.036l-6.425-5.26h-4.9A1.688,1.688,0,0,1,2.25,21.938V14.063a1.688,1.688,0,0,1,1.688-1.688h4.9l6.424-5.26a.582.582,0,0,1,.046-.036A1.688,1.688,0,0,1,18,8.438V27.563a1.688,1.688,0,0,1-1.687,1.688ZM8.847,23.625ZM8.828,12.385ZM22.5,23.625a1.125,1.125,0,0,1-1-1.631A8.867,8.867,0,0,0,22.5,18a8.61,8.61,0,0,0-1-3.989,1.125,1.125,0,1,1,2-1.022A10.816,10.816,0,0,1,24.75,18a11.141,11.141,0,0,1-1.245,5.006A1.125,1.125,0,0,1,22.5,23.625Z" transform="translate(-2.25 -5.624)" fill="#fff"/>
  <path id="Path_58760" data-name="Path 58760" d="M25.875,26.249a1.135,1.135,0,0,1-.975-.539,1.039,1.039,0,0,1,0-1.078A12.329,12.329,0,0,0,27,17.625a12.138,12.138,0,0,0-2.1-7,1.054,1.054,0,0,1,.4-1.474,1.152,1.152,0,0,1,1.539.388,14.169,14.169,0,0,1,2.4,8.09,14.379,14.379,0,0,1-2.4,8.085A1.135,1.135,0,0,1,25.875,26.249Z" transform="translate(-3.206 -5.624)" fill="#fff"/>
  <path id="Path_58761" data-name="Path 58761" d="M29.25,29.624a1.131,1.131,0,0,1-.989-.572,1.063,1.063,0,0,1,.047-1.115A16.854,16.854,0,0,0,31.5,17.624,17.187,17.187,0,0,0,28.3,7.3,1.072,1.072,0,0,1,28.645,5.8a1.147,1.147,0,0,1,1.555.333,19.143,19.143,0,0,1,3.55,11.5,19.02,19.02,0,0,1-3.558,11.5A1.134,1.134,0,0,1,29.25,29.624Z" transform="translate(-3.206 -5.624)" fill="#fff"/>
</svg>
