<svg xmlns="http://www.w3.org/2000/svg" width="71.854" height="44.313" viewBox="0 0 71.854 44.313"><path d="M65.412,4.5H3.443A3.443,3.443,0,0,0,0,7.943V42.37a3.443,3.443,0,0,0,3.443,3.443H20.68a6.884,6.884,0,0,0,6.279-4.06l2.984-6.632a4.8,4.8,0,0,1,8.968,0L41.9,41.752a6.885,6.885,0,0,0,6.279,4.06H65.412a3.443,3.443,0,0,0,3.443-3.443V7.943A3.443,3.443,0,0,0,65.412,4.5Zm-48.2,25.82A6.885,6.885,0,1,1,24.1,23.435,6.885,6.885,0,0,1,17.214,30.32Zm34.427,0a6.885,6.885,0,1,1,6.885-6.885A6.885,6.885,0,0,1,51.641,30.32Z" transform="translate(1.5 -3)" fill="none" stroke="#fff" stroke-width="3"/></svg>