<svg xmlns="http://www.w3.org/2000/svg" width="56.959" height="35.375" viewBox="0 0 56.959 35.375">
  <path id="VR_Experience" data-name="VR Experience" d="M51.26,4.5H2.7A2.7,2.7,0,0,0,0,7.2V34.177a2.7,2.7,0,0,0,2.7,2.7H16.206a5.394,5.394,0,0,0,4.92-3.182l2.339-5.2a3.765,3.765,0,0,1,7.028,0l2.339,5.2a5.4,5.4,0,0,0,4.92,3.182H51.26a2.7,2.7,0,0,0,2.7-2.7V7.2A2.7,2.7,0,0,0,51.26,4.5ZM13.49,24.734a5.4,5.4,0,1,1,5.4-5.4A5.4,5.4,0,0,1,13.49,24.734Zm26.979,0a5.4,5.4,0,1,1,5.4-5.4A5.4,5.4,0,0,1,40.469,24.734Z" transform="translate(1.5 -3)" fill="none" stroke="#fff" stroke-width="3"/>
</svg>
